%
T1C.014F95S300
X152000Y102200
X154380Y102900
X154380Y101500
X155780Y101500
X155780Y102900
X159600Y101350
X163050Y102750
X166700Y100500
X168900Y102750
X169050Y101400
X169950Y98650
X171720Y102200
X176000Y98600
X176200Y108200
X176100Y104650
X174600Y107550
X173600Y108100
X173250Y104250
X172200Y104150
X171500Y108300
X170850Y104625
X169800Y104500
X169700Y106550
X169500Y107750
X168025Y107000
X167575Y106225
X166700Y105675
X166650Y104350
X164175Y106925
X159550Y107650
X158250Y105150
X157950Y107050
X157850Y104550
X156725Y107150
X155300Y104350
X154300Y106300
X152050Y107300
X153200Y110800
X155950Y108750
X156700Y110250
X157450Y108650
X157450Y109850
X157750Y109550
X157750Y108950
X159450Y110700
X163650Y108675
X165700Y109650
X168650Y109800
X170600Y109550
X171450Y110900
X173550Y110050
X170850Y112100
X169800Y112050
X168650Y111100
X167050Y113425
X166850Y112250
X165725Y112600
X165150Y111550
X164400Y112225
X163775Y111300
X162800Y111450
X158275Y111950
X157500Y111500
X156000Y112350
X153300Y111950
X152100Y112600
X154700Y113600
X155500Y114850
X156700Y115200
X157100Y114000
X157150Y115850
X157700Y114000
X158225Y115175
X158350Y115850
X158925Y115275
X159250Y115850
X159300Y114625
X159450Y113700
X160700Y114250
X160750Y114850
X161375Y116050
X161950Y115350
X162500Y116000
X163700Y114100
X163700Y115600
X165675Y115375
X166450Y114425
X167950Y113725
X168350Y115275
X169500Y115250
X169700Y114050
X172200Y114950
X173500Y115500
X174550Y115250
X175700Y115400
X173500Y117750
X170600Y117150
X168650Y117300
X166500Y116950
X165225Y116425
X164275Y118175
X162900Y116900
X162900Y118500
X162800Y116300
X162250Y116750
X161950Y117050
X161200Y116400
X161150Y117125
X160450Y117250
X160250Y118450
X159750Y118450
X158650Y117100
X158350Y116750
X158300Y116350
X157875Y117400
X157650Y117925
X157650Y118525
X156850Y116950
X150700Y119750
X154050Y119250
X156675Y118925
X156700Y120925
X157025Y119200
X157250Y119800
X157500Y120550
X157900Y120150
X157900Y121050
X159400Y118750
X159400Y119250
X159750Y119600
X160000Y119000
X160250Y119600
X160600Y118750
X160600Y119250
X160625Y120975
X161900Y120950
X162450Y120800
X162550Y119350
X162850Y119650
X163300Y119650
X163600Y119350
X164150Y119200
X164225Y120925
X165100Y118900
X165400Y120875
X165775Y120025
X166700Y119300
X168650Y118600
X169300Y120900
X169350Y119950
X169700Y119450
X170000Y119150
X170875Y119625
X172250Y119150
X173500Y122800
X172150Y122150
X169700Y121550
X169500Y122750
X167400Y121650
X167400Y123450
X165225Y121500
X165050Y123500
X165025Y122175
X164050Y122500
X163595Y123175
X162250Y121250
X162100Y123100
X161900Y121600
X161725Y122725
X160850Y121700
X160850Y121300
X160850Y122150
X160100Y122175
X159600Y122125
X159300Y121750
X159300Y121350
X158900Y123400
X157900Y122425
X156700Y121500
X150700Y124950
X152050Y125400
X152450Y125850
X152450Y124950
X154375Y123975
X155175Y125525
X155275Y124200
X156225Y124200
X158050Y124300
X158500Y124700
X158650Y125050
X158650Y125850
X158950Y125450
X159575Y124200
X161900Y125800
X164500Y124075
X164600Y125775
X164625Y125100
X165450Y125625
X166100Y125625
X168650Y124800
X170700Y124500
X174100Y124050
X173150Y126550
X170875Y127075
X169800Y127050
X168650Y126100
X167875Y126700
X167000Y126750
X166200Y126800
X162100Y127300
X160250Y128500
X160100Y126200
X159050Y127000
X158950Y126250
X158900Y127950
X158650Y127400
X158650Y126600
X157600Y127200
X157600Y127850
X157550Y128500
X150800Y129000
X154380Y132300
X155780Y132300
X156250Y129850
X158900Y129100
X159100Y132050
X162500Y129300
X164075Y130575
X164075Y131500
X164075Y131100
X164800Y129850
X165100Y129300
X166725Y131400
X167875Y128975
X167975Y132075
X167975Y131375
X169450Y130200
X169500Y129000
X171020Y132300
X172420Y132300
X173375Y131675
X173400Y132200
X174875Y131675
X174875Y132300
X175675Y133050
X175200Y135300
X172420Y133700
X171020Y133700
X166600Y135900
X164150Y133725
X155780Y133700
X154380Y133700
T2C.02F197S550
X154800Y111950
X155400Y110200
T3C.036F197S550
X171500Y104372
X171500Y105356
X171600Y99600
X171600Y98600
X174850Y102600
X174850Y101600
X174850Y110100
X174850Y109100
X171500Y106144
X171500Y107128
X161350Y110500
X156104Y107008
X156104Y107992
X155317Y107008
X155317Y107992
X161350Y112400
X171500Y112856
X171500Y111872
X171500Y113644
X171500Y114628
X174850Y117600
X174850Y116600
X171500Y119372
X171500Y120356
X171500Y121144
X171500Y122128
X155750Y120475
X155750Y121475
X155750Y122475
X155750Y123475
X152750Y123475
X152750Y122475
X152750Y121475
X152750Y120475
X171500Y126872
X171500Y127856
X171500Y129628
X171500Y128644
X174850Y125100
X174850Y124100
T4C.093F66S550
X154250Y105130
X172567Y103163
X172567Y108337
X172567Y110663
X172567Y115837
X172567Y118163
X154250Y109870
X172567Y123337
X172567Y125663
X172567Y130837
T5C.104F69S658
X153140Y128000
X154320Y126150
T6C.117F69S658
X155080Y102200
X171720Y133000
X155080Y133000
T7C.12F35S794
X155500Y128000
M30
