*
*
G04 PADS Layout (Build Number 2007.21.1) generated Gerber (RS-274-X) file*
G04 PC Version=2.1*
*
%IN "EVB-USB2514QFN36BC_A-wC"*%
*
%MOIN*%
*
%FSLAX35Y35*%
*
*
*
*
G04 PC Standard Apertures*
*
*
G04 Thermal Relief Aperture macro.*
%AMTER*
1,1,$1,0,0*
1,0,$1-$2,0,0*
21,0,$3,$4,0,0,45*
21,0,$3,$4,0,0,135*
%
*
*
G04 Annular Aperture macro.*
%AMANN*
1,1,$1,0,0*
1,0,$2,0,0*
%
*
*
G04 Odd Aperture macro.*
%AMODD*
1,1,$1,0,0*
1,0,$1-0.005,0,0*
%
*
*
G04 PC Custom Aperture Macros*
*
*
*
*
*
*
G04 PC Aperture Table*
*
%ADD010C,0.007*%
%ADD012C,0.01*%
%ADD013C,0.001*%
%ADD031C,0.03*%
%ADD034C,0.04*%
%ADD037C,0.005*%
%ADD038R,0.035X0.035*%
%ADD117O,0.024X0.074*%
%ADD119R,0.056X0.032*%
%ADD142R,0.07087X0.07087*%
%ADD143C,0.01083*%
%ADD145C,0.02756*%
%ADD146R,0.025X0.025*%
%ADD147C,0.0188*%
%ADD148C,0.01811*%
%ADD151R,0.01575X0.01575*%
%ADD157C,0.003*%
%ADD158C,0.0001*%
%ADD174C,0.024*%
*
*
*
*
G04 PC Copper Outlines (0)*
G04 Layer Name EVB-USB2514QFN36BC_A-wC - dark (0)*
%LPD*%
*
*
G04 PC Area=_PSI_PAC_SOT89-5_001_0000432_P162000000*
G75*
G36*
G01*
X1599630Y1283425D02*
Y1286575D01*
X1592543D01*
X1590969Y1288150D01*
X1579945D01*
X1578370Y1286575D01*
Y1283425D01*
X1579945Y1281850D01*
X1590969D01*
X1592543Y1283425D01*
X1599630D01*
G37*
G74*
*
*
G04 PC Copper Outlines (1)*
G04 Layer Name EVB-USB2514QFN36BC_A-wC - dark (1)*
%LPD*%
*
*
G04 PC Area=_PSI_PAC_XTAL_HC-49SMT-TH_000_0000586_P162000000*
G75*
G36*
G01*
X1609563Y1108988D02*
X1617437D01*
Y1110563D01*
X1609563D01*
Y1108988D01*
G37*
G74*
*
*
G04 PC Copper Outlines (2)*
G04 Layer Name EVB-USB2514QFN36BC_A-wC - dark (2)*
%LPD*%
*
*
G04 PC Area=_PSI_PAC_XTAL_HC-49SMT-TH_000_0000587_P162000000*
G75*
G36*
G01*
X1612713Y1107020D02*
X1614287D01*
Y1109382D01*
X1612713D01*
Y1107020D01*
G37*
G74*
*
*
G04 PC Copper Outlines (3)*
G04 Layer Name EVB-USB2514QFN36BC_A-wC - dark (3)*
%LPD*%
*
*
G04 PC Area=_PSI_PAC_XTAL_HC-49SMT-TH_001_0000590_P162000000*
G75*
G36*
G01*
X1609563Y1118437D02*
X1617437D01*
Y1120012D01*
X1609563D01*
Y1118437D01*
G37*
G74*
*
*
G04 PC Copper Outlines (4)*
G04 Layer Name EVB-USB2514QFN36BC_A-wC - dark (4)*
%LPD*%
*
*
G04 PC Area=_PSI_PAC_XTAL_HC-49SMT-TH_001_0000591_P162000000*
G75*
G36*
G01*
X1612713Y1119618D02*
X1614287D01*
Y1121980D01*
X1612713D01*
Y1119618D01*
G37*
G74*
*
*
G04 PC Copper Outlines (5)*
G04 Layer Name EVB-USB2514QFN36BC_A-wC - dark (5)*
%LPD*%
*
*
G04 PC Area=CFC16*
G75*
G36*
G01*
X1606750Y1186750D02*
X1600550D01*
Y1183250D01*
X1606750D01*
Y1183500D01*
X1604000D01*
Y1186000D01*
X1606500D01*
Y1184000D01*
X1606750D01*
Y1186750D01*
G37*
G74*
*
*
G04 PC Copper Outlines (6)*
G04 Layer Name EVB-USB2514QFN36BC_A-wC - dark (6)*
%LPD*%
*
*
G04 PC Area=CFC17*
G75*
G36*
G01*
X1606750Y1192000D02*
X1601250D01*
Y1188000D01*
X1606750D01*
Y1192000D01*
G37*
G74*
*
*
G04 PC Copper Outlines (7)*
G04 Layer Name EVB-USB2514QFN36BC_A-wC - dark (7)*
%LPD*%
*
*
G04 PC Area=CFC18*
G75*
G36*
G01*
X1598750Y1192000D02*
X1593250D01*
Y1188000D01*
X1598750D01*
Y1192000D01*
G37*
G74*
*
*
G04 PC Copper Outlines (8)*
G04 Layer Name EVB-USB2514QFN36BC_A-wC - dark (8)*
%LPD*%
*
*
G04 PC Area=CFC19*
G75*
G36*
G01*
X1599450Y1186750D02*
X1593250D01*
Y1184000D01*
X1593500D01*
Y1186000D01*
X1596000D01*
Y1183500D01*
X1593250D01*
Y1183250D01*
X1599450D01*
Y1186750D01*
G37*
G74*
*
*
G04 PC Copper Outlines (9)*
G04 Layer Name EVB-USB2514QFN36BC_A-wC - dark (9)*
%LPD*%
*
*
G04 PC Area=CFC20*
G75*
G36*
G01*
X1599450Y1196750D02*
X1593250D01*
Y1196500D01*
X1596000D01*
Y1194000D01*
X1593500D01*
Y1196000D01*
X1593250D01*
Y1193250D01*
X1599450D01*
Y1196750D01*
G37*
G74*
*
*
G04 PC Copper Outlines (10)*
G04 Layer Name EVB-USB2514QFN36BC_A-wC - dark (10)*
%LPD*%
*
*
G04 PC Area=CFC21*
G75*
G36*
G01*
X1606750Y1196750D02*
X1600550D01*
Y1193250D01*
X1606750D01*
Y1196000D01*
X1606500D01*
Y1194000D01*
X1604000D01*
Y1196500D01*
X1606750D01*
Y1196750D01*
G37*
G74*
*
*
G04 PC Copper Outlines (11)*
G04 Layer Name EVB-USB2514QFN36BC_A-wC - dark (11)*
%LPD*%
*
*
G04 PC Area=CFC22*
G75*
G36*
G01*
X1615900Y1107600D02*
X1611100D01*
Y1089650D01*
X1615900D01*
Y1107600D01*
G37*
G74*
*
*
G04 PC Copper Outlines (12)*
G04 Layer Name EVB-USB2514QFN36BC_A-wC - dark (12)*
%LPD*%
*
*
G04 PC Area=CFC23*
G75*
G36*
G01*
X1615900Y1139400D02*
X1611100D01*
Y1121500D01*
X1615900D01*
Y1139400D01*
G37*
G74*
*
*
G04 PC Copper Outlines (13)*
G04 Layer Name EVB-USB2514QFN36BC_A-wC - dark (13)*
%LPD*%
*
*
G04 PC Area=Custom_Thermal*
*
G04 PC Custom Flashes*
G04 Layer Name EVB-USB2514QFN36BC_A-wC - flashes*
%LPD*%
*
*
G04 PC Circuitry*
G04 Layer Name EVB-USB2514QFN36BC_A-wC - circuitry*
%LPD*%
*
G54D10*
G01X2177600Y506700D02*
Y510138D01*
X2150120Y496385D02*
X2173426D01*
X2150120Y492947D02*
X2174533D01*
X2177600Y506700D02*
X2155434D01*
X2177600Y510138D02*
X2154841D01*
X2173426Y499823D02*
X2154841D01*
X2174019Y503262D02*
X2155434D01*
Y506700D02*
G75*
G03Y503262I202J-1719D01*
G01X2154840Y510138D02*
G03Y499823I18J-5157D01*
G01X2173426Y496385D02*
G03Y499823I-201J1719D01*
G01X2174533Y492947D02*
G03X2174019Y503262I-550J5143D01*
G01X2217734Y496385D02*
Y504981D01*
X2181422Y492947D02*
Y504981D01*
X2186391Y492947D02*
Y505554D01*
X2197094Y492947D02*
Y506700D01*
X2212765Y492947D02*
Y505554D01*
X2202063Y492947D02*
Y506700D01*
X2211334D02*
X2202063D01*
X2181422Y492947D02*
X2186391D01*
X2212594Y510138D02*
X2186563D01*
X2197094Y492947D02*
X2202063D01*
X2186567Y510138D02*
G03X2181422Y504957I27J-5171D01*
G01X2187822Y506700D02*
G03X2186391Y505554I205J-1722D01*
G01X2212766Y505553D02*
G03X2211334Y506700I-1634J-572D01*
G01X2217734Y504948D02*
G03X2212599Y510138I-5171J19D01*
G01X2186391Y510134D02*
Y510138D01*
X2197094Y506700D02*
X2187823D01*
X2246010Y492947D02*
G03X2245497Y503262I-550J5143D01*
G01X2244904Y496385D02*
G03Y499823I-202J1719D01*
G01X2212765Y492947D02*
X2246010D01*
X2217734Y496385D02*
X2244904D01*
Y499823D02*
X2226319D01*
X2245497Y503262D02*
X2226911D01*
X2249078Y510138D02*
X2226319D01*
X2249078Y506700D02*
X2226911D01*
X2226317Y510138D02*
G03Y499823I18J-5157D01*
G01X2226912Y506700D02*
G03Y503262I202J-1719D01*
G01X2249078Y506700D02*
Y510138D01*
X2280803Y506700D02*
X2258637D01*
X2280803Y510138D02*
X2258044D01*
X2258048D02*
G03X2252931Y505507I27J-5171D01*
G01X2258635Y506700D02*
G03X2257108Y504980I205J-1720D01*
G01X2280803Y506700D02*
Y510138D01*
X2257530Y492947D02*
X2280803D01*
X2258637Y496385D02*
X2280803D01*
X2257108Y498103D02*
Y505009D01*
X2252931Y497557D02*
Y505499D01*
Y497554D02*
G03X2257530Y492947I5150J542D01*
G01X2257108Y498107D02*
G03X2258637Y496385I1734J-0D01*
G01X2280803Y492947D02*
Y496385D01*
X2150120D02*
Y492947D01*
X2117730Y490472D02*
Y480865D01*
X2095697Y488363D02*
Y478990D01*
X2087961Y504062D02*
Y497432D01*
X2081867Y494924D02*
Y485317D01*
X2109761Y513435D02*
X2139061Y499844D01*
X2109761Y494201D02*
Y484614D01*
Y506405D02*
X2123356Y499844D01*
X2139061D02*
X2117730Y490472D01*
X2087961Y504062D02*
X2095598Y500576D01*
X2109761Y513435D02*
X2087961Y504062D01*
X2095598Y500576D02*
X2109761Y506405D01*
Y494201D02*
X2123356Y499844D01*
X2081867Y494924D02*
X2095697Y488363D01*
X2081867Y485317D02*
X2095697Y478990D01*
X2109761Y484614D02*
X2117730Y480865D01*
X2109656Y494158D02*
X2117730Y490472D01*
X2109761Y494201D02*
X2095598Y500576D01*
X2081867Y494924*
X2095697Y488363D02*
X2109656Y494158D01*
X2109761Y494201D02*
Y506405D01*
X2150209Y496309D02*
X2175009D01*
Y493109*
X2150209*
Y496309*
X2174609Y495909D02*
X2150609D01*
Y493509*
X2174609*
Y495909*
X2151009Y495509D02*
X2174209D01*
Y493909*
X2151009*
Y495509*
X2173809Y495109D02*
X2151409D01*
Y494309*
X2173809*
Y495109*
X2151809Y494709D02*
X2174209D01*
Y494309*
X2151809*
Y494709*
X2175009Y498309D02*
X2179009D01*
Y497109*
X2175009*
Y498309*
Y497909D02*
X2178609D01*
Y496709*
X2175009*
Y497909*
Y497509D02*
X2178609D01*
Y496309*
X2175009*
Y497509*
X2174609Y496709D02*
X2178609D01*
Y495909*
X2174609*
Y496709*
X2175409Y495509D02*
X2178209D01*
Y495109*
X2175409*
Y495509*
X2175009Y495109D02*
X2177809D01*
Y494709*
X2175009*
Y495109*
Y494709D02*
X2177409D01*
Y494309*
X2175009*
Y494709*
Y494309D02*
X2177009D01*
Y493909*
X2175009*
Y494309*
X2174609Y493909D02*
X2176209D01*
Y493509*
X2174609*
Y493909*
X2154209Y503109D02*
X2175009D01*
Y499909*
X2154209*
Y503109*
X2154609Y502709D02*
X2174609D01*
Y500309*
X2154609*
Y502709*
X2155009Y502309D02*
X2174209D01*
Y500709*
X2155009*
Y502309*
X2155409Y501909D02*
X2173809D01*
Y501109*
X2155409*
Y501909*
Y501509D02*
X2173809D01*
Y501109*
X2155409*
Y501509*
X2174209Y502709D02*
X2176209D01*
Y499509*
X2174209*
Y502709*
X2175409Y502309D02*
X2176609D01*
Y499109*
X2175409*
Y502309*
X2175809Y501909D02*
X2177009D01*
Y499109*
X2175809*
Y501909*
X2175009Y499509D02*
X2178609D01*
Y498709*
X2175009*
Y499509*
X2177009Y498309D02*
X2178609D01*
Y499909*
X2177009*
Y498309*
X2177409Y499109D02*
X2178209D01*
Y500309*
X2177409*
Y499109*
X2176609Y501509D02*
X2177809D01*
Y500709*
X2176609*
Y501509*
X2177009Y501109D02*
X2177809D01*
Y500709*
X2177009*
Y501109*
X2177409Y499909D02*
X2178209D01*
Y500709*
X2177409*
Y499909*
X2153009Y505109D02*
X2153809D01*
Y501909*
X2153009*
Y505109*
X2152209Y503509D02*
X2154609D01*
Y502709*
X2152209*
Y503509*
Y505509D02*
X2153409D01*
Y501109*
X2152209*
Y505509*
X2154209Y501509D02*
X2153409D01*
Y500309*
X2154209*
Y501509*
X2152609Y507109D02*
X2153809D01*
Y500709*
X2152609*
Y507109*
X2151809Y507509D02*
X2153009D01*
Y501109*
X2151809*
Y507509*
X2151409D02*
X2152209D01*
Y501509*
X2151409*
Y507509*
X2151009D02*
X2151409D01*
Y501909*
X2151009*
Y507509*
X2150609D02*
X2151009D01*
Y502309*
X2150609*
Y507509*
X2150209Y503109D02*
X2150609D01*
Y506709*
X2150209*
Y503109*
X2153809Y509909D02*
X2177409D01*
Y506709*
X2153809*
Y509909*
X2153409Y505509D02*
X2153809D01*
Y509509*
X2153409*
Y505509*
X2154209Y509509D02*
X2153809D01*
Y506309*
X2154209*
Y509509*
X2153009D02*
X2152609D01*
Y507909*
X2153009*
Y509509*
X2152609Y507509D02*
X2152209D01*
Y509109*
X2152609*
Y507509*
X2152209D02*
X2151809D01*
Y508709*
X2152209*
Y507509*
X2151809D02*
X2151409D01*
Y508309*
X2151809*
Y507509*
X2151409D02*
X2151009D01*
Y507909*
X2151409*
Y507509*
X2154609Y509509D02*
X2177009D01*
Y507109*
X2154609*
Y509509*
X2176609Y509109D02*
X2155009D01*
Y507509*
X2176609*
Y509109*
X2155409Y508709D02*
X2176209D01*
Y507909*
X2155409*
Y508709*
X2176209Y508309D02*
X2155009D01*
Y507109*
X2176209*
Y508309*
X2181809Y505109D02*
X2186209D01*
Y493109*
X2181809*
Y505109*
X2185809Y493509D02*
X2182209D01*
Y507109*
X2185809*
Y493509*
X2185409Y493909D02*
X2182609D01*
Y507909*
X2185409*
Y493909*
X2185009Y494309D02*
X2183009D01*
Y508709*
X2185009*
Y494309*
X2184609Y494709D02*
X2183409D01*
Y508709*
X2184609*
Y494709*
X2184209Y495109D02*
X2183809D01*
Y509109*
X2184209*
Y495109*
X2182609Y504709D02*
X2181809D01*
Y506309*
X2182609*
Y504709*
X2185009Y505109D02*
X2186209D01*
Y509509*
X2185009*
Y505109*
X2184609Y505909D02*
X2186609D01*
Y509509*
X2184609*
Y505909*
X2185409Y506709D02*
X2187009D01*
Y509909*
X2185409*
Y506709*
X2185809Y507109D02*
X2213809D01*
Y509909*
X2185809*
Y507109*
X2187409Y507509D02*
X2214209D01*
Y509509*
X2187409*
Y507509*
X2187809Y509109D02*
X2215409D01*
Y507909*
X2187809*
Y509109*
X2188209Y508709D02*
X2215809D01*
Y508309*
X2188209*
Y508709*
X2214609Y509509D02*
X2213009D01*
Y505509*
X2214609*
Y509509*
X2211809Y507509D02*
X2217009D01*
Y506709*
X2211809*
Y507509*
X2212609Y507909D02*
X2216609D01*
Y506309*
X2212609*
Y507909*
X2217409Y505509D02*
X2213409D01*
Y506709*
X2217409*
Y505509*
X2216209Y508309D02*
X2213809D01*
Y505509*
X2216209*
Y508309*
X2197409Y506709D02*
X2201809D01*
Y493109*
X2197409*
Y506709*
X2201409Y493509D02*
X2197809D01*
Y506309*
X2201409*
Y493509*
X2198209Y505909D02*
X2201009D01*
Y493909*
X2198209*
Y505909*
X2200609Y494309D02*
X2198609D01*
Y505509*
X2200609*
Y494309*
X2198609Y505109D02*
X2200209D01*
Y494709*
X2198609*
Y505109*
X2199809Y495109D02*
X2199009D01*
Y504709*
X2199809*
Y495109*
X2198609Y505109D02*
X2199409D01*
Y495109*
X2198609*
Y505109*
X2213009Y507109D02*
X2217009D01*
Y493109*
X2213009*
Y507109*
X2213409Y505909D02*
X2217409D01*
Y493509*
X2213409*
Y505909*
X2213809Y505109D02*
X2216609D01*
Y493909*
X2213809*
Y505109*
X2214209Y504709D02*
X2216209D01*
Y494309*
X2214209*
Y504709*
X2214609Y504309D02*
X2215809D01*
Y494709*
X2214609*
Y504309*
X2215009Y503909D02*
X2215409D01*
Y495109*
X2215009*
Y503909*
X2217409Y496309D02*
X2246609D01*
Y493109*
X2217409*
Y496309*
X2217809Y493509D02*
X2247809D01*
Y495909*
X2217809*
Y493509*
X2218209Y495509D02*
X2248209D01*
Y493909*
X2218209*
Y495509*
X2218609Y495109D02*
X2249009D01*
Y494309*
X2218609*
Y495109*
X2249409Y494709D02*
X2218209D01*
Y495909*
X2249409*
Y494709*
X2249809Y495909D02*
X2246609D01*
Y500709*
X2249809*
Y495909*
Y495509D02*
X2246209D01*
Y497109*
X2249809*
Y495509*
X2247009Y496309D02*
X2250209D01*
Y499509*
X2247009*
Y496309*
X2247409Y496709D02*
X2249409D01*
Y501109*
X2247409*
Y496709*
X2249009Y497509D02*
X2247809D01*
Y501509*
X2249009*
Y497509*
X2248609Y497909D02*
X2247009D01*
Y501909*
X2248609*
Y497909*
X2248209Y498309D02*
X2246609D01*
Y502309*
X2248209*
Y498309*
X2247409Y499909D02*
X2225809D01*
Y502709*
X2247409*
Y499909*
X2225809Y503109D02*
X2246209D01*
Y500309*
X2225809*
Y503109*
X2247009Y500309D02*
X2246209D01*
Y499509*
X2247009*
Y500309*
X2245809Y500709D02*
X2223409D01*
Y502709*
X2245809*
Y500709*
X2245409Y501109D02*
X2223009D01*
Y502309*
X2245409*
Y501109*
X2245009Y501509D02*
X2223809D01*
Y501909*
X2245009*
Y501509*
X2225809Y500309D02*
X2224609D01*
Y503509*
X2225809*
Y500309*
X2225409Y503109D02*
X2223409D01*
Y509109*
X2225409*
Y503109*
X2222609Y501909D02*
X2225009D01*
Y508309*
X2222609*
Y501909*
X2222209Y502309D02*
X2223809D01*
Y507909*
X2222209*
Y502309*
X2221809Y507109D02*
X2224209D01*
Y502709*
X2221809*
Y507109*
Y503909D02*
X2224609D01*
Y507109*
X2221809*
Y503909*
X2223009Y502709D02*
X2222209D01*
Y507509*
X2223009*
Y502709*
X2221409Y506309D02*
X2222209D01*
Y503909*
X2221409*
Y506309*
X2223009Y507109D02*
X2225009D01*
Y508709*
X2223009*
Y507109*
X2224209Y506309D02*
X2225809D01*
Y509509*
X2224209*
Y506309*
X2224609Y506709D02*
X2226209D01*
Y509509*
X2224609*
Y506709*
X2249009Y509909D02*
X2225809D01*
Y506709*
X2249009*
Y509909*
X2248609Y507109D02*
X2226609D01*
Y509509*
X2248609*
Y507109*
X2227009Y509109D02*
X2248209D01*
Y507509*
X2227009*
Y509109*
X2247809Y508709D02*
X2227409D01*
Y507909*
X2247809*
Y508709*
X2227009D02*
X2247809D01*
Y508309*
X2227009*
Y508709*
X2280609Y495909D02*
X2257009D01*
Y493109*
X2280609*
Y495909*
X2280209Y493509D02*
X2256209D01*
Y495509*
X2280209*
Y493509*
X2279809Y495109D02*
X2255409D01*
Y493909*
X2279809*
Y495109*
X2279409Y494709D02*
X2254609D01*
Y494309*
X2279409*
Y494709*
X2257009Y497509D02*
X2253009D01*
Y505909*
X2257009*
Y497509*
X2253409Y506709D02*
X2256609D01*
Y496709*
X2253409*
Y506709*
X2253809Y507509D02*
X2256209D01*
Y495509*
X2253809*
Y507509*
X2254209Y507909D02*
X2256209D01*
Y495109*
X2254209*
Y507909*
Y508309D02*
X2255809D01*
Y495509*
X2254209*
Y508309*
X2257009Y509509D02*
X2256209D01*
Y495509*
X2257009*
Y509509*
X2256609Y509109D02*
X2255009D01*
Y495509*
X2256609*
Y509109*
X2255809Y508709D02*
X2255409D01*
Y495909*
X2255809*
Y508709*
X2255409Y507509D02*
X2254609D01*
Y495509*
X2255409*
Y507509*
X2253409Y496709D02*
X2257809D01*
Y496309*
X2253409*
Y496709*
X2258609Y495509D02*
X2257809D01*
Y496309*
X2258609*
Y495509*
X2256609Y507509D02*
X2257409D01*
Y506309*
X2256609*
Y507509*
X2257809Y509909D02*
X2257409D01*
Y506709*
X2257809*
Y509909*
X2258209Y506709D02*
X2280609D01*
Y509909*
X2258209*
Y506709*
X2280209Y509509D02*
X2258609D01*
Y507109*
X2280209*
Y509509*
X2259009Y509109D02*
X2279809D01*
Y507509*
X2259009*
Y509109*
X2279409Y508709D02*
X2259409D01*
Y507909*
X2279409*
Y508709*
X2259409Y508309D02*
X2279409D01*
Y507509*
X2259409*
Y508309*
X2110209Y505909D02*
X2122609Y499909D01*
X2110209Y494709*
Y505909*
X2110609Y505509D02*
X2121809Y499909D01*
X2110609Y495109*
Y505509*
X2111009Y505109D02*
Y495509D01*
X2121009Y499909*
X2111009Y505109*
X2111409Y504709D02*
Y495909D01*
X2120209Y499909*
X2111409Y504709*
X2111809Y504309D02*
Y496309D01*
X2119409Y499909*
X2111809Y504309*
X2112209Y503909D02*
Y496709D01*
X2118609Y499909*
X2112209Y503909*
X2112609Y503509D02*
Y497109D01*
X2117809Y499909*
X2112609Y503509*
Y502709*
X2113009D02*
Y497509D01*
X2117009Y499909*
X2113009Y502709*
X2113409Y502309D02*
Y498309D01*
X2116209Y499909*
X2113409Y501909*
X2113809Y501509D02*
Y498709D01*
X2115409Y499909*
X2113809Y501509*
X2113409Y497509*
X2115009Y499909D02*
X2114209Y500709D01*
Y499509*
X2115009Y500309*
Y499909D02*
X2113409Y500309D01*
X2116209Y499909D02*
X2117009D01*
X2112609Y503509D02*
X2113409Y501509D01*
X2110209Y493509D02*
Y484709D01*
X2117409Y481509*
Y490309*
X2110209Y493509*
X2110609Y493109D02*
Y484709D01*
X2117009Y481909*
Y490309*
X2111009Y492709*
Y492309D02*
Y484709D01*
X2116609Y482309*
Y490309*
X2111009Y492309*
X2111409Y491909D02*
Y484709D01*
X2116209Y482709*
Y490309*
X2111409Y491909*
X2111809Y491509D02*
Y484709D01*
X2115809Y483109*
Y489909*
X2111809Y491509*
X2112209Y491109D02*
Y484709D01*
X2115409Y483509*
Y489909*
X2112209Y491109*
X2112609Y490709D02*
Y484709D01*
X2115009Y483909*
Y489909*
X2112609Y490709*
X2113009Y490309D02*
Y484709D01*
X2114609Y484309*
Y489909*
X2114209D02*
Y484709D01*
X2113409*
Y490309*
X2114209Y489909*
X2113809D02*
Y484709D01*
X2088209Y503509D02*
Y497909D01*
X2095009Y500709*
X2088209Y503509*
X2088609Y503109D02*
Y498309D01*
X2094209Y500709*
X2088609Y503109*
X2089009Y502709D02*
Y498709D01*
X2093409Y500709*
X2089009Y502709*
X2089409Y502309D02*
Y499109D01*
X2092609Y500709*
X2089409Y502309*
X2089809Y501909D02*
Y499509D01*
X2091809Y500709*
X2089809Y501909*
X2090209Y501509D02*
Y499909D01*
X2091009Y500709*
X2090209Y501509*
X2089809Y500709*
X2091409*
X2091009Y501909*
X2089809Y499909*
X2082209Y494309D02*
Y485509D01*
X2095409Y479509*
Y488309*
X2082209Y494309*
X2082609Y493909D02*
Y485509D01*
X2095009Y479909*
Y488309*
X2082609Y493909*
X2083009Y493509D02*
Y485509D01*
X2094609Y480309*
Y488309*
X2083009Y493509*
X2083409Y493109D02*
Y485509D01*
X2094209Y480709*
Y487909*
X2083409Y493109*
X2083809Y492709D02*
Y485509D01*
X2093809Y481109*
Y487909*
X2083809Y492709*
X2084209Y492309D02*
Y485509D01*
X2093409Y481509*
Y487909*
X2084209Y492309*
X2084609Y491909D02*
Y485509D01*
X2093009Y481909*
Y487509*
X2084609Y491909*
X2085009Y491509D02*
Y485909D01*
X2092609Y482309*
Y487509*
X2085009Y491109*
X2085409Y490709D02*
Y485909D01*
X2092209Y482709*
Y487509*
X2085409Y490709*
X2085809Y490309D02*
Y485909D01*
X2091809Y483109*
Y487509*
X2085809Y490309*
X2086209Y489909D02*
Y485909D01*
X2091409Y483509*
Y487509*
X2086209Y489909*
X2086609Y489509D02*
Y485909D01*
X2091009Y483909*
Y487509*
X2086609Y489509*
X2087009Y489109D02*
Y485909D01*
X2090609Y484309*
Y487509*
X2087009Y489109*
X2087409Y488709D02*
Y485909D01*
X2090209Y484709*
Y487509*
X2087409Y488709*
X2087809Y488309D02*
Y485909D01*
X2089809Y485109*
Y487509*
X2087809Y488309*
X2088209Y487909D02*
Y485909D01*
X2089409Y485509*
Y487109*
X2088209Y487909*
X2088609Y487509D02*
Y485909D01*
X2089009*
Y487509*
X2088609*
X2089009Y485509*
X2288500Y511500D02*
G03X2288500I-2500J0D01*
G01X2152145Y486200D02*
X2151782Y486700D01*
X2151236Y486950*
X2150509*
X2149964Y486700*
X2149600Y486200*
Y485700*
X2149782Y485200*
X2149964Y484950*
X2150327Y484700*
X2151418Y484200*
X2151782Y483950*
X2151964Y483700*
X2152145Y483200*
Y482450*
X2151782Y481950*
X2151236Y481700*
X2150509*
X2149964Y481950*
X2149600Y482450*
X2157964Y486950D02*
Y483200D01*
X2158145Y482450*
X2158509Y481950*
X2159055Y481700*
X2159418*
X2159964Y481950*
X2160327Y482450*
X2160509Y483200*
Y486950*
X2169055Y485700D02*
X2168873Y486200D01*
X2168509Y486700*
X2168145Y486950*
X2167418*
X2167055Y486700*
X2166691Y486200*
X2166509Y485700*
X2166327Y484950*
Y483700*
X2166509Y482950*
X2166691Y482450*
X2167055Y481950*
X2167418Y481700*
X2168145*
X2168509Y481950*
X2168873Y482450*
X2169055Y482950*
X2177600Y485700D02*
X2177418Y486200D01*
X2177055Y486700*
X2176691Y486950*
X2175964*
X2175600Y486700*
X2175236Y486200*
X2175055Y485700*
X2174873Y484950*
Y483700*
X2175055Y482950*
X2175236Y482450*
X2175600Y481950*
X2175964Y481700*
X2176691*
X2177055Y481950*
X2177418Y482450*
X2177600Y482950*
X2183418Y486950D02*
Y481700D01*
Y486950D02*
X2185782D01*
X2183418Y484450D02*
X2184873D01*
X2183418Y481700D02*
X2185782D01*
X2194145Y486200D02*
X2193782Y486700D01*
X2193236Y486950*
X2192509*
X2191964Y486700*
X2191600Y486200*
Y485700*
X2191782Y485200*
X2191964Y484950*
X2192327Y484700*
X2193418Y484200*
X2193782Y483950*
X2193964Y483700*
X2194145Y483200*
Y482450*
X2193782Y481950*
X2193236Y481700*
X2192509*
X2191964Y481950*
X2191600Y482450*
X2202509Y486200D02*
X2202145Y486700D01*
X2201600Y486950*
X2200873*
X2200327Y486700*
X2199964Y486200*
Y485700*
X2200145Y485200*
X2200327Y484950*
X2200691Y484700*
X2201782Y484200*
X2202145Y483950*
X2202327Y483700*
X2202509Y483200*
Y482450*
X2202145Y481950*
X2201600Y481700*
X2200873*
X2200327Y481950*
X2199964Y482450*
X2216691Y486950D02*
Y481700D01*
Y486950D02*
X2218327D01*
X2218873Y486700*
X2219055Y486450*
X2219236Y485950*
Y485450*
X2219055Y484950*
X2218873Y484700*
X2218327Y484450*
X2216691D02*
X2218327D01*
X2218873Y484200*
X2219055Y483950*
X2219236Y483450*
Y482700*
X2219055Y482200*
X2218873Y481950*
X2218327Y481700*
X2216691*
X2225055Y486950D02*
X2226509Y484450D01*
Y481700*
X2227964Y486950D02*
X2226509Y484450D01*
X2242145Y486950D02*
Y481700D01*
Y486950D02*
X2243418D01*
X2243964Y486700*
X2244327Y486200*
X2244509Y485700*
X2244691Y484950*
Y483700*
X2244509Y482950*
X2244327Y482450*
X2243964Y481950*
X2243418Y481700*
X2242145*
X2250509Y486950D02*
Y481700D01*
Y486950D02*
X2252873D01*
X2250509Y484450D02*
X2251964D01*
X2250509Y481700D02*
X2252873D01*
X2261236Y486200D02*
X2260873Y486700D01*
X2260327Y486950*
X2259600*
X2259055Y486700*
X2258691Y486200*
Y485700*
X2258873Y485200*
X2259055Y484950*
X2259418Y484700*
X2260509Y484200*
X2260873Y483950*
X2261055Y483700*
X2261236Y483200*
Y482450*
X2260873Y481950*
X2260327Y481700*
X2259600*
X2259055Y481950*
X2258691Y482450*
X2267055Y486950D02*
Y481700D01*
X2275600Y485700D02*
X2275418Y486200D01*
X2275055Y486700*
X2274691Y486950*
X2273964*
X2273600Y486700*
X2273236Y486200*
X2273055Y485700*
X2272873Y484950*
Y483700*
X2273055Y482950*
X2273236Y482450*
X2273600Y481950*
X2273964Y481700*
X2274691*
X2275055Y481950*
X2275418Y482450*
X2275600Y482950*
Y483700*
X2274691D02*
X2275600D01*
X2281418Y486950D02*
Y481700D01*
Y486950D02*
X2283964Y481700D01*
Y486950D02*
Y481700D01*
X2285200Y513050D02*
Y509900D01*
Y513050D02*
X2286182D01*
X2286509Y512900*
X2286618Y512750*
X2286727Y512450*
Y512150*
X2286618Y511850*
X2286509Y511700*
X2286182Y511550*
X2285200*
X2285964D02*
X2286727Y509900D01*
G54D12*
X1611100Y1089650D02*
Y1107600D01*
X1615900*
Y1089650*
X1611100*
Y1121500D02*
Y1139400D01*
X1615900*
Y1121500*
X1611100*
X1418692Y1949586D02*
X1453692D01*
X1436192Y1924586*
X361192Y1142086D02*
X386192Y1124586D01*
X361192Y1107086D02*
X386192Y1124586D01*
X361192Y1142086D02*
Y1107086D01*
X2511192D02*
X2486192Y1124586D01*
G54D13*
X349533Y1749186D02*
Y1730436D01*
Y1749186D02*
X354078D01*
X356026Y1748293*
X357325Y1746507*
X357974Y1744722*
X358624Y1742043*
Y1737579*
X357974Y1734900*
X357325Y1733115*
X356026Y1731329*
X354078Y1730436*
X349533*
X653630Y1960003D02*
X647136Y1947503D01*
X656876*
X653630Y1960003D02*
Y1941253D01*
X359749Y1344722D02*
X359100Y1346507D01*
X357801Y1348293*
X356502Y1349186*
X353905*
X352606Y1348293*
X351308Y1346507*
X350658Y1344722*
X350009Y1342043*
Y1337579*
X350658Y1334900*
X351308Y1333115*
X352606Y1331329*
X353905Y1330436*
X356502*
X357801Y1331329*
X359100Y1333115*
X359749Y1334900*
X349533Y949186D02*
Y930436D01*
Y949186D02*
X355377D01*
X357325Y948293*
X357974Y947400*
X358624Y945615*
Y943829*
X357974Y942043*
X357325Y941150*
X355377Y940257*
X349533D02*
X355377D01*
X357325Y939365*
X357974Y938472*
X358624Y936686*
Y934007*
X357974Y932222*
X357325Y931329*
X355377Y930436*
X349533*
X356632Y549186D02*
X351438Y530436D01*
X356632Y549186D02*
X361827Y530436D01*
X353386Y536686D02*
X359879D01*
X653630Y310003D02*
X647136Y297503D01*
X656876*
X653630Y310003D02*
Y291253D01*
X2451235Y395021D02*
Y387990D01*
Y395021D02*
X2453427D01*
X2454158Y394687*
X2454401Y394352*
X2454645Y393682*
Y393012*
X2454401Y392343*
X2454158Y392008*
X2453427Y391673*
X2451235*
X2452940D02*
X2454645Y387990D01*
X2456836Y395021D02*
Y387990D01*
Y395021D02*
X2460002D01*
X2456836Y391673D02*
X2458784D01*
X2456836Y387990D02*
X2460002D01*
X2462193Y395021D02*
X2464141Y387990D01*
X2466089Y395021D02*
X2464141Y387990D01*
X2458843Y377336D02*
X2453649Y358586D01*
X2458843Y377336D02*
X2464038Y358586D01*
X2455597Y364836D02*
X2462090D01*
X2506632Y549186D02*
X2501438Y530436D01*
X2506632Y549186D02*
X2511827Y530436D01*
X2503386Y536686D02*
X2509879D01*
X2506632Y549186D02*
X2501438Y530436D01*
X2506632Y549186D02*
X2511827Y530436D01*
X2503386Y536686D02*
X2509879D01*
X1173911Y310003D02*
X1181054D01*
X1177158Y302860*
X1179106*
X1180404Y301967*
X1181054Y301074*
X1181703Y298396*
Y296610*
X1181054Y293931*
X1179755Y292146*
X1177807Y291253*
X1175859*
X1173911Y292146*
X1173262Y293039*
X1172612Y294824*
X2357086Y340141D02*
X2356599Y340811D01*
X2355868Y341146*
X2354894*
X2354164Y340811*
X2353677Y340141*
Y339472*
X2353920Y338802*
X2354164Y338467*
X2354651Y338133*
X2356112Y337463*
X2356599Y337128*
X2356842Y336793*
X2357086Y336124*
Y335119*
X2356599Y334450*
X2355868Y334115*
X2354894*
X2354164Y334450*
X2353677Y335119*
X2359277Y341146D02*
Y334115D01*
X2362686Y341146D02*
Y334115D01*
X2359277Y337798D02*
X2362686D01*
X2364878Y341146D02*
Y334115D01*
Y341146D02*
X2368043D01*
X2364878Y337798D02*
X2366826D01*
X2364878Y334115D02*
X2368043D01*
X2370235Y341146D02*
Y334115D01*
Y341146D02*
X2373400D01*
X2370235Y337798D02*
X2372183D01*
X2370235Y334115D02*
X2373400D01*
X2377296Y341146D02*
Y334115D01*
X2375592Y341146D02*
X2379001D01*
X2416256D02*
X2415769Y340811D01*
X2415282Y340141*
X2415039Y339472*
X2414795Y338467*
Y336793*
X2415039Y335789*
X2415282Y335119*
X2415769Y334450*
X2416256Y334115*
X2417230*
X2417717Y334450*
X2418204Y335119*
X2418448Y335789*
X2418691Y336793*
Y338467*
X2418448Y339472*
X2418204Y340141*
X2417717Y340811*
X2417230Y341146*
X2416256*
X2420883D02*
Y334115D01*
Y341146D02*
X2424048D01*
X2420883Y337798D02*
X2422831D01*
X2433058Y341146D02*
X2432327Y340811D01*
X2432084Y340141*
Y339472*
X2432327Y338802*
X2432814Y338467*
X2433788Y338133*
X2434519Y337798*
X2435006Y337128*
X2435249Y336459*
Y335454*
X2435006Y334784*
X2434762Y334450*
X2434032Y334115*
X2433058*
X2432327Y334450*
X2432084Y334784*
X2431840Y335454*
Y336459*
X2432084Y337128*
X2432571Y337798*
X2433301Y338133*
X2434275Y338467*
X2434762Y338802*
X2435006Y339472*
Y340141*
X2434762Y340811*
X2434032Y341146*
X2433058*
X2162642Y435555D02*
Y415867D01*
Y435555D02*
X2168778D01*
X2170824Y434617*
X2171505Y433680*
X2172187Y431805*
Y428992*
X2171505Y427117*
X2170824Y426180*
X2168778Y425242*
X2162642*
X2183778Y435555D02*
X2178324Y415867D01*
X2183778Y435555D02*
X2189233Y415867D01*
X2180369Y422430D02*
X2187187D01*
X2204914Y432742D02*
X2203551Y434617D01*
X2201505Y435555*
X2198778*
X2196733Y434617*
X2195369Y432742*
Y430867*
X2196051Y428992*
X2196733Y428055*
X2198096Y427117*
X2202187Y425242*
X2203551Y424305*
X2204233Y423367*
X2204914Y421492*
Y418680*
X2203551Y416805*
X2201505Y415867*
X2198778*
X2196733Y416805*
X2195369Y418680*
X2215824Y435555D02*
Y415867D01*
X2211051Y435555D02*
X2220596D01*
X2226733D02*
Y415867D01*
Y435555D02*
X2235596D01*
X2226733Y426180D02*
X2232187D01*
X2226733Y415867D02*
X2235596D01*
X2257414Y435555D02*
Y415867D01*
Y435555D02*
X2262869Y415867D01*
X2268324Y435555D02*
X2262869Y415867D01*
X2268324Y435555D02*
Y415867D01*
X2279914Y435555D02*
X2274460Y415867D01*
X2279914Y435555D02*
X2285369Y415867D01*
X2276505Y422430D02*
X2283324D01*
X2301051Y432742D02*
X2299687Y434617D01*
X2297642Y435555*
X2294914*
X2292869Y434617*
X2291505Y432742*
Y430867*
X2292187Y428992*
X2292869Y428055*
X2294233Y427117*
X2298324Y425242*
X2299687Y424305*
X2300369Y423367*
X2301051Y421492*
Y418680*
X2299687Y416805*
X2297642Y415867*
X2294914*
X2292869Y416805*
X2291505Y418680*
X2307187Y435555D02*
Y415867D01*
X2316733Y435555D02*
X2307187Y422430D01*
X2310596Y427117D02*
X2316733Y415867D01*
X2338551Y424305D02*
X2350824D01*
X2377414Y435555D02*
Y415867D01*
X2372642Y435555D02*
X2382187D01*
X2392414D02*
X2391051Y434617D01*
X2389687Y432742*
X2389005Y430867*
X2388324Y428055*
Y423367*
X2389005Y420555*
X2389687Y418680*
X2391051Y416805*
X2392414Y415867*
X2395142*
X2396505Y416805*
X2397869Y418680*
X2398551Y420555*
X2399233Y423367*
Y428055*
X2398551Y430867*
X2397869Y432742*
X2396505Y434617*
X2395142Y435555*
X2392414*
X2405369D02*
Y415867D01*
Y435555D02*
X2411505D01*
X2413551Y434617*
X2414233Y433680*
X2414914Y431805*
Y428992*
X2414233Y427117*
X2413551Y426180*
X2411505Y425242*
X2405369*
X2395994Y339428D02*
X2395750Y340097D01*
X2395020Y340432*
X2394533*
X2393802Y340097*
X2393315Y339093*
X2393072Y337419*
Y335745*
X2393315Y334406*
X2393315D02*
X2393802Y333736D01*
X2394533Y333401*
X2394776*
X2395507Y333736*
X2395994Y334406*
X2395994D02*
X2396237Y335410D01*
Y335745*
X2395994Y336749*
X2395507Y337419*
X2394776Y337754*
X2394533*
X2393802Y337419*
X2393315Y336749*
X2393072Y335745*
X2238773Y373663D02*
Y360537D01*
Y373663D02*
X2244682D01*
X2238773Y367412D02*
X2242409D01*
X2238773Y360537D02*
X2244682D01*
X2248773Y373663D02*
X2252409Y360537D01*
X2256045Y373663D02*
X2252409Y360537D01*
X2260136Y373663D02*
Y360537D01*
Y373663D02*
X2264227D01*
X2264227D02*
X2265591Y373038D01*
X2265591D02*
X2266045Y372413D01*
X2266045D02*
X2266500Y371163D01*
X2266500D02*
Y369913D01*
X2266500D02*
X2266045Y368663D01*
X2266045D02*
X2265591Y368037D01*
X2265591D02*
X2264227Y367412D01*
X2260136D02*
X2264227D01*
X2264227D02*
X2265591Y366787D01*
X2265591D02*
X2266045Y366162D01*
X2266045D02*
X2266500Y364912D01*
X2266500D02*
Y363037D01*
X2266500D02*
X2266045Y361787D01*
X2266045D02*
X2265591Y361162D01*
X2265591D02*
X2264227Y360537D01*
X2264227D02*
X2260136D01*
X2270591Y366162D02*
X2278773D01*
X2282864Y373663D02*
Y364287D01*
X2282864D02*
X2283318Y362412D01*
X2283318D02*
X2284227Y361162D01*
X2284227D02*
X2285591Y360537D01*
X2285591D02*
X2286500D01*
X2286500D02*
X2287864Y361162D01*
X2287864D02*
X2288773Y362412D01*
X2288773D02*
X2289227Y364287D01*
X2289227D02*
Y373663D01*
X2299682Y371788D02*
X2298773Y373038D01*
X2298773D02*
X2297409Y373663D01*
X2297409D02*
X2295591D01*
X2295591D02*
X2294227Y373038D01*
X2294227D02*
X2293318Y371788D01*
X2293318D02*
Y370538D01*
X2293318D02*
X2293773Y369288D01*
X2293773D02*
X2294227Y368663D01*
X2294227D02*
X2295136Y368037D01*
X2295136D02*
X2297864Y366787D01*
X2297864D02*
X2298773Y366162D01*
X2298773D02*
X2299227Y365537D01*
X2299227D02*
X2299682Y364287D01*
X2299682D02*
Y362412D01*
X2299682D02*
X2298773Y361162D01*
X2298773D02*
X2297409Y360537D01*
X2297409D02*
X2295591D01*
X2295591D02*
X2294227Y361162D01*
X2294227D02*
X2293318Y362412D01*
X2303773Y373663D02*
Y360537D01*
Y373663D02*
X2307864D01*
X2307864D02*
X2309227Y373038D01*
X2309227D02*
X2309682Y372413D01*
X2309682D02*
X2310136Y371163D01*
X2310136D02*
Y369913D01*
X2310136D02*
X2309682Y368663D01*
X2309682D02*
X2309227Y368037D01*
X2309227D02*
X2307864Y367412D01*
X2303773D02*
X2307864D01*
X2307864D02*
X2309227Y366787D01*
X2309227D02*
X2309682Y366162D01*
X2309682D02*
X2310136Y364912D01*
X2310136D02*
Y363037D01*
X2310136D02*
X2309682Y361787D01*
X2309682D02*
X2309227Y361162D01*
X2309227D02*
X2307864Y360537D01*
X2307864D02*
X2303773D01*
X2314682Y370538D02*
Y371163D01*
X2314682D02*
X2315136Y372413D01*
X2315136D02*
X2315591Y373038D01*
X2315591D02*
X2316500Y373663D01*
X2316500D02*
X2318318D01*
X2318318D02*
X2319227Y373038D01*
X2319227D02*
X2319682Y372413D01*
X2319682D02*
X2320136Y371163D01*
X2320136D02*
Y369913D01*
X2320136D02*
X2319682Y368663D01*
X2319682D02*
X2318773Y366787D01*
X2318773D02*
X2314227Y360537D01*
X2314227D02*
X2320591D01*
X2330591Y373663D02*
X2326045D01*
X2326045D02*
X2325591Y368037D01*
X2325591D02*
X2326045Y368663D01*
X2326045D02*
X2327409Y369288D01*
X2327409D02*
X2328773D01*
X2328773D02*
X2330136Y368663D01*
X2330136D02*
X2331045Y367412D01*
X2331045D02*
X2331500Y365537D01*
X2331500D02*
X2331045Y364287D01*
X2331045D02*
X2330591Y362412D01*
X2330591D02*
X2329682Y361162D01*
X2329682D02*
X2328318Y360537D01*
X2328318D02*
X2326955D01*
X2326955D02*
X2325591Y361162D01*
X2325591D02*
X2325136Y361787D01*
X2325136D02*
X2324682Y363037D01*
X2335591Y371163D02*
X2336500Y371788D01*
X2336500D02*
X2337864Y373663D01*
X2337864D02*
Y360537D01*
X2346500Y373663D02*
X2341955Y364912D01*
X2341955D02*
X2348773D01*
X2346500Y373663D02*
Y360537D01*
X2352864Y373663D02*
Y360537D01*
Y373663D02*
X2356955D01*
X2356955D02*
X2358318Y373038D01*
X2358318D02*
X2358773Y372413D01*
X2358773D02*
X2359227Y371163D01*
X2359227D02*
Y369913D01*
X2359227D02*
X2358773Y368663D01*
X2358773D02*
X2358318Y368037D01*
X2358318D02*
X2356955Y367412D01*
X2352864D02*
X2356955D01*
X2356955D02*
X2358318Y366787D01*
X2358318D02*
X2358773Y366162D01*
X2358773D02*
X2359227Y364912D01*
X2359227D02*
Y363037D01*
X2359227D02*
X2358773Y361787D01*
X2358773D02*
X2358318Y361162D01*
X2358318D02*
X2356955Y360537D01*
X2356955D02*
X2352864D01*
X2370136Y370538D02*
X2369682Y371788D01*
X2369682D02*
X2368773Y373038D01*
X2368773D02*
X2367864Y373663D01*
X2367864D02*
X2366045D01*
X2366045D02*
X2365136Y373038D01*
X2365136D02*
X2364227Y371788D01*
X2364227D02*
X2363773Y370538D01*
X2363773D02*
X2363318Y368663D01*
X2363318D02*
Y365537D01*
X2363318D02*
X2363773Y363662D01*
X2363773D02*
X2364227Y362412D01*
X2364227D02*
X2365136Y361162D01*
X2365136D02*
X2366045Y360537D01*
X2366045D02*
X2367864D01*
X2367864D02*
X2368773Y361162D01*
X2368773D02*
X2369682Y362412D01*
X2369682D02*
X2370136Y363662D01*
X2376955Y373663D02*
X2376045Y373038D01*
X2376045D02*
X2375136Y371788D01*
X2375136D02*
X2374682Y370538D01*
X2374682D02*
X2374227Y368663D01*
X2374227D02*
Y365537D01*
X2374227D02*
X2374682Y363662D01*
X2374682D02*
X2375136Y362412D01*
X2375136D02*
X2376045Y361162D01*
X2376045D02*
X2376955Y360537D01*
X2376955D02*
X2378773D01*
X2378773D02*
X2379682Y361162D01*
X2379682D02*
X2380591Y362412D01*
X2380591D02*
X2381045Y363662D01*
X2381045D02*
X2381500Y365537D01*
X2381500D02*
Y368663D01*
X2381500D02*
X2381045Y370538D01*
X2381045D02*
X2380591Y371788D01*
X2380591D02*
X2379682Y373038D01*
X2379682D02*
X2378773Y373663D01*
X2378773D02*
X2376955D01*
X2378318Y363037D02*
X2381045Y359287D01*
X2385591Y373663D02*
Y360537D01*
Y373663D02*
X2391500D01*
X2385591Y367412D02*
X2389227D01*
X2395591Y373663D02*
Y360537D01*
Y373663D02*
X2401955Y360537D01*
Y373663D02*
Y360537D01*
X2406955Y373663D02*
X2411955D01*
X2411955D02*
X2409227Y368663D01*
X2409227D02*
X2410591D01*
X2410591D02*
X2411500Y368037D01*
X2411500D02*
X2411955Y367412D01*
X2411955D02*
X2412409Y365537D01*
X2412409D02*
Y364287D01*
X2412409D02*
X2411955Y362412D01*
X2411955D02*
X2411045Y361162D01*
X2411045D02*
X2409682Y360537D01*
X2409682D02*
X2408318D01*
X2408318D02*
X2406955Y361162D01*
X2406955D02*
X2406500Y361787D01*
X2406500D02*
X2406045Y363037D01*
X2421955Y371788D02*
X2421500Y373038D01*
X2421500D02*
X2420136Y373663D01*
X2420136D02*
X2419227D01*
X2419227D02*
X2417864Y373038D01*
X2417864D02*
X2416955Y371163D01*
X2416955D02*
X2416500Y368037D01*
X2416500D02*
Y364912D01*
X2416500D02*
X2416955Y362412D01*
X2416955D02*
X2417864Y361162D01*
X2417864D02*
X2419227Y360537D01*
X2419227D02*
X2419682D01*
X2419682D02*
X2421045Y361162D01*
X2421045D02*
X2421955Y362412D01*
X2421955D02*
X2422409Y364287D01*
X2422409D02*
Y364912D01*
X2422409D02*
X2421955Y366787D01*
X2421955D02*
X2421045Y368037D01*
X2421045D02*
X2419682Y368663D01*
X2419682D02*
X2419227D01*
X2419227D02*
X2417864Y368037D01*
X2417864D02*
X2416955Y366787D01*
X2416955D02*
X2416500Y364912D01*
X1443755Y343740D02*
X1441157Y334365D01*
X1443755Y343740D02*
X1446352Y334365D01*
X1442131Y337490D02*
X1445378D01*
X1449274Y343740D02*
Y334365D01*
Y343740D02*
X1452196D01*
X1453170Y343293*
X1453495Y342847*
X1453820Y341954*
Y340615*
X1453495Y339722*
X1453170Y339275*
X1452196Y338829*
X1449274*
X1456742Y343740D02*
Y334365D01*
Y343740D02*
X1459664D01*
X1460638Y343293*
X1460963Y342847*
X1461287Y341954*
Y340615*
X1460963Y339722*
X1460638Y339275*
X1459664Y338829*
X1456742*
X1464209Y343740D02*
Y334365D01*
X1468105*
X1471027Y343740D02*
Y334365D01*
X1478820Y341507D02*
X1478495Y342400D01*
X1477846Y343293*
X1477196Y343740*
X1475898*
X1475248Y343293*
X1474599Y342400*
X1474274Y341507*
X1473950Y340168*
Y337936*
X1474274Y336597*
X1474599Y335704*
X1475248Y334811*
X1475898Y334365*
X1477196*
X1477846Y334811*
X1478495Y335704*
X1478820Y336597*
X1484339Y343740D02*
X1481742Y334365D01*
X1484339Y343740D02*
X1486937Y334365D01*
X1482716Y337490D02*
X1485962D01*
X1492131Y343740D02*
Y334365D01*
X1489859Y343740D02*
X1494404D01*
X1497326D02*
Y334365D01*
X1502196Y343740D02*
X1501547Y343293D01*
X1500898Y342400*
X1500573Y341507*
X1500248Y340168*
Y337936*
X1500573Y336597*
X1500898Y335704*
X1501547Y334811*
X1502196Y334365*
X1503495*
X1504144Y334811*
X1504794Y335704*
X1505118Y336597*
X1505443Y337936*
Y340168*
X1505118Y341507*
X1504794Y342400*
X1504144Y343293*
X1503495Y343740*
X1502196*
X1508365D02*
Y334365D01*
Y343740D02*
X1512911Y334365D01*
Y343740D02*
Y334365D01*
X1613616Y359200D02*
Y352168D01*
Y359200D02*
X1616781D01*
X1613616Y355851D02*
X1615564D01*
X1618973Y359200D02*
Y352168D01*
X1621164Y359200D02*
Y352168D01*
Y359200D02*
X1624573Y352168D01*
Y359200D02*
Y352168D01*
X1626765Y359200D02*
Y352168D01*
X1632366Y358195D02*
X1631879Y358865D01*
X1631148Y359200*
X1630174*
X1629444Y358865*
X1628957Y358195*
Y357525*
X1629200Y356856*
X1629444Y356521*
X1629931Y356186*
X1631392Y355517*
X1631879Y355182*
X1632122Y354847*
X1632366Y354177*
Y353173*
X1631879Y352503*
X1631148Y352168*
X1630174*
X1629444Y352503*
X1628957Y353173*
X1634557Y359200D02*
Y352168D01*
X1637966Y359200D02*
Y352168D01*
X1634557Y355851D02*
X1637966D01*
X1640401Y356856D02*
X1640158Y356521D01*
X1640401Y356186*
X1640645Y356521*
X1640401Y356856*
Y352838D02*
X1640158Y352503D01*
X1640401Y352168*
X1640645Y352503*
X1640401Y352838*
X1613616Y396700D02*
Y389668D01*
Y396700D02*
X1615564Y389668D01*
X1617512Y396700D02*
X1615564Y389668D01*
X1617512Y396700D02*
Y389668D01*
X1621651Y396700D02*
X1619703Y389668D01*
X1621651Y396700D02*
X1623599Y389668D01*
X1620434Y392012D02*
X1622869D01*
X1627496Y396700D02*
Y389668D01*
X1625791Y396700D02*
X1629200D01*
X1631392D02*
Y389668D01*
Y396700D02*
X1634557D01*
X1631392Y393351D02*
X1633340D01*
X1631392Y389668D02*
X1634557D01*
X1636749Y396700D02*
Y389668D01*
Y396700D02*
X1638940D01*
X1639671Y396365*
X1639914Y396030*
X1640158Y395360*
Y394691*
X1639914Y394021*
X1639671Y393686*
X1638940Y393351*
X1636749*
X1638453D02*
X1640158Y389668D01*
X1642349Y396700D02*
Y389668D01*
X1646489Y396700D02*
X1644541Y389668D01*
X1646489Y396700D02*
X1648437Y389668D01*
X1645271Y392012D02*
X1647707D01*
X1650629Y396700D02*
Y389668D01*
X1653551*
X1655986Y394356D02*
X1655742Y394021D01*
X1655986Y393686*
X1656229Y394021*
X1655986Y394356*
Y390338D02*
X1655742Y390003D01*
X1655986Y389668*
X1656229Y390003*
X1655986Y390338*
X1369044Y367388D02*
Y360357D01*
Y367388D02*
X1370749D01*
X1371480Y367054*
X1371967Y366384*
X1372210Y365714*
X1372454Y364710*
Y363036*
X1372210Y362031*
X1371967Y361362*
X1371480Y360692*
X1370749Y360357*
X1369044*
X1374645Y367388D02*
Y360357D01*
Y367388D02*
X1377811D01*
X1374645Y364040D02*
X1376593D01*
X1374645Y360357D02*
X1377811D01*
X1383411Y366384D02*
X1382924Y367054D01*
X1382194Y367388*
X1381220*
X1380489Y367054*
X1380002Y366384*
Y365714*
X1380246Y365045*
X1380489Y364710*
X1380976Y364375*
X1382437Y363705*
X1382924Y363371*
X1383168Y363036*
X1383411Y362366*
Y361362*
X1382924Y360692*
X1382194Y360357*
X1381220*
X1380489Y360692*
X1380002Y361362*
X1410347Y367388D02*
Y360357D01*
Y367388D02*
X1413513D01*
X1410347Y364040D02*
X1412295D01*
X1410347Y360357D02*
X1413513D01*
X1419357Y365714D02*
X1419113Y366384D01*
X1418626Y367054*
X1418139Y367388*
X1417165*
X1416678Y367054*
X1416191Y366384*
X1415948Y365714*
X1415704Y364710*
Y363036*
X1415948Y362031*
X1416191Y361362*
X1416678Y360692*
X1417165Y360357*
X1418139*
X1418626Y360692*
X1419113Y361362*
X1419357Y362031*
X1423010Y367388D02*
X1422523Y367054D01*
X1422036Y366384*
X1421792Y365714*
X1421549Y364710*
Y363036*
X1421792Y362031*
X1422036Y361362*
X1422523Y360692*
X1423010Y360357*
X1423984*
X1424471Y360692*
X1424958Y361362*
X1425201Y362031*
X1425445Y363036*
Y364710*
X1425201Y365714*
X1424958Y366384*
X1424471Y367054*
X1423984Y367388*
X1423010*
X1455589D02*
Y360357D01*
Y367388D02*
X1457780D01*
X1458511Y367054*
X1458754Y366719*
X1458998Y366049*
Y365045*
X1458754Y364375*
X1458511Y364040*
X1457780Y363705*
X1455589*
X1461189Y367388D02*
Y360357D01*
Y367388D02*
X1463381D01*
X1464111Y367054*
X1464355Y366719*
X1464598Y366049*
Y365379*
X1464355Y364710*
X1464111Y364375*
X1463381Y364040*
X1461189*
X1462894D02*
X1464598Y360357D01*
X1512801Y367388D02*
Y360357D01*
Y367388D02*
X1516210Y360357D01*
Y367388D02*
Y360357D01*
X1518401Y367388D02*
Y360357D01*
Y367388D02*
X1521567D01*
X1518401Y364040D02*
X1520349D01*
X1518401Y360357D02*
X1521567D01*
X1523758Y367388D02*
X1527168Y360357D01*
Y367388D02*
X1523758Y360357D01*
X1531064Y367388D02*
Y360357D01*
X1529359Y367388D02*
X1532768D01*
X1542508D02*
X1540560Y360357D01*
X1542508Y367388D02*
X1544456Y360357D01*
X1541291Y362701D02*
X1543726D01*
X1550057Y366384D02*
X1549570Y367054D01*
X1548840Y367388*
X1547866*
X1547135Y367054*
X1546648Y366384*
Y365714*
X1546892Y365045*
X1547135Y364710*
X1547622Y364375*
X1549083Y363705*
X1549570Y363371*
X1549814Y363036*
X1550057Y362366*
Y361362*
X1549570Y360692*
X1548840Y360357*
X1547866*
X1547135Y360692*
X1546648Y361362*
X1555658Y366384D02*
X1555171Y367054D01*
X1554440Y367388*
X1553466*
X1552736Y367054*
X1552249Y366384*
Y365714*
X1552492Y365045*
X1552736Y364710*
X1553223Y364375*
X1554684Y363705*
X1555171Y363371*
X1555414Y363036*
X1555658Y362366*
Y361362*
X1555171Y360692*
X1554440Y360357*
X1553466*
X1552736Y360692*
X1552249Y361362*
X1557849Y367388D02*
X1559797Y364040D01*
Y360357*
X1561745Y367388D02*
X1559797Y364040D01*
X1862761Y420202D02*
Y413171D01*
Y420202D02*
X1864952D01*
X1865683Y419867*
X1865926Y419532*
X1866170Y418862*
Y417858*
X1865926Y417188*
X1865683Y416854*
X1864952Y416519*
X1862761*
X1868361Y420202D02*
Y413171D01*
Y420202D02*
X1870553D01*
X1871284Y419867*
X1871527Y419532*
X1871771Y418862*
Y418193*
X1871527Y417523*
X1871284Y417188*
X1870553Y416854*
X1868361*
X1870066D02*
X1871771Y413171D01*
X1874206Y413840D02*
X1873962Y413505D01*
X1874206Y413171*
X1874449Y413505*
X1874206Y413840*
X1876641Y420202D02*
Y413171D01*
Y420202D02*
X1879806D01*
X1876641Y416854D02*
X1878589D01*
X1876641Y413171D02*
X1879806D01*
X1881998Y420202D02*
Y413171D01*
Y420202D02*
X1885407Y413171D01*
Y420202D02*
Y413171D01*
X1891251Y418528D02*
X1891008Y419197D01*
X1890521Y419867*
X1890034Y420202*
X1889060*
X1888573Y419867*
X1888086Y419197*
X1887842Y418528*
X1887598Y417523*
Y415849*
X1887842Y414845*
X1888086Y414175*
X1888573Y413505*
X1889060Y413171*
X1890034*
X1890521Y413505*
X1891008Y414175*
X1891251Y414845*
Y415849*
X1890034D02*
X1891251D01*
X1865975Y392702D02*
Y385671D01*
Y392702D02*
X1867923Y385671D01*
X1869871Y392702D02*
X1867923Y385671D01*
X1869871Y392702D02*
Y385671D01*
X1872306Y386340D02*
X1872063Y386005D01*
X1872306Y385671*
X1872550Y386005*
X1872306Y386340*
X1874741Y392702D02*
Y385671D01*
Y392702D02*
X1877907D01*
X1874741Y389354D02*
X1876689D01*
X1874741Y385671D02*
X1877907D01*
X1880098Y392702D02*
Y385671D01*
Y392702D02*
X1883508Y385671D01*
Y392702D02*
Y385671D01*
X1889352Y391028D02*
X1889108Y391697D01*
X1888621Y392367*
X1888134Y392702*
X1887160*
X1886673Y392367*
X1886186Y391697*
X1885943Y391028*
X1885699Y390023*
Y388349*
X1885943Y387345*
X1886186Y386675*
X1886673Y386005*
X1887160Y385671*
X1888134*
X1888621Y386005*
X1889108Y386675*
X1889352Y387345*
Y388349*
X1888134D02*
X1889352D01*
X1866868Y365202D02*
Y358171D01*
Y365202D02*
X1870033D01*
X1866868Y361854D02*
X1868816D01*
X1866868Y358171D02*
X1870033D01*
X1872469Y358840D02*
X1872225Y358505D01*
X1872469Y358171*
X1872712Y358505*
X1872469Y358840*
X1874904Y365202D02*
Y358171D01*
Y365202D02*
X1878069D01*
X1874904Y361854D02*
X1876852D01*
X1874904Y358171D02*
X1878069D01*
X1880261Y365202D02*
Y358171D01*
Y365202D02*
X1883670Y358171D01*
Y365202D02*
Y358171D01*
X1889514Y363528D02*
X1889271Y364197D01*
X1888784Y364867*
X1888296Y365202*
X1887322*
X1886835Y364867*
X1886348Y364197*
X1886105Y363528*
X1885861Y362523*
Y360849*
X1886105Y359845*
X1886348Y359175*
X1886835Y358505*
X1887322Y358171*
X1888296*
X1888784Y358505*
X1889271Y359175*
X1889514Y359845*
Y360849*
X1888296D02*
X1889514D01*
X1871138Y340202D02*
X1869189Y333171D01*
X1871138Y340202D02*
X1873086Y333171D01*
X1869920Y335514D02*
X1872355D01*
X1875277Y340202D02*
Y333171D01*
Y340202D02*
X1877469D01*
X1878199Y339867*
X1878443Y339532*
X1878686Y338862*
Y337858*
X1878443Y337188*
X1878199Y336854*
X1877469Y336519*
X1875277*
X1880878Y340202D02*
Y333171D01*
Y340202D02*
X1883069D01*
X1883800Y339867*
X1884043Y339532*
X1884287Y338862*
Y337858*
X1884043Y337188*
X1883800Y336854*
X1883069Y336519*
X1880878*
X1886478Y340202D02*
Y333171D01*
Y340202D02*
X1888670D01*
X1889400Y339867*
X1889644Y339532*
X1889888Y338862*
Y338193*
X1889644Y337523*
X1889400Y337188*
X1888670Y336854*
X1886478*
X1888183D02*
X1889888Y333171D01*
X2098579Y340141D02*
X2098092Y340811D01*
X2097361Y341146*
X2096387*
X2095657Y340811*
X2095170Y340141*
Y339472*
X2095413Y338802*
X2095657Y338467*
X2096144Y338133*
X2097605Y337463*
X2098092Y337128*
X2098335Y336793*
X2098579Y336124*
Y335119*
X2098092Y334450*
X2097361Y334115*
X2096387*
X2095657Y334450*
X2095170Y335119*
X2104423Y339472D02*
X2104179Y340141D01*
X2103692Y340811*
X2103205Y341146*
X2102231*
X2101744Y340811*
X2101257Y340141*
X2101014Y339472*
X2100770Y338467*
Y336793*
X2101014Y335789*
X2101257Y335119*
X2101744Y334450*
X2102231Y334115*
X2103205*
X2103692Y334450*
X2104179Y335119*
X2104423Y335789*
X2108562Y341146D02*
X2106614Y334115D01*
X2108562Y341146D02*
X2110510Y334115D01*
X2107345Y336459D02*
X2109780D01*
X2112702Y341146D02*
Y334115D01*
X2115624*
X2117815Y341146D02*
Y334115D01*
Y341146D02*
X2120981D01*
X2117815Y337798D02*
X2119763D01*
X2117815Y334115D02*
X2120981D01*
X2123416Y338802D02*
X2123172Y338467D01*
X2123416Y338133*
X2123659Y338467*
X2123416Y338802*
Y334784D02*
X2123172Y334450D01*
X2123416Y334115*
X2123659Y334450*
X2123416Y334784*
X2131451Y339807D02*
X2131938Y340141D01*
X2132669Y341146*
Y334115*
X2135104Y338802D02*
X2134860Y338467D01*
X2135104Y338133*
X2135347Y338467*
X2135104Y338802*
Y334784D02*
X2134860Y334450D01*
X2135104Y334115*
X2135347Y334450*
X2135104Y334784*
X2137539Y339807D02*
X2138026Y340141D01*
X2138756Y341146*
Y334115*
X2196437Y341146D02*
X2198385Y334115D01*
X2200333Y341146D02*
X2198385Y334115D01*
X2202524Y341146D02*
X2202768Y340811D01*
X2203011Y341146*
X2202768Y341481*
X2202524Y341146*
X2202768Y338802D02*
Y334115D01*
X2205203Y336793D02*
X2208125D01*
Y337463*
X2207881Y338133*
X2207638Y338467*
X2207151Y338802*
X2206420*
X2205933Y338467*
X2205446Y337798*
X2205203Y336793*
Y336124*
X2205446Y335119*
X2205933Y334450*
X2206420Y334115*
X2207151*
X2207638Y334450*
X2208125Y335119*
X2210316Y338802D02*
X2211290Y334115D01*
X2212264Y338802D02*
X2211290Y334115D01*
X2212264Y338802D02*
X2213238Y334115D01*
X2214212Y338802D02*
X2213238Y334115D01*
X2216404Y336793D02*
X2219326D01*
Y337463*
X2219082Y338133*
X2218839Y338467*
X2218352Y338802*
X2217621*
X2217134Y338467*
X2216647Y337798*
X2216404Y336793*
Y336124*
X2216647Y335119*
X2217134Y334450*
X2217621Y334115*
X2218352*
X2218839Y334450*
X2219326Y335119*
X2224439Y341146D02*
Y334115D01*
Y337798D02*
X2223952Y338467D01*
X2223465Y338802*
X2222735*
X2222248Y338467*
X2221761Y337798*
X2221517Y336793*
Y336124*
X2221761Y335119*
X2222248Y334450*
X2222735Y334115*
X2223465*
X2223952Y334450*
X2224439Y335119*
X2234179Y341146D02*
X2233692D01*
X2233205Y340811*
X2232962Y339807*
Y334115*
X2232231Y338802D02*
X2233936D01*
X2236371D02*
Y334115D01*
Y336793D02*
X2236614Y337798D01*
X2237101Y338467*
X2237588Y338802*
X2238319*
X2241728D02*
X2241241Y338467D01*
X2240754Y337798*
X2240510Y336793*
Y336124*
X2240754Y335119*
X2241241Y334450*
X2241728Y334115*
X2242458*
X2242945Y334450*
X2243432Y335119*
X2243676Y336124*
Y336793*
X2243432Y337798*
X2242945Y338467*
X2242458Y338802*
X2241728*
X2245867D02*
Y334115D01*
Y337463D02*
X2246598Y338467D01*
X2247085Y338802*
X2247815*
X2248302Y338467*
X2248546Y337463*
Y334115*
Y337463D02*
X2249276Y338467D01*
X2249763Y338802*
X2250494*
X2250981Y338467*
X2251224Y337463*
Y334115*
X2260721Y341146D02*
Y334115D01*
X2259016Y341146D02*
X2262425D01*
X2266078D02*
X2265591Y340811D01*
X2265104Y340141*
X2264860Y339472*
X2264617Y338467*
Y336793*
X2264860Y335789*
X2265104Y335119*
X2265591Y334450*
X2266078Y334115*
X2267052*
X2267539Y334450*
X2268026Y335119*
X2268269Y335789*
X2268513Y336793*
Y338467*
X2268269Y339472*
X2268026Y340141*
X2267539Y340811*
X2267052Y341146*
X2266078*
X2270704D02*
Y334115D01*
Y341146D02*
X2272896D01*
X2273626Y340811*
X2273870Y340476*
X2274113Y339807*
Y338802*
X2273870Y338133*
X2273626Y337798*
X2272896Y337463*
X2270704*
X2284584Y337798D02*
X2284340Y338467D01*
X2283610Y338802*
X2282879*
X2282149Y338467*
X2281905Y337798*
X2282149Y337128*
X2282636Y336793*
X2283853Y336459*
X2284340Y336124*
X2284584Y335454*
Y335119*
X2284340Y334450*
X2283610Y334115*
X2282879*
X2282149Y334450*
X2281905Y335119*
X2286775Y341146D02*
X2287019Y340811D01*
X2287262Y341146*
X2287019Y341481*
X2286775Y341146*
X2287019Y338802D02*
Y334115D01*
X2292376Y341146D02*
Y334115D01*
Y337798D02*
X2291889Y338467D01*
X2291402Y338802*
X2290671*
X2290184Y338467*
X2289697Y337798*
X2289454Y336793*
Y336124*
X2289697Y335119*
X2290184Y334450*
X2290671Y334115*
X2291402*
X2291889Y334450*
X2292376Y335119*
X2294567Y336793D02*
X2297489D01*
Y337463*
X2297246Y338133*
X2297002Y338467*
X2296515Y338802*
X2295785*
X2295298Y338467*
X2294811Y337798*
X2294567Y336793*
Y336124*
X2294811Y335119*
X2295298Y334450*
X2295785Y334115*
X2296515*
X2297002Y334450*
X2297489Y335119*
X2075054Y394017D02*
X2074567Y394687D01*
X2073837Y395021*
X2072863*
X2072132Y394687*
X2071645Y394017*
Y393347*
X2071889Y392678*
X2072132Y392343*
X2072619Y392008*
X2074080Y391338*
X2074567Y391004*
X2074811Y390669*
X2075054Y389999*
Y388995*
X2074567Y388325*
X2073837Y387990*
X2072863*
X2072132Y388325*
X2071645Y388995*
X2077246Y395021D02*
Y387990D01*
X2082846Y395021D02*
X2079437Y387990D01*
Y395021D02*
X2082846D01*
X2079437Y387990D02*
X2082846D01*
X2085038Y395021D02*
Y387990D01*
Y395021D02*
X2088204D01*
X2085038Y391673D02*
X2086986D01*
X2085038Y387990D02*
X2088204D01*
X2128262Y393347D02*
X2128018Y394017D01*
X2127531Y394687*
X2127044Y395021*
X2126070*
X2125583Y394687*
X2125096Y394017*
X2124853Y393347*
X2124609Y392343*
Y390669*
X2124853Y389664*
X2125096Y388995*
X2125583Y388325*
X2126070Y387990*
X2127044*
X2127531Y388325*
X2128018Y388995*
X2128262Y389664*
X2131914Y395021D02*
X2131427Y394687D01*
X2130940Y394017*
X2130697Y393347*
X2130453Y392343*
Y390669*
X2130697Y389664*
X2130940Y388995*
X2131427Y388325*
X2131914Y387990*
X2132888*
X2133375Y388325*
X2133863Y388995*
X2133863D02*
X2134106Y389664D01*
X2134350Y390669*
Y392343*
X2134106Y393347*
X2133863Y394017*
X2133863D02*
X2133375Y394687D01*
X2132888Y395021*
X2131914*
X2136541D02*
Y387990D01*
Y395021D02*
X2138246D01*
X2138976Y394687*
X2139463Y394017*
X2139707Y393347*
X2139950Y392343*
Y390669*
X2139707Y389664*
X2139463Y388995*
X2138976Y388325*
X2138246Y387990*
X2136541*
X2142142Y395021D02*
Y387990D01*
Y395021D02*
X2145307D01*
X2142142Y391673D02*
X2144090D01*
X2142142Y387990D02*
X2145307D01*
X2153100Y395021D02*
Y387990D01*
X2155291Y395021D02*
Y387990D01*
Y395021D02*
X2156996D01*
X2157726Y394687*
X2158213Y394017*
X2158457Y393347*
X2158700Y392343*
Y390669*
X2158457Y389664*
X2158213Y388995*
X2157726Y388325*
X2156996Y387990*
X2155291*
X2160892Y395021D02*
Y387990D01*
Y395021D02*
X2164057D01*
X2160892Y391673D02*
X2162840D01*
X2160892Y387990D02*
X2164057D01*
X2166249Y395021D02*
Y387990D01*
Y395021D02*
X2169658Y387990D01*
Y395021D02*
Y387990D01*
X2173554Y395021D02*
Y387990D01*
X2171850Y395021D02*
X2175259D01*
X2183051D02*
Y387990D01*
Y395021D02*
X2186460Y387990D01*
Y395021D02*
Y387990D01*
X2190113Y395021D02*
X2189626Y394687D01*
X2189138Y394017*
X2188895Y393347*
X2188651Y392343*
Y390669*
X2188895Y389664*
X2189138Y388995*
X2189626Y388325*
X2190113Y387990*
X2191087*
X2191574Y388325*
X2192061Y388995*
X2192304Y389664*
X2192548Y390669*
Y392343*
X2192304Y393347*
X2192061Y394017*
X2191574Y394687*
X2191087Y395021*
X2190113*
X2194983Y388660D02*
X2194739Y388325D01*
X2194983Y387990*
X2195226Y388325*
X2194983Y388660*
X2296938Y395021D02*
Y387990D01*
Y395021D02*
X2298643D01*
X2299373Y394687*
X2299861Y394017*
X2300104Y393347*
X2300348Y392343*
Y390669*
X2300104Y389664*
X2299861Y388995*
X2299373Y388325*
X2298643Y387990*
X2296938*
X2302539Y395021D02*
Y387990D01*
Y395021D02*
X2304731D01*
X2305461Y394687*
X2305705Y394352*
X2305948Y393682*
Y393012*
X2305705Y392343*
X2305461Y392008*
X2304731Y391673*
X2302539*
X2304244D02*
X2305948Y387990D01*
X2310088Y395021D02*
X2308140Y387990D01*
X2310088Y395021D02*
X2312036Y387990D01*
X2308870Y390334D02*
X2311305D01*
X2314227Y395021D02*
X2315445Y387990D01*
X2316662Y395021D02*
X2315445Y387990D01*
X2316662Y395021D02*
X2317880Y387990D01*
X2319098Y395021D02*
X2317880Y387990D01*
X2321289Y395021D02*
Y387990D01*
X2323481Y395021D02*
Y387990D01*
Y395021D02*
X2326890Y387990D01*
Y395021D02*
Y387990D01*
X2332734Y393347D02*
X2332490Y394017D01*
X2332003Y394687*
X2331516Y395021*
X2330542*
X2330055Y394687*
X2329568Y394017*
X2329325Y393347*
X2329081Y392343*
Y390669*
X2329325Y389664*
X2329568Y388995*
X2330055Y388325*
X2330542Y387990*
X2331516*
X2332003Y388325*
X2332490Y388995*
X2332734Y389664*
Y390669*
X2331516D02*
X2332734D01*
X2340526Y395021D02*
Y387990D01*
Y395021D02*
X2343935Y387990D01*
Y395021D02*
Y387990D01*
X2347588Y395021D02*
X2347101Y394687D01*
X2346614Y394017*
X2346370Y393347*
X2346127Y392343*
Y390669*
X2346370Y389664*
X2346614Y388995*
X2347101Y388325*
X2347588Y387990*
X2348562*
X2349049Y388325*
X2349536Y388995*
X2349779Y389664*
X2350023Y390669*
Y392343*
X2349779Y393347*
X2349536Y394017*
X2349049Y394687*
X2348562Y395021*
X2347588*
X2352458Y388660D02*
X2352214Y388325D01*
X2352458Y387990*
X2352701Y388325*
X2352458Y388660*
X2083528Y372031D02*
X2082879Y373816D01*
X2081580Y375602*
X2080282Y376495*
X2077684*
X2076385Y375602*
X2075087Y373816*
X2074437Y372031*
X2073788Y369352*
Y364888*
X2074437Y362209*
X2075087Y360423*
X2076385Y358638*
X2077684Y357745*
X2080282*
X2081580Y358638*
X2082879Y360423*
X2083528Y362209*
X1698262Y305539D02*
Y306431D01*
X1698911Y308217*
X1699560Y309110*
X1700859Y310003*
X1703456*
X1704755Y309110*
X1705404Y308217*
X1706054Y306431*
Y304646*
X1705404Y302860*
X1704106Y300181*
X1697612Y291253*
X1706703*
X2063791Y306431D02*
X2065090Y307324D01*
X2067038Y310003*
Y291253*
X1815983Y419613D02*
Y413586D01*
X1813792Y416600D02*
X1818175D01*
X1813892Y408800D02*
X1818275D01*
X1826653Y418017D02*
X1825922Y417682D01*
X1825435Y416678*
X1825192Y415004*
Y414000*
X1825435Y412325*
X1825922Y411321*
X1826653Y410986*
X1827140*
X1827870Y411321*
X1828357Y412325*
X1828601Y414000*
Y415004*
X1828357Y416678*
X1827870Y417682*
X1827140Y418017*
X1826653*
X1833714D02*
Y410986D01*
Y414669D02*
X1833227Y415339D01*
X1832740Y415674*
X1832010*
X1831523Y415339*
X1831036Y414669*
X1830792Y413665*
Y412995*
X1831036Y411991*
X1831523Y411321*
X1832010Y410986*
X1832740*
X1833227Y411321*
X1833714Y411991*
X1836393Y418017D02*
X1839071D01*
X1837610Y415339*
X1838341*
X1838828Y415004*
X1839071Y414669*
X1839315Y413665*
Y412995*
X1839071Y411991*
X1838584Y411321*
X1837854Y410986*
X1837123*
X1836393Y411321*
X1836149Y411656*
X1835906Y412325*
X1842967Y418017D02*
X1842237Y417682D01*
X1841750Y416678*
X1841506Y415004*
Y414000*
X1841750Y412325*
X1842237Y411321*
X1842967Y410986*
X1843454*
X1844185Y411321*
X1844672Y412325*
X1844915Y414000*
Y415004*
X1844672Y416678*
X1844185Y417682*
X1843454Y418017*
X1842967*
X1847107Y415674D02*
Y410986D01*
Y414334D02*
X1847837Y415339D01*
X1848324Y415674*
X1849055*
X1849542Y415339*
X1849785Y414334*
Y410986*
Y414334D02*
X1850516Y415339D01*
X1851003Y415674*
X1851733*
X1852220Y415339*
X1852464Y414334*
Y410986*
X1768483Y419613D02*
Y413586D01*
X1766292Y416600D02*
X1770675D01*
X1766392Y408800D02*
X1770775D01*
X1782935Y411656D02*
X1782692Y411321D01*
X1782935Y410986*
X1783179Y411321*
X1782935Y411656*
X1786831Y418017D02*
X1786101Y417682D01*
X1785614Y416678*
X1785370Y415004*
Y414000*
X1785614Y412325*
X1786101Y411321*
X1786831Y410986*
X1787318*
X1788049Y411321*
X1788536Y412325*
X1788779Y414000*
Y415004*
X1788536Y416678*
X1788049Y417682*
X1787318Y418017*
X1786831*
X1792432D02*
X1791701Y417682D01*
X1791214Y416678*
X1790971Y415004*
Y414000*
X1791214Y412325*
X1791701Y411321*
X1792432Y410986*
X1792919*
X1793649Y411321*
X1794136Y412325*
X1794380Y414000*
Y415004*
X1794136Y416678*
X1793649Y417682*
X1792919Y418017*
X1792432*
X1799737D02*
X1797302D01*
X1797058Y415004*
X1797302Y415339*
X1798032Y415674*
X1798763*
X1799493Y415339*
X1799980Y414669*
X1800224Y413665*
X1799980Y412995*
X1799737Y411991*
X1799250Y411321*
X1798519Y410986*
X1797789*
X1797058Y411321*
X1796815Y411656*
X1796571Y412325*
X1718483Y419613D02*
Y413586D01*
X1716292Y416600D02*
X1720675D01*
X1716392Y408800D02*
X1720775D01*
X1732935Y411656D02*
X1732692Y411321D01*
X1732935Y410986*
X1733179Y411321*
X1732935Y411656*
X1736831Y418017D02*
X1736101Y417682D01*
X1735614Y416678*
X1735370Y415004*
Y414000*
X1735614Y412325*
X1736101Y411321*
X1736831Y410986*
X1737318*
X1738049Y411321*
X1738536Y412325*
X1738779Y414000*
Y415004*
X1738536Y416678*
X1738049Y417682*
X1737318Y418017*
X1736831*
X1741214Y416343D02*
Y416678D01*
X1741458Y417348*
X1741701Y417682*
X1742188Y418017*
X1743162*
X1743649Y417682*
X1743893Y417348*
X1744136Y416678*
Y416008*
X1743893Y415339*
X1743406Y414334*
X1740971Y410986*
X1744380*
X1670983Y419613D02*
Y413586D01*
X1668792Y416600D02*
X1673175D01*
X1668892Y408800D02*
X1673275D01*
X1618483Y419613D02*
Y413586D01*
X1616292Y416600D02*
X1620675D01*
X1616392Y408800D02*
X1620775D01*
X1676478Y429645D02*
X1676234Y429310D01*
X1676478Y428975*
X1676721Y429310*
X1676478Y429645*
X1678913Y436006D02*
X1682322Y428975D01*
Y436006D02*
X1678913Y428975D01*
X1726528Y429645D02*
X1726284Y429310D01*
X1726528Y428975*
X1726771Y429310*
X1726528Y429645*
X1728963Y436006D02*
X1732372Y428975D01*
Y436006D02*
X1728963Y428975D01*
X1734564Y436006D02*
X1737973Y428975D01*
Y436006D02*
X1734564Y428975D01*
X1773557Y429645D02*
X1773313Y429310D01*
X1773557Y428975*
X1773800Y429310*
X1773557Y429645*
X1775992Y436006D02*
X1779401Y428975D01*
Y436006D02*
X1775992Y428975D01*
X1781593Y436006D02*
X1785002Y428975D01*
Y436006D02*
X1781593Y428975D01*
X1787193Y436006D02*
X1790602Y428975D01*
Y436006D02*
X1787193Y428975D01*
X1711999Y455628D02*
Y448597D01*
Y455628D02*
X1713703D01*
X1714434Y455293*
X1714921Y454624*
X1715164Y453954*
X1715408Y452950*
Y451276*
X1715408D02*
X1715164Y450271D01*
X1714921Y449601*
X1714434Y448932*
X1713703Y448597*
X1711999*
X1717599Y455628D02*
Y448597D01*
Y455628D02*
X1720765D01*
X1717599Y452280D02*
X1719547D01*
X1717599Y448597D02*
X1720765D01*
X1726609Y453954D02*
X1726366Y454624D01*
X1725878Y455293*
X1725391Y455628*
X1724417*
X1723930Y455293*
X1723443Y454624*
X1723200Y453954*
X1722956Y452950*
Y451276*
X1722956D02*
X1723200Y450271D01*
X1723443Y449601*
X1723930Y448932*
X1724417Y448597*
X1725391*
X1725878Y448932*
X1726366Y449601*
X1726609Y450271*
X1728801Y455628D02*
Y448597D01*
X1730992Y455628D02*
Y448597D01*
Y455628D02*
X1732940Y448597D01*
X1734888Y455628D02*
X1732940Y448597D01*
X1734888Y455628D02*
Y448597D01*
X1739028Y455628D02*
X1737080Y448597D01*
X1739028Y455628D02*
X1740976Y448597D01*
X1737810Y450941D02*
X1740245D01*
X1743167Y455628D02*
Y448597D01*
X1746090*
X1819132Y455628D02*
X1817184Y448597D01*
X1819132Y455628D02*
X1821080Y448597D01*
X1817915Y450941D02*
X1820350D01*
X1823272Y455628D02*
Y448597D01*
Y455628D02*
X1826681Y448597D01*
Y455628D02*
Y448597D01*
X1832525Y453954D02*
X1832282Y454624D01*
X1831795Y455293*
X1831308Y455628*
X1830334*
X1829847Y455293*
X1829360Y454624*
X1829116Y453954*
X1828873Y452950*
Y451276*
X1828873D02*
X1829116Y450271D01*
X1829360Y449601*
X1829847Y448932*
X1830334Y448597*
X1831308*
X1831795Y448932*
X1832282Y449601*
X1832525Y450271*
Y451276*
X1831308D02*
X1832525D01*
X1834717Y455628D02*
Y448597D01*
X1837639*
X1839830Y455628D02*
Y448597D01*
Y455628D02*
X1842996D01*
X1839830Y452280D02*
X1841778D01*
X1839830Y448597D02*
X1842996D01*
X1871608Y507231D02*
Y500200D01*
X1869904Y507231D02*
X1873313D01*
X1875504D02*
Y500200D01*
X1879400Y507231D02*
Y500200D01*
X1877696Y507231D02*
X1881105D01*
X1883297D02*
Y500200D01*
X1886219*
X1888410Y507231D02*
Y500200D01*
Y507231D02*
X1891576D01*
X1888410Y503883D02*
X1890358D01*
X1888410Y500200D02*
X1891576D01*
X1931495Y506227D02*
X1931008Y506896D01*
X1930278Y507231*
X1929304*
X1928573Y506896*
X1928086Y506227*
Y505557*
X1928330Y504888*
X1928573Y504553*
X1929060Y504218*
X1930521Y503548*
X1931008Y503213*
X1931252Y502879*
X1931495Y502209*
Y501205*
X1931008Y500535*
X1930278Y500200*
X1929304*
X1928573Y500535*
X1928086Y501205*
X1933687Y507231D02*
Y500200D01*
X1939531Y505557D02*
X1939288Y506227D01*
X1938801Y506896*
X1938314Y507231*
X1937340*
X1936853Y506896*
X1936366Y506227*
X1936122Y505557*
X1935879Y504553*
Y502879*
X1936122Y501874*
X1936366Y501205*
X1936853Y500535*
X1937340Y500200*
X1938314*
X1938801Y500535*
X1939288Y501205*
X1939531Y501874*
Y502879*
X1938314D02*
X1939531D01*
X1941723Y507231D02*
Y500200D01*
Y507231D02*
X1945132Y500200D01*
Y507231D02*
Y500200D01*
X1949271Y507231D02*
X1947323Y500200D01*
X1949271Y507231D02*
X1951219Y500200D01*
X1948054Y502544D02*
X1950489D01*
X1955116Y507231D02*
Y500200D01*
X1953411Y507231D02*
X1956820D01*
X1959012D02*
Y502209D01*
X1959255Y501205*
X1959742Y500535*
X1960473Y500200*
X1960960*
X1961690Y500535*
X1962177Y501205*
X1962421Y502209*
Y507231*
X1964612D02*
Y500200D01*
Y507231D02*
X1966804D01*
X1967534Y506896*
X1967778Y506562*
X1968021Y505892*
Y505222*
X1967778Y504553*
X1967534Y504218*
X1966804Y503883*
X1964612*
X1966317D02*
X1968021Y500200D01*
X1970213Y507231D02*
Y500200D01*
Y507231D02*
X1973379D01*
X1970213Y503883D02*
X1972161D01*
X1970213Y500200D02*
X1973379D01*
X2021976Y507231D02*
Y500200D01*
Y507231D02*
X2023680D01*
X2024411Y506896*
X2024898Y506227*
X2025141Y505557*
X2025385Y504553*
Y502879*
X2025141Y501874*
X2024898Y501205*
X2024411Y500535*
X2023680Y500200*
X2021976*
X2029524Y507231D02*
X2027576Y500200D01*
X2029524Y507231D02*
X2031473Y500200D01*
X2028307Y502544D02*
X2030742D01*
X2035369Y507231D02*
Y500200D01*
X2033664Y507231D02*
X2037073D01*
X2039265D02*
Y500200D01*
Y507231D02*
X2042430D01*
X2039265Y503883D02*
X2041213D01*
X2039265Y500200D02*
X2042430D01*
X1865618Y475202D02*
Y468171D01*
Y475202D02*
X1867322D01*
X1868053Y474867*
X1868540Y474197*
X1868783Y473528*
X1868783D02*
X1869027Y472523D01*
Y470849*
X1868783Y469845*
X1868783D02*
X1868540Y469175D01*
X1868053Y468505*
X1867322Y468171*
X1865618*
X1871219Y475202D02*
Y468171D01*
Y475202D02*
X1874384D01*
X1871219Y471854D02*
X1873167D01*
X1878280Y475202D02*
Y468171D01*
X1876576Y475202D02*
X1879985D01*
X1885585Y474197D02*
X1885098Y474867D01*
X1884368Y475202*
X1883394*
X1882663Y474867*
X1882176Y474197*
Y473528*
X1882420Y472858*
X1882663Y472523*
X1883150Y472188*
X1884611Y471519*
X1885098Y471184*
X1885342Y470849*
X1885585Y470179*
Y469175*
X1885098Y468505*
X1884368Y468171*
X1883394*
X1882663Y468505*
X1882176Y469175*
X1887777Y475202D02*
Y468171D01*
Y475202D02*
X1889725Y468171D01*
X1891673Y475202D02*
X1889725Y468171D01*
X1891673Y475202D02*
Y468171D01*
X1868378Y446028D02*
X1868134Y446697D01*
X1867647Y447367*
X1867160Y447702*
X1866186*
X1865699Y447367*
X1865212Y446697*
X1864969Y446028*
X1864725Y445023*
Y443349*
X1864969Y442345*
X1865212Y441675*
X1865699Y441005*
X1866186Y440671*
X1867160*
X1867647Y441005*
X1868134Y441675*
X1868378Y442345*
X1870569Y447702D02*
Y440671D01*
X1873978Y447702D02*
Y440671D01*
X1870569Y444354D02*
X1873978D01*
X1876170Y447702D02*
Y440671D01*
Y447702D02*
X1879336D01*
X1876170Y444354D02*
X1878118D01*
X1876170Y440671D02*
X1879336D01*
X1885180Y446028D02*
X1884936Y446697D01*
X1884449Y447367*
X1883962Y447702*
X1882988*
X1882501Y447367*
X1882014Y446697*
X1881771Y446028*
X1881527Y445023*
Y443349*
X1881771Y442345*
X1882014Y441675*
X1882501Y441005*
X1882988Y440671*
X1883962*
X1884449Y441005*
X1884936Y441675*
X1885180Y442345*
X1887371Y447702D02*
Y440671D01*
X1890780Y447702D02*
X1887371Y443014D01*
X1888589Y444688D02*
X1890780Y440671D01*
X1701025Y473818D02*
Y466787D01*
X1699320Y473818D02*
X1702729D01*
X1706382D02*
X1705895Y473483D01*
X1705408Y472813*
X1705164Y472144*
X1704921Y471139*
Y469465*
X1705164Y468461*
X1705408Y467791*
X1705895Y467121*
X1706382Y466787*
X1707356*
X1707843Y467121*
X1708330Y467791*
X1708573Y468461*
X1708817Y469465*
Y471139*
X1708573Y472144*
X1708330Y472813*
X1707843Y473483*
X1707356Y473818*
X1706382*
X1711008D02*
Y466787D01*
X1713931*
X1716122Y473818D02*
Y466787D01*
Y473818D02*
X1719288D01*
X1716122Y470470D02*
X1718070D01*
X1716122Y466787D02*
X1719288D01*
X1721479Y473818D02*
Y466787D01*
Y473818D02*
X1723671D01*
X1724401Y473483*
X1724645Y473148*
X1724888Y472479*
Y471809*
X1724645Y471139*
X1724401Y470804*
X1723671Y470470*
X1721479*
X1723184D02*
X1724888Y466787D01*
X1729028Y473818D02*
X1727080Y466787D01*
X1729028Y473818D02*
X1730976Y466787D01*
X1727810Y469130D02*
X1730245D01*
X1733168Y473818D02*
Y466787D01*
Y473818D02*
X1736577Y466787D01*
Y473818D02*
Y466787D01*
X1742421Y472144D02*
X1742177Y472813D01*
X1741690Y473483*
X1741203Y473818*
X1740229*
X1739742Y473483*
X1739255Y472813*
X1739012Y472144*
X1738768Y471139*
Y469465*
X1739012Y468461*
X1739255Y467791*
X1739742Y467121*
X1740229Y466787*
X1741203*
X1741690Y467121*
X1742177Y467791*
X1742421Y468461*
X1744612Y473818D02*
Y466787D01*
Y473818D02*
X1747778D01*
X1744612Y470470D02*
X1746560D01*
X1744612Y466787D02*
X1747778D01*
X1753379Y472813D02*
X1752892Y473483D01*
X1752161Y473818*
X1751187*
X1750456Y473483*
X1749969Y472813*
Y472144*
X1750213Y471474*
X1750456Y471139*
X1750944Y470804*
X1752405Y470135*
X1752892Y469800*
X1753135Y469465*
X1753379Y468796*
Y467791*
X1752892Y467121*
X1752161Y466787*
X1751187*
X1750456Y467121*
X1749969Y467791*
X1755814Y471474D02*
X1755570Y471139D01*
X1755814Y470804*
X1756057Y471139*
X1755814Y471474*
Y467456D02*
X1755570Y467121D01*
X1755814Y466787*
X1756057Y467121*
X1755814Y467456*
X1612274Y517399D02*
Y510836D01*
X1614319Y517399D02*
Y510836D01*
Y517399D02*
X1617501Y510836D01*
Y517399D02*
Y510836D01*
X1621138Y517399D02*
Y510836D01*
X1619547Y517399D02*
X1622729D01*
X1624774D02*
Y510836D01*
Y517399D02*
X1627729D01*
X1624774Y514274D02*
X1626592D01*
X1624774Y510836D02*
X1627729D01*
X1629774Y517399D02*
Y510836D01*
Y517399D02*
X1631819D01*
X1632501Y517086*
X1632729Y516774*
X1632956Y516149*
Y515524*
X1632729Y514899*
X1632501Y514586*
X1631819Y514274*
X1629774*
X1631365D02*
X1632956Y510836D01*
X1635001Y517399D02*
Y510836D01*
Y517399D02*
X1637047D01*
X1637729Y517086*
X1637956Y516774*
X1638183Y516149*
Y515211*
X1637956Y514586*
X1637729Y514274*
X1637047Y513961*
X1635001*
X1640229Y517399D02*
Y510836D01*
Y517399D02*
X1642274D01*
X1642956Y517086*
X1643183Y516774*
X1643410Y516149*
Y515524*
X1643183Y514899*
X1642956Y514586*
X1642274Y514274*
X1640229*
X1641819D02*
X1643410Y510836D01*
X1645456Y517399D02*
Y510836D01*
Y517399D02*
X1648410D01*
X1645456Y514274D02*
X1647274D01*
X1645456Y510836D02*
X1648410D01*
X1652047Y517399D02*
Y510836D01*
X1650456Y517399D02*
X1653638D01*
X1660910D02*
Y510836D01*
Y517399D02*
X1662501D01*
X1663183Y517086*
X1663638Y516461*
X1663865Y515836*
X1664092Y514899*
Y513336*
X1663865Y512399*
X1663638Y511774*
X1663183Y511149*
X1662501Y510836*
X1660910*
X1666138Y517399D02*
Y510836D01*
Y517399D02*
X1668183D01*
X1668865Y517086*
X1669092Y516774*
X1669319Y516149*
Y515524*
X1669092Y514899*
X1668865Y514586*
X1668183Y514274*
X1666138*
X1667729D02*
X1669319Y510836D01*
X1673183Y517399D02*
X1671365Y510836D01*
X1673183Y517399D02*
X1675001Y510836D01*
X1672047Y513024D02*
X1674319D01*
X1677047Y517399D02*
X1678183Y510836D01*
X1679319Y517399D02*
X1678183Y510836D01*
X1679319Y517399D02*
X1680456Y510836D01*
X1681592Y517399D02*
X1680456Y510836D01*
X1683638Y517399D02*
Y510836D01*
X1685683Y517399D02*
Y510836D01*
Y517399D02*
X1688865Y510836D01*
Y517399D02*
Y510836D01*
X1694319Y515836D02*
X1694092Y516461D01*
X1693638Y517086*
X1693183Y517399*
X1692274*
X1691819Y517086*
X1691365Y516461*
X1691138Y515836*
X1690910Y514899*
Y513336*
X1691138Y512399*
X1691365Y511774*
X1691819Y511149*
X1692274Y510836*
X1693183*
X1693638Y511149*
X1694092Y511774*
X1694319Y512399*
Y513336*
X1693183D02*
X1694319D01*
X1701592Y517399D02*
Y510836D01*
Y517399D02*
X1703638D01*
X1704319Y517086*
X1704547Y516774*
X1704774Y516149*
Y515211*
X1704547Y514586*
X1704319Y514274*
X1703638Y513961*
X1701592*
X1706819Y517399D02*
Y510836D01*
Y517399D02*
X1709774D01*
X1706819Y514274D02*
X1708638D01*
X1706819Y510836D02*
X1709774D01*
X1711819Y517399D02*
Y510836D01*
Y517399D02*
X1713865D01*
X1714547Y517086*
X1714774Y516774*
X1715001Y516149*
Y515524*
X1714774Y514899*
X1714547Y514586*
X1713865Y514274*
X1711819*
X1713410D02*
X1715001Y510836D01*
X1724092Y517399D02*
X1722274Y510836D01*
X1724092Y517399D02*
X1725910Y510836D01*
X1722956Y513024D02*
X1725229D01*
X1727956Y517399D02*
Y510836D01*
Y517399D02*
X1731138Y510836D01*
Y517399D02*
Y510836D01*
X1736365Y516461D02*
X1735910Y517086D01*
X1735229Y517399*
X1734319*
X1733638Y517086*
X1733183Y516461*
Y515836*
X1733410Y515211*
X1733638Y514899*
X1734092Y514586*
X1735456Y513961*
X1735910Y513649*
X1736138Y513336*
X1736365Y512711*
Y511774*
X1735910Y511149*
X1735229Y510836*
X1734319*
X1733638Y511149*
X1733183Y511774*
X1738410Y517399D02*
Y510836D01*
X1745683Y517399D02*
X1747501Y514274D01*
Y510836*
X1749319Y517399D02*
X1747501Y514274D01*
X1751365Y516149D02*
X1751819Y516461D01*
X1752501Y517399*
Y510836*
X1756819Y517399D02*
X1754547Y513024D01*
X1757956*
X1756819Y517399D02*
Y510836D01*
X1760229Y511461D02*
X1760001Y511149D01*
X1760229Y510836*
X1760456Y511149*
X1760229Y511461*
X1765456Y517399D02*
X1763183D01*
X1762956Y514586*
X1763183Y514899*
X1763865Y515211*
X1764547*
X1765229Y514899*
X1765683Y514274*
X1765910Y513336*
X1765683Y512711*
X1765456Y511774*
X1765001Y511149*
X1764319Y510836*
X1763638*
X1762956Y511149*
X1762729Y511461*
X1762501Y512086*
X1767956Y517399D02*
Y510836D01*
Y517399D02*
X1769774Y510836D01*
X1771592Y517399D02*
X1769774Y510836D01*
X1771592Y517399D02*
Y510836D01*
X1773638Y513649D02*
X1777729D01*
X1779774Y516149D02*
X1780229Y516461D01*
X1780910Y517399*
Y510836*
X1785910Y515211D02*
X1785683Y514274D01*
X1785229Y513649*
X1784547Y513336*
X1784319*
X1783638Y513649*
X1783183Y514274*
X1782956Y515211*
Y515524*
X1783183Y516461*
X1783638Y517086*
X1784319Y517399*
X1784547*
X1785229Y517086*
X1785683Y516461*
X1785910Y515211*
Y513649*
X1785683Y512086*
X1785229Y511149*
X1784547Y510836*
X1784092*
X1783410Y511149*
X1783183Y511774*
X1789092Y517399D02*
X1788410Y517086D01*
X1788183Y516461*
Y515836*
X1788410Y515211*
X1788865Y514899*
X1789774Y514586*
X1790456Y514274*
X1790910Y513649*
X1791138Y513024*
Y512086*
X1790910Y511461*
X1790683Y511149*
X1790001Y510836*
X1789092*
X1788410Y511149*
X1788183Y511461*
X1787956Y512086*
Y513024*
X1788183Y513649*
X1788638Y514274*
X1789319Y514586*
X1790229Y514899*
X1790683Y515211*
X1790910Y515836*
Y516461*
X1790683Y517086*
X1790001Y517399*
X1789092*
X1793410Y515836D02*
Y516149D01*
X1793638Y516774*
X1793865Y517086*
X1794319Y517399*
X1795229*
X1795683Y517086*
X1795910Y516774*
X1796138Y516149*
Y515524*
X1795910Y514899*
X1795456Y513961*
X1793183Y510836*
X1796365*
X1617941Y506129D02*
Y501442D01*
X1618168Y500504*
X1618622Y499879*
X1619304Y499567*
X1619759*
X1620441Y499879*
X1620895Y500504*
X1621122Y501442*
Y506129*
X1623168D02*
Y499567D01*
Y506129D02*
X1626350Y499567D01*
Y506129D02*
Y499567D01*
X1628395Y506129D02*
Y499567D01*
X1631122*
X1633168Y506129D02*
Y499567D01*
Y506129D02*
X1636122D01*
X1633168Y503004D02*
X1634986D01*
X1633168Y499567D02*
X1636122D01*
X1641350Y505192D02*
X1640895Y505817D01*
X1640213Y506129*
X1639304*
X1638622Y505817*
X1638168Y505192*
Y504567*
X1638395Y503942*
X1638622Y503629*
X1639077Y503317*
X1640441Y502692*
X1640895Y502379*
X1641122Y502067*
X1641350Y501442*
Y500504*
X1640895Y499879*
X1640213Y499567*
X1639304*
X1638622Y499879*
X1638168Y500504*
X1646577Y505192D02*
X1646122Y505817D01*
X1645441Y506129*
X1644532*
X1643850Y505817*
X1643395Y505192*
Y504567*
X1643622Y503942*
X1643850Y503629*
X1644304Y503317*
X1645668Y502692*
X1646122Y502379*
X1646350Y502067*
X1646577Y501442*
Y500504*
X1646122Y499879*
X1645441Y499567*
X1644532*
X1643850Y499879*
X1643395Y500504*
X1655213Y506129D02*
X1654759Y505817D01*
X1654304Y505192*
X1654077Y504567*
X1653850Y503629*
Y502067*
X1654077Y501129*
X1654304Y500504*
X1654759Y499879*
X1655213Y499567*
X1656122*
X1656577Y499879*
X1657032Y500504*
X1657259Y501129*
X1657486Y502067*
Y503629*
X1657259Y504567*
X1657032Y505192*
X1656577Y505817*
X1656122Y506129*
X1655213*
X1661122D02*
Y499567D01*
X1659532Y506129D02*
X1662713D01*
X1664759D02*
Y499567D01*
X1667941Y506129D02*
Y499567D01*
X1664759Y503004D02*
X1667941D01*
X1669986Y506129D02*
Y499567D01*
Y506129D02*
X1672941D01*
X1669986Y503004D02*
X1671804D01*
X1669986Y499567D02*
X1672941D01*
X1674986Y506129D02*
Y499567D01*
Y506129D02*
X1677032D01*
X1677713Y505817*
X1677941Y505504*
X1678168Y504879*
Y504254*
X1677941Y503629*
X1677713Y503317*
X1677032Y503004*
X1674986*
X1676577D02*
X1678168Y499567D01*
X1680213Y506129D02*
X1681350Y499567D01*
X1682486Y506129D02*
X1681350Y499567D01*
X1682486Y506129D02*
X1683622Y499567D01*
X1684759Y506129D02*
X1683622Y499567D01*
X1686804Y506129D02*
Y499567D01*
X1692032Y505192D02*
X1691577Y505817D01*
X1690895Y506129*
X1689986*
X1689304Y505817*
X1688850Y505192*
Y504567*
X1689077Y503942*
X1689304Y503629*
X1689759Y503317*
X1691122Y502692*
X1691577Y502379*
X1691804Y502067*
X1692032Y501442*
Y500504*
X1691577Y499879*
X1690895Y499567*
X1689986*
X1689304Y499879*
X1688850Y500504*
X1694077Y506129D02*
Y499567D01*
Y506129D02*
X1697032D01*
X1694077Y503004D02*
X1695895D01*
X1694077Y499567D02*
X1697032D01*
X1707486Y505192D02*
X1707032Y505817D01*
X1706350Y506129*
X1705441*
X1704759Y505817*
X1704304Y505192*
Y504567*
X1704532Y503942*
X1704759Y503629*
X1705213Y503317*
X1706577Y502692*
X1707032Y502379*
X1707259Y502067*
X1707486Y501442*
Y500504*
X1707032Y499879*
X1706350Y499567*
X1705441*
X1704759Y499879*
X1704304Y500504*
X1709532Y506129D02*
Y499567D01*
Y506129D02*
X1711577D01*
X1712259Y505817*
X1712486Y505504*
X1712713Y504879*
Y503942*
X1712486Y503317*
X1712259Y503004*
X1711577Y502692*
X1709532*
X1714759Y506129D02*
Y499567D01*
Y506129D02*
X1717713D01*
X1714759Y503004D02*
X1716577D01*
X1714759Y499567D02*
X1717713D01*
X1723168Y504567D02*
X1722941Y505192D01*
X1722486Y505817*
X1722032Y506129*
X1721122*
X1720668Y505817*
X1720213Y505192*
X1719986Y504567*
X1719759Y503629*
Y502067*
X1719986Y501129*
X1720213Y500504*
X1720668Y499879*
X1721122Y499567*
X1722032*
X1722486Y499879*
X1722941Y500504*
X1723168Y501129*
X1725213Y506129D02*
Y499567D01*
X1727259Y506129D02*
Y499567D01*
Y506129D02*
X1730213D01*
X1727259Y503004D02*
X1729077D01*
X1732259Y506129D02*
Y499567D01*
X1734304Y506129D02*
Y499567D01*
Y506129D02*
X1737259D01*
X1734304Y503004D02*
X1736122D01*
X1734304Y499567D02*
X1737259D01*
X1739304Y506129D02*
Y499567D01*
Y506129D02*
X1740895D01*
X1741577Y505817*
X1742032Y505192*
X1742259Y504567*
X1742486Y503629*
Y502067*
X1742259Y501129*
X1742032Y500504*
X1741577Y499879*
X1740895Y499567*
X1739304*
X1749759Y506129D02*
Y499567D01*
Y506129D02*
X1751350D01*
X1752032Y505817*
X1752486Y505192*
X1752713Y504567*
X1752941Y503629*
Y502067*
X1752713Y501129*
X1752486Y500504*
X1752032Y499879*
X1751350Y499567*
X1749759*
X1754986Y506129D02*
Y499567D01*
X1757032Y506129D02*
Y499567D01*
Y506129D02*
X1758850Y499567D01*
X1760668Y506129D02*
X1758850Y499567D01*
X1760668Y506129D02*
Y499567D01*
X1762713Y506129D02*
Y499567D01*
Y506129D02*
X1765668D01*
X1762713Y503004D02*
X1764532D01*
X1762713Y499567D02*
X1765668D01*
X1767713Y506129D02*
Y499567D01*
Y506129D02*
X1770895Y499567D01*
Y506129D02*
Y499567D01*
X1776122Y505192D02*
X1775668Y505817D01*
X1774986Y506129*
X1774077*
X1773395Y505817*
X1772941Y505192*
Y504567*
X1773168Y503942*
X1773395Y503629*
X1773850Y503317*
X1775213Y502692*
X1775668Y502379*
X1775895Y502067*
X1776122Y501442*
Y500504*
X1775668Y499879*
X1774986Y499567*
X1774077*
X1773395Y499879*
X1772941Y500504*
X1778168Y506129D02*
Y499567D01*
X1781577Y506129D02*
X1781122Y505817D01*
X1780668Y505192*
X1780441Y504567*
X1780213Y503629*
Y502067*
X1780441Y501129*
X1780668Y500504*
X1781122Y499879*
X1781577Y499567*
X1782486*
X1782941Y499879*
X1783395Y500504*
X1783622Y501129*
X1783850Y502067*
Y503629*
X1783622Y504567*
X1783395Y505192*
X1782941Y505817*
X1782486Y506129*
X1781577*
X1785895D02*
Y499567D01*
Y506129D02*
X1789077Y499567D01*
Y506129D02*
Y499567D01*
X1794304Y505192D02*
X1793850Y505817D01*
X1793168Y506129*
X1792259*
X1791577Y505817*
X1791122Y505192*
Y504567*
X1791350Y503942*
X1791577Y503629*
X1792032Y503317*
X1793395Y502692*
X1793850Y502379*
X1794077Y502067*
X1794304Y501442*
Y500504*
X1793850Y499879*
X1793168Y499567*
X1792259*
X1791577Y499879*
X1791122Y500504*
X1695759Y494251D02*
X1693941Y487688D01*
X1695759Y494251D02*
X1697577Y487688D01*
X1694622Y489876D02*
X1696895D01*
X1699622Y494251D02*
Y487688D01*
Y494251D02*
X1701668D01*
X1702350Y493938*
X1702577Y493626*
X1702804Y493001*
Y492376*
X1702577Y491751*
X1702350Y491438*
X1701668Y491126*
X1699622*
X1701213D02*
X1702804Y487688D01*
X1704850Y494251D02*
Y487688D01*
Y494251D02*
X1707804D01*
X1704850Y491126D02*
X1706668D01*
X1704850Y487688D02*
X1707804D01*
X1715077Y494251D02*
Y487688D01*
X1717122Y494251D02*
Y487688D01*
Y494251D02*
X1720304Y487688D01*
Y494251D02*
Y487688D01*
X1727577Y494251D02*
Y487688D01*
X1729622Y494251D02*
Y487688D01*
Y494251D02*
X1732804Y487688D01*
Y494251D02*
Y487688D01*
X1738259Y492688D02*
X1738032Y493313D01*
X1737577Y493938*
X1737122Y494251*
X1736213*
X1735759Y493938*
X1735304Y493313*
X1735077Y492688*
X1734850Y491751*
Y490188*
X1735077Y489251*
X1735304Y488626*
X1735759Y488001*
X1736213Y487688*
X1737122*
X1737577Y488001*
X1738032Y488626*
X1738259Y489251*
X1740304Y494251D02*
Y487688D01*
X1743486Y494251D02*
Y487688D01*
X1740304Y491126D02*
X1743486D01*
X1745532Y494251D02*
Y487688D01*
Y494251D02*
X1748486D01*
X1745532Y491126D02*
X1747350D01*
X1745532Y487688D02*
X1748486D01*
X1753713Y493313D02*
X1753259Y493938D01*
X1752577Y494251*
X1751668*
X1750986Y493938*
X1750532Y493313*
Y492688*
X1750759Y492063*
X1750986Y491751*
X1751441Y491438*
X1752804Y490813*
X1753259Y490501*
X1753486Y490188*
X1753713Y489563*
Y488626*
X1753259Y488001*
X1752577Y487688*
X1751668*
X1750986Y488001*
X1750532Y488626*
X1617818Y455628D02*
Y448597D01*
Y455628D02*
X1620983D01*
X1617818Y452280D02*
X1619766D01*
X1623175Y455628D02*
Y448597D01*
Y455628D02*
X1625366D01*
X1626097Y455293*
X1626340Y454959*
X1626584Y454289*
Y453619*
X1626340Y452950*
X1626097Y452615*
X1625366Y452280*
X1623175*
X1624879D02*
X1626584Y448597D01*
X1630723Y455628D02*
X1628775Y448597D01*
X1630723Y455628D02*
X1632671Y448597D01*
X1629506Y450941D02*
X1631941D01*
X1638515Y453954D02*
X1638272Y454624D01*
X1637785Y455293*
X1637298Y455628*
X1636324*
X1635837Y455293*
X1635350Y454624*
X1635106Y453954*
X1634863Y452950*
Y451276*
X1635106Y450271*
X1635350Y449602*
X1635837Y448932*
X1636324Y448597*
X1637298*
X1637785Y448932*
X1638272Y449602*
X1638515Y450271*
X2066550Y463975D02*
Y450850D01*
Y463975D02*
X2070641D01*
X2072005Y463350*
X2072459Y462725*
X2072914Y461475*
Y459600*
X2072459Y458350*
X2072005Y457725*
X2070641Y457100*
X2066550*
X2077005Y459600D02*
Y450850D01*
Y455850D02*
X2077459Y457725D01*
X2078368Y458975*
X2079277Y459600*
X2080641*
X2087005D02*
X2086095Y458975D01*
X2085186Y457725*
X2084732Y455850*
Y454600*
X2085186Y452725*
X2086095Y451475*
X2087005Y450850*
X2088368*
X2089277Y451475*
X2090186Y452725*
X2090641Y454600*
Y455850*
X2090186Y457725*
X2089277Y458975*
X2088368Y459600*
X2087005*
X2096550Y463975D02*
X2097005Y463350D01*
X2097459Y463975*
X2097005Y464600*
X2096550Y463975*
X2097005Y459600D02*
Y448975D01*
X2096550Y447100*
X2095641Y446475*
X2094732*
X2101550Y455850D02*
X2107005D01*
Y457100*
X2106550Y458350*
X2106095Y458975*
X2105186Y459600*
X2103823*
X2102914Y458975*
X2102005Y457725*
X2101550Y455850*
Y454600*
X2102005Y452725*
X2102914Y451475*
X2103823Y450850*
X2105186*
X2106095Y451475*
X2107005Y452725*
X2116550Y457725D02*
X2115641Y458975D01*
X2114732Y459600*
X2113368*
X2112459Y458975*
X2111550Y457725*
X2111095Y455850*
Y454600*
X2111550Y452725*
X2112459Y451475*
X2113368Y450850*
X2114732*
X2115641Y451475*
X2116550Y452725*
X2122005Y463975D02*
Y453350D01*
X2122459Y451475*
X2123368Y450850*
X2124277*
X2120641Y459600D02*
X2123823D01*
X2138823Y463975D02*
Y450850D01*
Y463975D02*
X2145186Y450850D01*
Y463975D02*
Y450850D01*
X2154732Y459600D02*
Y450850D01*
Y457725D02*
X2153823Y458975D01*
X2152914Y459600*
X2151550*
X2150641Y458975*
X2149732Y457725*
X2149277Y455850*
Y454600*
X2149732Y452725*
X2150641Y451475*
X2151550Y450850*
X2152914*
X2153823Y451475*
X2154732Y452725*
X2158823Y459600D02*
Y450850D01*
Y457100D02*
X2160186Y458975D01*
X2161095Y459600*
X2162459*
X2163368Y458975*
X2163823Y457100*
Y450850*
Y457100D02*
X2165186Y458975D01*
X2166095Y459600*
X2167459*
X2168368Y458975*
X2168823Y457100*
Y450850*
X2172914Y455850D02*
X2178368D01*
Y457100*
X2177914Y458350*
X2177459Y458975*
X2176550Y459600*
X2175186*
X2174277Y458975*
X2173368Y457725*
X2172914Y455850*
Y454600*
X2173368Y452725*
X2174277Y451475*
X2175186Y450850*
X2176550*
X2177459Y451475*
X2178368Y452725*
X2182914Y459600D02*
X2182459Y458975D01*
X2182914Y458350*
X2183368Y458975*
X2182914Y459600*
Y452100D02*
X2182459Y451475D01*
X2182914Y450850*
X2183368Y451475*
X2182914Y452100*
X2197914Y463975D02*
Y450850D01*
Y463975D02*
X2202005D01*
X2203368Y463350*
X2203823Y462725*
X2204277Y461475*
Y460225*
X2203823Y458975*
X2203368Y458350*
X2202005Y457725*
X2197914D02*
X2202005D01*
X2203368Y457100*
X2203823Y456475*
X2204277Y455225*
Y453350*
X2203823Y452100*
X2203368Y451475*
X2202005Y450850*
X2197914*
X2210641Y459600D02*
X2209732Y458975D01*
X2208823Y457725*
X2208368Y455850*
Y454600*
X2208823Y452725*
X2209732Y451475*
X2210641Y450850*
X2212005*
X2212914Y451475*
X2213823Y452725*
X2214277Y454600*
Y455850*
X2213823Y457725*
X2212914Y458975*
X2212005Y459600*
X2210641*
X2218368Y463975D02*
Y450850D01*
Y457725D02*
X2219277Y458975D01*
X2220186Y459600*
X2221550*
X2222459Y458975*
X2223368Y457725*
X2223823Y455850*
Y454600*
X2223368Y452725*
X2222459Y451475*
X2221550Y450850*
X2220186*
X2219277Y451475*
X2218368Y452725*
X2227914Y463975D02*
Y450850D01*
Y457725D02*
X2228823Y458975D01*
X2229732Y459600*
X2231095*
X2232005Y458975*
X2232914Y457725*
X2233368Y455850*
Y454600*
X2232914Y452725*
X2232005Y451475*
X2231095Y450850*
X2229732*
X2228823Y451475*
X2227914Y452725*
X2237914Y459600D02*
X2240641Y450850D01*
X2243368Y459600D02*
X2240641Y450850D01*
X2239732Y448350*
X2238823Y447100*
X2237914Y446475*
X2237459*
X2247459Y463975D02*
Y450850D01*
Y463975D02*
X2251550D01*
X2252914Y463350*
X2253368Y462725*
X2253823Y461475*
Y460225*
X2253368Y458975*
X2252914Y458350*
X2251550Y457725*
X2247459D02*
X2251550D01*
X2252914Y457100*
X2253368Y456475*
X2253823Y455225*
Y453350*
X2253368Y452100*
X2252914Y451475*
X2251550Y450850*
X2247459*
X2264732Y460850D02*
X2264277Y462100D01*
X2263368Y463350*
X2262459Y463975*
X2260641*
X2259732Y463350*
X2258823Y462100*
X2258368Y460850*
X2257914Y458975*
Y455850*
X2258368Y453975*
X2258823Y452725*
X2259732Y451475*
X2260641Y450850*
X2262459*
X2263368Y451475*
X2264277Y452725*
X2264732Y453975*
X2415625Y1891026D02*
X2412509Y1879776D01*
X2415625Y1891026D02*
X2418742Y1879776D01*
X2413677Y1883526D02*
X2417573D01*
X2422249Y1891026D02*
Y1879776D01*
Y1891026D02*
X2425755D01*
X2426924Y1890490*
X2427314Y1889954*
X2427703Y1888883*
Y1887276*
X2427314Y1886204*
X2426924Y1885669*
X2425755Y1885133*
X2422249*
X2431210Y1891026D02*
Y1879776D01*
Y1891026D02*
X2434716D01*
X2435885Y1890490*
X2436275Y1889954*
X2436664Y1888883*
Y1887276*
X2436275Y1886204*
X2435885Y1885669*
X2434716Y1885133*
X2431210*
X2440171Y1891026D02*
Y1879776D01*
Y1891026D02*
X2443677D01*
X2444846Y1890490*
X2445236Y1889954*
X2445625Y1888883*
Y1887811*
X2445236Y1886740*
X2444846Y1886204*
X2443677Y1885669*
X2440171*
X2442898D02*
X2445625Y1879776D01*
X2499533Y1749186D02*
Y1730436D01*
Y1749186D02*
X2504078D01*
X2506026Y1748293*
X2507325Y1746507*
X2507974Y1744722*
X2508624Y1742043*
Y1737579*
X2507974Y1734900*
X2507325Y1733115*
X2506026Y1731329*
X2504078Y1730436*
X2499533*
Y1749186D02*
Y1730436D01*
Y1749186D02*
X2504078D01*
X2506026Y1748293*
X2507325Y1746507*
X2507974Y1744722*
X2508624Y1742043*
Y1737579*
X2507974Y1734900*
X2507325Y1733115*
X2506026Y1731329*
X2504078Y1730436*
X2499533*
X2340510Y1891026D02*
Y1879776D01*
Y1891026D02*
X2343237D01*
X2344406Y1890490*
X2345185Y1889419*
X2345575Y1888347*
X2345964Y1886740*
Y1884061*
X2345575Y1882454*
X2345185Y1881383*
X2344406Y1880311*
X2343237Y1879776*
X2340510*
X2352588Y1891026D02*
X2349471Y1879776D01*
X2352588Y1891026D02*
X2355704Y1879776D01*
X2350640Y1883526D02*
X2354536D01*
X2361938Y1891026D02*
Y1879776D01*
X2359211Y1891026D02*
X2364666D01*
X2368172D02*
Y1879776D01*
Y1891026D02*
X2373237D01*
X2368172Y1885669D02*
X2371289D01*
X2368172Y1879776D02*
X2373237D01*
X2334064Y1862094D02*
Y1862406D01*
X2334291Y1863031*
X2334518Y1863344*
X2334973Y1863656*
X2335882*
X2336336Y1863344*
X2336564Y1863031*
X2336791Y1862406*
Y1861781*
X2336564Y1861156*
X2336109Y1860219*
X2333836Y1857094*
X2337018*
X2340427Y1863656D02*
X2339745Y1863344D01*
X2339291Y1862406*
X2339064Y1860844*
Y1859906*
X2339291Y1858344*
X2339745Y1857406*
X2340427Y1857094*
X2340882*
X2341564Y1857406*
X2342018Y1858344*
X2342245Y1859906*
Y1860844*
X2342018Y1862406*
X2341564Y1863344*
X2340882Y1863656*
X2340427*
X2345655D02*
X2344973Y1863344D01*
X2344518Y1862406*
X2344291Y1860844*
Y1859906*
X2344518Y1858344*
X2344973Y1857406*
X2345655Y1857094*
X2346109*
X2346791Y1857406*
X2347245Y1858344*
X2347473Y1859906*
Y1860844*
X2347245Y1862406*
X2346791Y1863344*
X2346109Y1863656*
X2345655*
X2352473Y1861469D02*
X2352245Y1860531D01*
X2351791Y1859906*
X2351109Y1859594*
X2350882*
X2350200Y1859906*
X2349745Y1860531*
X2349518Y1861469*
Y1861781*
X2349745Y1862719*
X2350200Y1863344*
X2350882Y1863656*
X2351109*
X2351791Y1863344*
X2352245Y1862719*
X2352473Y1861469*
Y1859906*
X2352245Y1858344*
X2351791Y1857406*
X2351109Y1857094*
X2350655*
X2349973Y1857406*
X2349745Y1858031*
X2355882Y1863656D02*
X2355200Y1863344D01*
X2354745Y1862406*
X2354518Y1860844*
Y1859906*
X2354745Y1858344*
X2355200Y1857406*
X2355882Y1857094*
X2356336*
X2357018Y1857406*
X2357473Y1858344*
X2357700Y1859906*
Y1860844*
X2357473Y1862406*
X2357018Y1863344*
X2356336Y1863656*
X2355882*
X2360200D02*
X2362700D01*
X2361336Y1861156*
X2362018*
X2362473Y1860844*
X2362700Y1860531*
X2362927Y1859594*
Y1858969*
X2362700Y1858031*
X2362245Y1857406*
X2361564Y1857094*
X2360882*
X2360200Y1857406*
X2359973Y1857719*
X2359745Y1858344*
X2366336Y1863656D02*
X2365655Y1863344D01*
X2365200Y1862406*
X2364973Y1860844*
Y1859906*
X2365200Y1858344*
X2365655Y1857406*
X2366336Y1857094*
X2366791*
X2367473Y1857406*
X2367927Y1858344*
X2368155Y1859906*
Y1860844*
X2367927Y1862406*
X2367473Y1863344*
X2366791Y1863656*
X2366336*
X2373155Y1861469D02*
X2372927Y1860531D01*
X2372473Y1859906*
X2371791Y1859594*
X2371564*
X2370882Y1859906*
X2370427Y1860531*
X2370200Y1861469*
Y1861781*
X2370427Y1862719*
X2370882Y1863344*
X2371564Y1863656*
X2371791*
X2372473Y1863344*
X2372927Y1862719*
X2373155Y1861469*
Y1859906*
X2372927Y1858344*
X2372473Y1857406*
X2371791Y1857094*
X2371336*
X2370655Y1857406*
X2370427Y1858031*
X2181136Y1917140D02*
Y1905890D01*
Y1917140D02*
X2184643D01*
X2185811Y1916604*
X2186201Y1916069*
X2186591Y1914997*
Y1913926*
X2186201Y1912854*
X2185811Y1912318*
X2185811D02*
X2184643Y1911783D01*
X2181136*
X2183863D02*
X2186591Y1905890D01*
X2190097Y1917140D02*
Y1905890D01*
Y1917140D02*
X2195162D01*
X2190097Y1911783D02*
X2193214D01*
X2190097Y1905890D02*
X2195162D01*
X2198669Y1917140D02*
X2201786Y1905890D01*
X2204902Y1917140D02*
X2201786Y1905890D01*
X2208409Y1917140D02*
Y1905890D01*
X2217370Y1915533D02*
X2216591Y1916604D01*
X2215422Y1917140*
X2213863*
X2212695Y1916604*
X2211915Y1915533*
Y1914461*
X2212305Y1913390*
X2212695Y1912854*
X2213474Y1912318*
X2213474D02*
X2215811Y1911247D01*
X2216591Y1910711*
X2216980Y1910176*
X2217370Y1909104*
Y1907497*
X2216591Y1906426*
X2215422Y1905890*
X2213863*
X2212695Y1906426*
X2211915Y1907497*
X2220876Y1917140D02*
Y1905890D01*
X2226721Y1917140D02*
X2225941Y1916604D01*
X2225162Y1915533*
X2224773Y1914461*
X2224383Y1912854*
Y1910176*
X2224773Y1908568*
X2225162Y1907497*
X2225941Y1906426*
X2226721Y1905890*
X2228279*
X2229058Y1906426*
X2229837Y1907497*
X2230227Y1908568*
X2230617Y1910176*
Y1912854*
X2230227Y1914461*
X2229837Y1915533*
X2229058Y1916604*
X2228279Y1917140*
X2226721*
X2234123D02*
Y1905890D01*
Y1917140D02*
X2239578Y1905890D01*
Y1917140D02*
Y1905890D01*
X2248539Y1915533D02*
X2247760Y1916604D01*
X2246591Y1917140*
X2245032*
X2243863Y1916604*
X2243084Y1915533*
Y1914461*
X2243474Y1913390*
X2243863Y1912854*
X2244643Y1912318*
X2244643D02*
X2246980Y1911247D01*
X2247760Y1910711*
X2248149Y1910176*
X2248539Y1909104*
Y1907497*
X2247760Y1906426*
X2246591Y1905890*
X2245032*
X2243863Y1906426*
X2243084Y1907497*
X2103829Y1891026D02*
Y1879776D01*
Y1891026D02*
X2106556D01*
X2107725Y1890490*
X2108504Y1889419*
X2108894Y1888347*
X2109283Y1886740*
Y1884061*
X2108894Y1882454*
X2108504Y1881383*
X2107725Y1880311*
X2106556Y1879776*
X2103829*
X2112790Y1891026D02*
Y1879776D01*
Y1891026D02*
X2117855D01*
X2112790Y1885669D02*
X2115907D01*
X2112790Y1879776D02*
X2117855D01*
X2126816Y1889419D02*
X2126037Y1890490D01*
X2124868Y1891026*
X2123309*
X2122141Y1890490*
X2121361Y1889419*
Y1888347*
X2121751Y1887276*
X2122141Y1886740*
X2122920Y1886204*
X2125257Y1885133*
X2126037Y1884597*
X2126426Y1884061*
X2126816Y1882990*
Y1881383*
X2126037Y1880311*
X2124868Y1879776*
X2123309*
X2122141Y1880311*
X2121361Y1881383*
X2136167Y1888347D02*
X2135777Y1889419D01*
X2134998Y1890490*
X2134218Y1891026*
X2132660*
X2131881Y1890490*
X2131102Y1889419*
X2130712Y1888347*
X2130322Y1886740*
Y1884061*
X2130712Y1882454*
X2131102Y1881383*
X2131881Y1880311*
X2132660Y1879776*
X2134218*
X2134998Y1880311*
X2135777Y1881383*
X2136167Y1882454*
X2139673Y1891026D02*
Y1879776D01*
Y1891026D02*
X2143180D01*
X2143180D02*
X2144348Y1890490D01*
X2144738Y1889954*
X2145128Y1888883*
Y1887811*
X2144738Y1886740*
X2144348Y1886204*
X2143180Y1885669*
X2143180D02*
X2139673D01*
X2142400D02*
X2145128Y1879776D01*
X2148634Y1891026D02*
Y1879776D01*
X2152141Y1891026D02*
Y1879776D01*
Y1891026D02*
X2155647D01*
X2156816Y1890490*
X2157205Y1889954*
X2157595Y1888883*
Y1887276*
X2157205Y1886204*
X2156816Y1885669*
X2155647Y1885133*
X2152141*
X2163829Y1891026D02*
Y1879776D01*
X2161102Y1891026D02*
X2166556D01*
X2170063D02*
Y1879776D01*
X2175907Y1891026D02*
X2175128Y1890490D01*
X2174348Y1889419*
X2173959Y1888347*
X2173569Y1886740*
Y1884061*
X2173959Y1882454*
X2174348Y1881383*
X2175128Y1880311*
X2175907Y1879776*
X2177465*
X2178244Y1880311*
X2179024Y1881383*
X2179413Y1882454*
X2179803Y1884061*
Y1886740*
X2179413Y1888347*
X2179024Y1889419*
X2178244Y1890490*
X2177465Y1891026*
X2175907*
X2183309D02*
Y1879776D01*
Y1891026D02*
X2188764Y1879776D01*
Y1891026D02*
Y1879776D01*
X2224041Y1956431D02*
X2225340Y1957324D01*
X2227288Y1960003*
Y1941253*
X2224041Y1956431D02*
X2225340Y1957324D01*
X2227288Y1960003*
Y1941253*
X1996550Y1864834D02*
Y1854991D01*
X1999618Y1861553D02*
Y1854991D01*
Y1859678D02*
X2000641Y1861084D01*
X2001323Y1861553*
X2002345*
X2003027Y1861084*
X2003368Y1859678*
Y1854991*
X2006436Y1864834D02*
X2006777Y1864366D01*
X2007118Y1864834*
X2006777Y1865303*
X2006436Y1864834*
X2006777Y1861553D02*
Y1854991D01*
X2011209Y1864834D02*
Y1856866D01*
X2011550Y1855459*
X2012232Y1854991*
X2012914*
X2010186Y1861553D02*
X2012573D01*
X2015982Y1864834D02*
X2016323Y1864366D01*
X2016664Y1864834*
X2016323Y1865303*
X2015982Y1864834*
X2016323Y1861553D02*
Y1854991D01*
X2023823Y1861553D02*
Y1854991D01*
Y1860147D02*
X2023141Y1861084D01*
X2022459Y1861553*
X2021436*
X2020755Y1861084*
X2020073Y1860147*
X2019732Y1858741*
Y1857803*
X2020073Y1856397*
X2020755Y1855459*
X2021436Y1854991*
X2022459*
X2023141Y1855459*
X2023823Y1856397*
X2026891Y1864834D02*
Y1854991D01*
X2037800Y1864834D02*
Y1854991D01*
Y1864834D02*
X2040868D01*
X2041891Y1864366*
X2042232Y1863897*
X2042573Y1862959*
Y1862022*
X2042232Y1861084*
X2041891Y1860616*
X2040868Y1860147*
X2037800*
X2040186D02*
X2042573Y1854991D01*
X2045641Y1858741D02*
X2049732D01*
Y1859678*
X2049391Y1860616*
X2049050Y1861084*
X2048368Y1861553*
X2047345*
X2046664Y1861084*
X2045982Y1860147*
X2045641Y1858741*
Y1857803*
X2045982Y1856397*
X2046664Y1855459*
X2047345Y1854991*
X2048368*
X2049050Y1855459*
X2049732Y1856397*
X2052800Y1864834D02*
Y1854991D01*
X2055868Y1858741D02*
X2059959D01*
Y1859678*
X2059618Y1860616*
X2059277Y1861084*
X2058595Y1861553*
X2057573*
X2056891Y1861084*
X2056209Y1860147*
X2055868Y1858741*
Y1857803*
X2056209Y1856397*
X2056891Y1855459*
X2057573Y1854991*
X2058595*
X2059277Y1855459*
X2059959Y1856397*
X2067118Y1861553D02*
Y1854991D01*
Y1860147D02*
X2066436Y1861084D01*
X2065755Y1861553*
X2064732*
X2064050Y1861084*
X2063368Y1860147*
X2063027Y1858741*
Y1857803*
X2063368Y1856397*
X2064050Y1855459*
X2064732Y1854991*
X2065755*
X2066436Y1855459*
X2067118Y1856397*
X2073936Y1860147D02*
X2073595Y1861084D01*
X2072573Y1861553*
X2071550*
X2070527Y1861084*
X2070186Y1860147*
X2070527Y1859209*
X2071209Y1858741*
X2072914Y1858272*
X2073595Y1857803*
X2073936Y1856866*
Y1856397*
X2073595Y1855459*
X2072573Y1854991*
X2071550*
X2070527Y1855459*
X2070186Y1856397*
X2077005Y1858741D02*
X2081095D01*
Y1859678*
X2080755Y1860616*
X2080414Y1861084*
X2079732Y1861553*
X2078709*
X2078027Y1861084*
X2077345Y1860147*
X2077005Y1858741*
Y1857803*
X2077345Y1856397*
X2078027Y1855459*
X2078709Y1854991*
X2079732*
X2080414Y1855459*
X2081095Y1856397*
X1953501Y1889419D02*
X1952722Y1890490D01*
X1951553Y1891026*
X1949995*
X1948826Y1890490*
X1948047Y1889419*
Y1888347*
X1948436Y1887276*
X1948826Y1886740*
X1949605Y1886204*
X1951943Y1885133*
X1952722Y1884597*
X1953112Y1884061*
X1953501Y1882990*
Y1881383*
X1952722Y1880311*
X1951553Y1879776*
X1949995*
X1948826Y1880311*
X1948047Y1881383*
X1957008Y1891026D02*
X1960125Y1885669D01*
Y1879776*
X1963242Y1891026D02*
X1960125Y1885669D01*
X1966748Y1891026D02*
Y1879776D01*
Y1891026D02*
X1969865Y1879776D01*
X1972982Y1891026D02*
X1969865Y1879776D01*
X1972982Y1891026D02*
Y1879776D01*
X1698262Y1955539D02*
Y1956431D01*
X1698911Y1958217*
X1699560Y1959110*
X1700859Y1960003*
X1703456*
X1704755Y1959110*
X1705404Y1958217*
X1706054Y1956431*
Y1954646*
X1705404Y1952860*
X1704106Y1950181*
X1697612Y1941253*
X1706703*
X1698262Y1955539D02*
Y1956431D01*
X1698911Y1958217*
X1699560Y1959110*
X1700859Y1960003*
X1703456*
X1704755Y1959110*
X1705404Y1958217*
X1706054Y1956431*
Y1954646*
X1705404Y1952860*
X1704106Y1950181*
X1697612Y1941253*
X1706703*
X1965818Y1864834D02*
X1963091Y1854991D01*
X1965818Y1864834D02*
X1968545Y1854991D01*
X1964114Y1858272D02*
X1967523D01*
X2324459Y497419D02*
X2324005Y498044D01*
X2323323Y498356*
X2322414*
X2321732Y498044*
X2321277Y497419*
Y496794*
X2321505Y496169*
X2321732Y495856*
X2322186Y495544*
X2323550Y494919*
X2324005Y494606*
X2324232Y494294*
X2324459Y493669*
Y492731*
X2324005Y492106*
X2323323Y491794*
X2322414*
X2321732Y492106*
X2321277Y492731*
X2327186Y498356D02*
Y493044D01*
X2327414Y492106*
X2327868Y491794*
X2328323*
X2326505Y496169D02*
X2328095D01*
X2331505D02*
X2331050Y495856D01*
X2330595Y495231*
X2330368Y494294*
Y493669*
X2330595Y492731*
X2331050Y492106*
X2331505Y491794*
X2332186*
X2332641Y492106*
X2333095Y492731*
X2333323Y493669*
Y494294*
X2333095Y495231*
X2332641Y495856*
X2332186Y496169*
X2331505*
X2335368D02*
Y491794D01*
Y494919D02*
X2336050Y495856D01*
X2336505Y496169*
X2337186*
X2337641Y495856*
X2337868Y494919*
Y491794*
X2339914Y494294D02*
X2342641D01*
Y494919*
X2342414Y495544*
X2342186Y495856*
X2341732Y496169*
X2341050*
X2340595Y495856*
X2340141Y495231*
X2339914Y494294*
Y493669*
X2340141Y492731*
X2340595Y492106*
X2341050Y491794*
X2341732*
X2342186Y492106*
X2342641Y492731*
X2344686Y498356D02*
Y491794D01*
X2349459Y496169D02*
Y491794D01*
Y495231D02*
X2349005Y495856D01*
X2348550Y496169*
X2347868*
X2347414Y495856*
X2346959Y495231*
X2346732Y494294*
Y493669*
X2346959Y492731*
X2347414Y492106*
X2347868Y491794*
X2348550*
X2349005Y492106*
X2349459Y492731*
X2351505Y498356D02*
Y491794D01*
X2353777Y496169D02*
X2351505Y493044D01*
X2352414Y494294D02*
X2354005Y491794D01*
X2356050Y494294D02*
X2358777D01*
Y494919*
X2358550Y495544*
X2358323Y495856*
X2357868Y496169*
X2357186*
X2356732Y495856*
X2356277Y495231*
X2356050Y494294*
Y493669*
X2356277Y492731*
X2356732Y492106*
X2357186Y491794*
X2357868*
X2358323Y492106*
X2358777Y492731*
X2366050Y498356D02*
Y491794D01*
Y498356D02*
X2368095D01*
X2368777Y498044*
X2369005Y497731*
X2369232Y497106*
Y496481*
X2369005Y495856*
X2368777Y495544*
X2368095Y495231*
X2366050D02*
X2368095D01*
X2368777Y494919*
X2369005Y494606*
X2369232Y493981*
Y493044*
X2369005Y492419*
X2368777Y492106*
X2368095Y491794*
X2366050*
X2371277Y496169D02*
Y493044D01*
X2371505Y492106*
X2371959Y491794*
X2372641*
X2373095Y492106*
X2373777Y493044*
Y496169D02*
Y491794D01*
X2375823Y498356D02*
X2376050Y498044D01*
X2376277Y498356*
X2376050Y498669*
X2375823Y498356*
X2376050Y496169D02*
Y491794D01*
X2378323Y498356D02*
Y491794D01*
X2383095Y498356D02*
Y491794D01*
Y495231D02*
X2382641Y495856D01*
X2382186Y496169*
X2381505*
X2381050Y495856*
X2380595Y495231*
X2380368Y494294*
Y493669*
X2380595Y492731*
X2381050Y492106*
X2381505Y491794*
X2382186*
X2382641Y492106*
X2383095Y492731*
X2385141Y498356D02*
X2385368Y498044D01*
X2385595Y498356*
X2385368Y498669*
X2385141Y498356*
X2385368Y496169D02*
Y491794D01*
X2387641Y496169D02*
Y491794D01*
Y494919D02*
X2388323Y495856D01*
X2388777Y496169*
X2389459*
X2389914Y495856*
X2390141Y494919*
Y491794*
X2394914Y496169D02*
Y491169D01*
X2394686Y490231*
X2394459Y489919*
X2394005Y489606*
X2393323*
X2392868Y489919*
X2394914Y495231D02*
X2394459Y495856D01*
X2394005Y496169*
X2393323*
X2392868Y495856*
X2392414Y495231*
X2392186Y494294*
Y493669*
X2392414Y492731*
X2392868Y492106*
X2393323Y491794*
X2394005*
X2394459Y492106*
X2394914Y492731*
X2404914Y497419D02*
X2404686Y498044D01*
X2404005Y498356*
X2403550*
X2402868Y498044*
X2402414Y497106*
X2402186Y495544*
Y493981*
X2402414Y492731*
X2402868Y492106*
X2403550Y491794*
X2403777*
X2404459Y492106*
X2404914Y492731*
X2405141Y493669*
Y493981*
X2404914Y494919*
X2404459Y495544*
X2403777Y495856*
X2403550*
X2402868Y495544*
X2402414Y494919*
X2402186Y493981*
X2407641Y492106D02*
X2407414Y491794D01*
X2407186Y492106*
X2407414Y492419*
X2407641Y492106*
Y491481*
X2407414Y490856*
X2407186Y490544*
X2418095Y497419D02*
X2417641Y498044D01*
X2416959Y498356*
X2416050*
X2415368Y498044*
X2414914Y497419*
Y496794*
X2415141Y496169*
X2415368Y495856*
X2415823Y495544*
X2417186Y494919*
X2417641Y494606*
X2417868Y494294*
X2418095Y493669*
Y492731*
X2417641Y492106*
X2416959Y491794*
X2416050*
X2415368Y492106*
X2414914Y492731*
X2420141Y496169D02*
Y493044D01*
X2420368Y492106*
X2420823Y491794*
X2421505*
X2421959Y492106*
X2422641Y493044*
Y496169D02*
Y491794D01*
X2424686Y498356D02*
X2424914Y498044D01*
X2425141Y498356*
X2424914Y498669*
X2424686Y498356*
X2424914Y496169D02*
Y491794D01*
X2427868Y498356D02*
Y493044D01*
X2428095Y492106*
X2428550Y491794*
X2429005*
X2427186Y496169D02*
X2428777D01*
X2431050Y494294D02*
X2433777D01*
Y494919*
X2433550Y495544*
X2433323Y495856*
X2432868Y496169*
X2432186*
X2431732Y495856*
X2431277Y495231*
X2431050Y494294*
Y493669*
X2431277Y492731*
X2431732Y492106*
X2432186Y491794*
X2432868*
X2433323Y492106*
X2433777Y492731*
X2444005Y498356D02*
X2441732D01*
X2441505Y495544*
X2441732Y495856*
X2442414Y496169*
X2443095*
X2443777Y495856*
X2444232Y495231*
X2444459Y494294*
X2444232Y493669*
X2444005Y492731*
X2443550Y492106*
X2442868Y491794*
X2442186*
X2441505Y492106*
X2441277Y492419*
X2441050Y493044*
X2447868Y498356D02*
X2447186Y498044D01*
X2446732Y497106*
X2446505Y495544*
Y494606*
X2446732Y493044*
X2447186Y492106*
X2447868Y491794*
X2448323*
X2449005Y492106*
X2449459Y493044*
X2449686Y494606*
Y495544*
X2449459Y497106*
X2449005Y498044*
X2448323Y498356*
X2447868*
X2453095D02*
X2452414Y498044D01*
X2451959Y497106*
X2451732Y495544*
Y494606*
X2451959Y493044*
X2452414Y492106*
X2453095Y491794*
X2453550*
X2454232Y492106*
X2454686Y493044*
X2454914Y494606*
Y495544*
X2454686Y497106*
X2454232Y498044*
X2453550Y498356*
X2453095*
X2350823Y485856D02*
X2349005Y479294D01*
X2350823Y485856D02*
X2352641Y479294D01*
X2349686Y481481D02*
X2351959D01*
X2354686Y483669D02*
Y480544D01*
X2354914Y479606*
X2355368Y479294*
X2356050*
X2356505Y479606*
X2357186Y480544*
Y483669D02*
Y479294D01*
X2361732Y482731D02*
X2361505Y483356D01*
X2360823Y483669*
X2360141*
X2359459Y483356*
X2359232Y482731*
X2359459Y482106*
X2359914Y481794*
X2361050Y481481*
X2361505Y481169*
X2361732Y480544*
Y480231*
X2361505Y479606*
X2360823Y479294*
X2360141*
X2359459Y479606*
X2359232Y480231*
X2364459Y485856D02*
Y480544D01*
X2364686Y479606*
X2365141Y479294*
X2365595*
X2363777Y483669D02*
X2365368D01*
X2367641Y485856D02*
X2367868Y485544D01*
X2368095Y485856*
X2367868Y486169*
X2367641Y485856*
X2367868Y483669D02*
Y479294D01*
X2370141Y483669D02*
Y479294D01*
Y482419D02*
X2370823Y483356D01*
X2371277Y483669*
X2371959*
X2372414Y483356*
X2372641Y482419*
Y479294*
X2375141Y479606D02*
X2374914Y479294D01*
X2374686Y479606*
X2374914Y479919*
X2375141Y479606*
Y478981*
X2374914Y478356*
X2374686Y478044*
X2384005Y485856D02*
Y479294D01*
X2382414Y485856D02*
X2385595D01*
X2387641D02*
X2390823Y479294D01*
Y485856D02*
X2387641Y479294D01*
X2401277Y485856D02*
X2399005Y479294D01*
X2398095Y485856D02*
X2401277D01*
X2404459D02*
X2403777Y485544D01*
X2403550Y484919*
Y484294*
X2403777Y483669*
X2404232Y483356*
X2405141Y483044*
X2405823Y482731*
X2406277Y482106*
X2406505Y481481*
Y480544*
X2406277Y479919*
X2406050Y479606*
X2405368Y479294*
X2404459*
X2403777Y479606*
X2403550Y479919*
X2403323Y480544*
Y481481*
X2403550Y482106*
X2404005Y482731*
X2404686Y483044*
X2405595Y483356*
X2406050Y483669*
X2406277Y484294*
Y484919*
X2406050Y485544*
X2405368Y485856*
X2404459*
X2411732D02*
X2409459Y479294D01*
X2408550Y485856D02*
X2411732D01*
X2416732D02*
X2414459D01*
X2414232Y483044*
X2414459Y483356*
X2415141Y483669*
X2415823*
X2416505Y483356*
X2416959Y482731*
X2417186Y481794*
X2416959Y481169*
X2416732Y480231*
X2416277Y479606*
X2415595Y479294*
X2414914*
X2414232Y479606*
X2414005Y479919*
X2413777Y480544*
X2422186Y483669D02*
X2421959Y482731D01*
X2421505Y482106*
X2420823Y481794*
X2420595*
X2419914Y482106*
X2419459Y482731*
X2419232Y483669*
Y483981*
X2419459Y484919*
X2419914Y485544*
X2420595Y485856*
X2420823*
X2421505Y485544*
X2421959Y484919*
X2422186Y483669*
Y482106*
X2421959Y480544*
X2421505Y479606*
X2420823Y479294*
X2420368*
X2419686Y479606*
X2419459Y480231*
X2327641Y509606D02*
X2328095Y509919D01*
X2328777Y510856*
Y504294*
X2330823Y509606D02*
X2331277Y509919D01*
X2331959Y510856*
Y504294*
X2335368Y510856D02*
X2334686Y510544D01*
X2334232Y509606*
X2334005Y508044*
Y507106*
X2334232Y505544*
X2334686Y504606*
X2335368Y504294*
X2335823*
X2336505Y504606*
X2336959Y505544*
X2337186Y507106*
Y508044*
X2336959Y509606*
X2336505Y510544*
X2335823Y510856*
X2335368*
X2340595D02*
X2339914Y510544D01*
X2339459Y509606*
X2339232Y508044*
Y507106*
X2339459Y505544*
X2339914Y504606*
X2340595Y504294*
X2341050*
X2341732Y504606*
X2342186Y505544*
X2342414Y507106*
Y508044*
X2342186Y509606*
X2341732Y510544*
X2341050Y510856*
X2340595*
X2345823D02*
X2345141Y510544D01*
X2344686Y509606*
X2344459Y508044*
Y507106*
X2344686Y505544*
X2345141Y504606*
X2345823Y504294*
X2346277*
X2346959Y504606*
X2347414Y505544*
X2347641Y507106*
Y508044*
X2347414Y509606*
X2346959Y510544*
X2346277Y510856*
X2345823*
X2354914D02*
Y504294D01*
Y510856D02*
X2358095Y504294D01*
Y510856D02*
Y504294D01*
X2360368Y504919D02*
X2360141Y504606D01*
X2360368Y504294*
X2360595Y504606*
X2360368Y504919*
X2367868Y510856D02*
Y504294D01*
Y510856D02*
X2369686Y504294D01*
X2371505Y510856D02*
X2369686Y504294D01*
X2371505Y510856D02*
Y504294D01*
X2374686Y508669D02*
X2374232Y508356D01*
X2373777Y507731*
X2373550Y506794*
Y506169*
X2373777Y505231*
X2374232Y504606*
X2374686Y504294*
X2375368*
X2375823Y504606*
X2376277Y505231*
X2376505Y506169*
Y506794*
X2376277Y507731*
X2375823Y508356*
X2375368Y508669*
X2374686*
X2378550D02*
Y502106D01*
Y507731D02*
X2379005Y508356D01*
X2379459Y508669*
X2380141*
X2380595Y508356*
X2381050Y507731*
X2381277Y506794*
Y506169*
X2381050Y505231*
X2380595Y504606*
X2380141Y504294*
X2379459*
X2379005Y504606*
X2378550Y505231*
X2386050Y508669D02*
Y504294D01*
Y507731D02*
X2385595Y508356D01*
X2385141Y508669*
X2384459*
X2384005Y508356*
X2383550Y507731*
X2383323Y506794*
Y506169*
X2383550Y505231*
X2384005Y504606*
X2384459Y504294*
X2385141*
X2385595Y504606*
X2386050Y505231*
X2390823Y507731D02*
X2390368Y508356D01*
X2389914Y508669*
X2389232*
X2388777Y508356*
X2388323Y507731*
X2388095Y506794*
Y506169*
X2388323Y505231*
X2388777Y504606*
X2389232Y504294*
X2389914*
X2390368Y504606*
X2390823Y505231*
X2398095Y510856D02*
Y504294D01*
Y510856D02*
X2401050D01*
X2398095Y507731D02*
X2399914D01*
X2398095Y504294D02*
X2401050D01*
X2403095Y508669D02*
X2405595Y504294D01*
Y508669D02*
X2403095Y504294D01*
X2407641Y508669D02*
Y502106D01*
Y507731D02*
X2408095Y508356D01*
X2408550Y508669*
X2409232*
X2409686Y508356*
X2410141Y507731*
X2410368Y506794*
Y506169*
X2410141Y505231*
X2409686Y504606*
X2409232Y504294*
X2408550*
X2408095Y504606*
X2407641Y505231*
X2412414Y508669D02*
Y504294D01*
Y506794D02*
X2412641Y507731D01*
X2413095Y508356*
X2413550Y508669*
X2414232*
X2416277Y506794D02*
X2419005D01*
Y507419*
X2418777Y508044*
X2418550Y508356*
X2418095Y508669*
X2417414*
X2416959Y508356*
X2416505Y507731*
X2416277Y506794*
Y506169*
X2416505Y505231*
X2416959Y504606*
X2417414Y504294*
X2418095*
X2418550Y504606*
X2419005Y505231*
X2423550Y507731D02*
X2423323Y508356D01*
X2422641Y508669*
X2421959*
X2421277Y508356*
X2421050Y507731*
X2421277Y507106*
X2421732Y506794*
X2422868Y506481*
X2423323Y506169*
X2423550Y505544*
Y505231*
X2423323Y504606*
X2422641Y504294*
X2421959*
X2421277Y504606*
X2421050Y505231*
X2428095Y507731D02*
X2427868Y508356D01*
X2427186Y508669*
X2426505*
X2425823Y508356*
X2425595Y507731*
X2425823Y507106*
X2426277Y506794*
X2427414Y506481*
X2427868Y506169*
X2428095Y505544*
Y505231*
X2427868Y504606*
X2427186Y504294*
X2426505*
X2425823Y504606*
X2425595Y505231*
X2430141Y508669D02*
X2431050Y504294D01*
X2431959Y508669D02*
X2431050Y504294D01*
X2431959Y508669D02*
X2432868Y504294D01*
X2433777Y508669D02*
X2432868Y504294D01*
X2438550Y508669D02*
Y504294D01*
Y507731D02*
X2438095Y508356D01*
X2437641Y508669*
X2436959*
X2436505Y508356*
X2436050Y507731*
X2435823Y506794*
Y506169*
X2436050Y505231*
X2436505Y504606*
X2436959Y504294*
X2437641*
X2438095Y504606*
X2438550Y505231*
X2440823Y508669D02*
X2442186Y504294D01*
X2443550Y508669D02*
X2442186Y504294D01*
X2441732Y503044*
X2441277Y502419*
X2440823Y502106*
X2440595*
X1176411Y1955003D02*
X1183554D01*
X1179658Y1947860*
X1181606*
X1182904Y1946967*
X1183554Y1946074*
X1184203Y1943396*
Y1941610*
X1183554Y1938931*
X1182255Y1937146*
X1180307Y1936253*
X1178359*
X1176411Y1937146*
X1175762Y1938039*
X1175112Y1939824*
X2512249Y1312222D02*
X2511600Y1314007D01*
X2510301Y1315793*
X2509002Y1316686*
X2506405*
X2505106Y1315793*
X2503808Y1314007*
X2503158Y1312222*
X2502509Y1309543*
Y1305079*
X2503158Y1302400*
X2503808Y1300615*
X2505106Y1298829*
X2506405Y1297936*
X2509002*
X2510301Y1298829*
X2511600Y1300615*
X2512249Y1302400*
X2502033Y916686D02*
Y897936D01*
Y916686D02*
X2507877D01*
X2509825Y915793*
X2510474Y914900*
X2511124Y913115*
Y911329*
X2510474Y909543*
X2509825Y908650*
X2507877Y907757*
X2502033D02*
X2507877D01*
X2509825Y906865*
X2510474Y905972*
X2511124Y904186*
Y901507*
X2510474Y899722*
X2509825Y898829*
X2507877Y897936*
X2502033*
X2401495Y1862094D02*
X2401268Y1862719D01*
X2400814Y1863344*
X2400359Y1863656*
X2399450*
X2398995Y1863344*
X2398541Y1862719*
X2398314Y1862094*
X2398086Y1861156*
Y1859594*
X2398314Y1858656*
X2398541Y1858031*
X2398995Y1857406*
X2399450Y1857094*
X2400359*
X2400814Y1857406*
X2401268Y1858031*
X2401495Y1858656*
X2406268Y1861469D02*
Y1857094D01*
Y1860531D02*
X2405814Y1861156D01*
X2405359Y1861469*
X2404677*
X2404223Y1861156*
X2403768Y1860531*
X2403541Y1859594*
Y1858969*
X2403768Y1858031*
X2404223Y1857406*
X2404677Y1857094*
X2405359*
X2405814Y1857406*
X2406268Y1858031*
X2408314Y1861469D02*
Y1857094D01*
Y1859594D02*
X2408541Y1860531D01*
X2408995Y1861156*
X2409450Y1861469*
X2410132*
X2412177Y1863656D02*
Y1857094D01*
X2421723Y1863656D02*
Y1858656D01*
X2421495Y1857719*
X2421268Y1857406*
X2420814Y1857094*
X2420359*
X2419905Y1857406*
X2419677Y1857719*
X2419450Y1858656*
Y1859281*
X2424905Y1861469D02*
X2424450Y1861156D01*
X2423995Y1860531*
X2423768Y1859594*
Y1858969*
X2423995Y1858031*
X2424450Y1857406*
X2424905Y1857094*
X2425586*
X2426041Y1857406*
X2426495Y1858031*
X2426723Y1858969*
Y1859594*
X2426495Y1860531*
X2426041Y1861156*
X2425586Y1861469*
X2424905*
X2428768Y1863656D02*
Y1857094D01*
Y1860219D02*
X2429450Y1861156D01*
X2429905Y1861469*
X2430586*
X2431041Y1861156*
X2431268Y1860219*
Y1857094*
X2433314Y1861469D02*
Y1857094D01*
Y1860219D02*
X2433995Y1861156D01*
X2434450Y1861469*
X2435132*
X2435586Y1861156*
X2435814Y1860219*
Y1857094*
X2440359Y1860531D02*
X2440132Y1861156D01*
X2439450Y1861469*
X2438768*
X2438086Y1861156*
X2437859Y1860531*
X2438086Y1859906*
X2438541Y1859594*
X2439677Y1859281*
X2440132Y1858969*
X2440359Y1858344*
Y1858031*
X2440132Y1857406*
X2439450Y1857094*
X2438768*
X2438086Y1857406*
X2437859Y1858031*
X2443541Y1861469D02*
X2443086Y1861156D01*
X2442632Y1860531*
X2442405Y1859594*
Y1858969*
X2442632Y1858031*
X2443086Y1857406*
X2443541Y1857094*
X2444223*
X2444677Y1857406*
X2445132Y1858031*
X2445359Y1858969*
Y1859594*
X2445132Y1860531*
X2444677Y1861156*
X2444223Y1861469*
X2443541*
X2447405D02*
Y1857094D01*
Y1860219D02*
X2448086Y1861156D01*
X2448541Y1861469*
X2449223*
X2449677Y1861156*
X2449905Y1860219*
Y1857094*
X432086Y1890246D02*
Y1880871D01*
Y1890246D02*
X435008D01*
X435983Y1889799*
X436307Y1889353*
X436632Y1888460*
Y1887121*
X436307Y1886228*
X435983Y1885781*
X435008Y1885335*
X432086*
X439554Y1890246D02*
Y1880871D01*
Y1890246D02*
X442476D01*
X443450Y1889799*
X443775Y1889353*
X444099Y1888460*
Y1887567*
X443775Y1886674*
X443450Y1886228*
X442476Y1885781*
X439554*
X441827D02*
X444099Y1880871D01*
X448970Y1890246D02*
X448320Y1889799D01*
X447671Y1888906*
X447346Y1888013*
X447021Y1886674*
Y1884442*
X447346Y1883103*
X447671Y1882210*
X448320Y1881317*
X448970Y1880871*
X450268*
X450918Y1881317*
X451567Y1882210*
X451892Y1883103*
X452216Y1884442*
Y1886674*
X451892Y1888013*
X451567Y1888906*
X450918Y1889799*
X450268Y1890246*
X448970*
X455138D02*
Y1880871D01*
Y1890246D02*
X458060D01*
X459034Y1889799*
X459359Y1889353*
X459684Y1888460*
Y1887121*
X459359Y1886228*
X459034Y1885781*
X458060Y1885335*
X455138*
X462606Y1890246D02*
Y1880871D01*
Y1890246D02*
X465528D01*
X466502Y1889799*
X466827Y1889353*
X467151Y1888460*
Y1887567*
X466827Y1886674*
X466502Y1886228*
X465528Y1885781*
X462606*
X464879D02*
X467151Y1880871D01*
X470073Y1890246D02*
Y1880871D01*
X472995Y1890246D02*
Y1880871D01*
Y1890246D02*
X477216D01*
X472995Y1885781D02*
X475593D01*
X472995Y1880871D02*
X477216D01*
X482411Y1890246D02*
Y1880871D01*
X480138Y1890246D02*
X484684D01*
X490203D02*
X487606Y1880871D01*
X490203Y1890246D02*
X492801Y1880871D01*
X488580Y1883996D02*
X491827D01*
X495723Y1890246D02*
Y1880871D01*
Y1890246D02*
X498645D01*
X499619Y1889799*
X499944Y1889353*
X500268Y1888460*
Y1887567*
X499944Y1886674*
X499619Y1886228*
X498645Y1885781*
X495723*
X497995D02*
X500268Y1880871D01*
X503190Y1890246D02*
X505788Y1885781D01*
Y1880871*
X508385Y1890246D02*
X505788Y1885781D01*
X518775Y1890246D02*
Y1880871D01*
Y1890246D02*
X523320Y1880871D01*
Y1890246D02*
Y1880871D01*
X528190Y1890246D02*
X527541Y1889799D01*
X526892Y1888906*
X526567Y1888013*
X526242Y1886674*
Y1884442*
X526567Y1883103*
X526892Y1882210*
X527541Y1881317*
X528190Y1880871*
X529489*
X530138Y1881317*
X530788Y1882210*
X531112Y1883103*
X531437Y1884442*
Y1886674*
X531112Y1888013*
X530788Y1888906*
X530138Y1889799*
X529489Y1890246*
X528190*
X536632D02*
Y1880871D01*
X534359Y1890246D02*
X538905D01*
X541827D02*
Y1880871D01*
X549619Y1888013D02*
X549294Y1888906D01*
X548645Y1889799*
X547995Y1890246*
X546697*
X546047Y1889799*
X545398Y1888906*
X545073Y1888013*
X544749Y1886674*
Y1884442*
X545073Y1883103*
X545398Y1882210*
X546047Y1881317*
X546697Y1880871*
X547995*
X548645Y1881317*
X549294Y1882210*
X549619Y1883103*
X552541Y1890246D02*
Y1880871D01*
Y1890246D02*
X556762D01*
X552541Y1885781D02*
X555138D01*
X552541Y1880871D02*
X556762D01*
X560008Y1887121D02*
X559684Y1886674D01*
X560008Y1886228*
X560333Y1886674*
X560008Y1887121*
Y1881763D02*
X559684Y1881317D01*
X560008Y1880871*
X560333Y1881317*
X560008Y1881763*
X580463Y1890246D02*
Y1880871D01*
X578190Y1890246D02*
X582736D01*
X585658D02*
Y1880871D01*
Y1885335D02*
X586632Y1886674D01*
X587281Y1887121*
X588255*
X588905Y1886674*
X589229Y1885335*
Y1880871*
X592151Y1884442D02*
X596047D01*
Y1885335*
X595723Y1886228*
X595398Y1886674*
X594749Y1887121*
X593775*
X593125Y1886674*
X592476Y1885781*
X592151Y1884442*
Y1883549*
X592476Y1882210*
X593125Y1881317*
X593775Y1880871*
X594749*
X595398Y1881317*
X596047Y1882210*
X606437Y1890246D02*
X606762Y1889799D01*
X607086Y1890246*
X606762Y1890692*
X606437Y1890246*
X606762Y1887121D02*
Y1880871D01*
X610008Y1887121D02*
Y1880871D01*
Y1885335D02*
X610982Y1886674D01*
X611632Y1887121*
X612606*
X613255Y1886674*
X613580Y1885335*
Y1880871*
X619099Y1890246D02*
X618450D01*
X617801Y1889799*
X617476Y1888460*
Y1880871*
X616502Y1887121D02*
X618775D01*
X623645D02*
X622995Y1886674D01*
X622346Y1885781*
X622021Y1884442*
Y1883549*
X622346Y1882210*
X622995Y1881317*
X623645Y1880871*
X624619*
X625268Y1881317*
X625917Y1882210*
X626242Y1883549*
Y1884442*
X625917Y1885781*
X625268Y1886674*
X624619Y1887121*
X623645*
X629164D02*
Y1880871D01*
Y1884442D02*
X629489Y1885781D01*
X630138Y1886674*
X630788Y1887121*
X631762*
X634684D02*
Y1880871D01*
Y1885335D02*
X635658Y1886674D01*
X636307Y1887121*
X637281*
X637930Y1886674*
X638255Y1885335*
Y1880871*
Y1885335D02*
X639229Y1886674D01*
X639879Y1887121*
X640853*
X641502Y1886674*
X641827Y1885335*
Y1880871*
X648645Y1887121D02*
Y1880871D01*
Y1885781D02*
X647995Y1886674D01*
X647346Y1887121*
X646372*
X645723Y1886674*
X645073Y1885781*
X644749Y1884442*
Y1883549*
X645073Y1882210*
X645723Y1881317*
X646372Y1880871*
X647346*
X647995Y1881317*
X648645Y1882210*
X652541Y1890246D02*
Y1882656D01*
X652866Y1881317*
X653515Y1880871*
X654164*
X651567Y1887121D02*
X653840D01*
X657086Y1890246D02*
X657411Y1889799D01*
X657736Y1890246*
X657411Y1890692*
X657086Y1890246*
X657411Y1887121D02*
Y1880871D01*
X662281Y1887121D02*
X661632Y1886674D01*
X660982Y1885781*
X660658Y1884442*
Y1883549*
X660982Y1882210*
X661632Y1881317*
X662281Y1880871*
X663255*
X663904Y1881317*
X664554Y1882210*
X664878Y1883549*
Y1884442*
X664554Y1885781*
X663904Y1886674*
X663255Y1887121*
X662281*
X667801D02*
Y1880871D01*
Y1885335D02*
X668775Y1886674D01*
X669424Y1887121*
X670398*
X671047Y1886674*
X671372Y1885335*
Y1880871*
X435983Y1868281D02*
X435333Y1869174D01*
X434684Y1869621*
X433710*
X433060Y1869174*
X432411Y1868281*
X432086Y1866942*
Y1866049*
X432411Y1864710*
X433060Y1863817*
X433710Y1863371*
X434684*
X435333Y1863817*
X435983Y1864710*
X440528Y1869621D02*
X439879Y1869174D01*
X439229Y1868281*
X438905Y1866942*
Y1866049*
X439229Y1864710*
X439879Y1863817*
X440528Y1863371*
X441502*
X442151Y1863817*
X442801Y1864710*
X443125Y1866049*
Y1866942*
X442801Y1868281*
X442151Y1869174*
X441502Y1869621*
X440528*
X446047D02*
Y1863371D01*
Y1867835D02*
X447021Y1869174D01*
X447671Y1869621*
X448645*
X449294Y1869174*
X449619Y1867835*
Y1863371*
X453515Y1872746D02*
Y1865156D01*
X453840Y1863817*
X454489Y1863371*
X455138*
X452541Y1869621D02*
X454814D01*
X461957D02*
Y1863371D01*
Y1868281D02*
X461307Y1869174D01*
X460658Y1869621*
X459684*
X459034Y1869174*
X458385Y1868281*
X458060Y1866942*
Y1866049*
X458385Y1864710*
X459034Y1863817*
X459684Y1863371*
X460658*
X461307Y1863817*
X461957Y1864710*
X464879Y1872746D02*
X465203Y1872299D01*
X465528Y1872746*
X465203Y1873192*
X464879Y1872746*
X465203Y1869621D02*
Y1863371D01*
X468450Y1869621D02*
Y1863371D01*
Y1867835D02*
X469424Y1869174D01*
X470073Y1869621*
X471047*
X471697Y1869174*
X472021Y1867835*
Y1863371*
X474944Y1866942D02*
X478840D01*
Y1867835*
X478515Y1868728*
X478190Y1869174*
X477541Y1869621*
X476567*
X475918Y1869174*
X475268Y1868281*
X474944Y1866942*
Y1866049*
X475268Y1864710*
X475918Y1863817*
X476567Y1863371*
X477541*
X478190Y1863817*
X478840Y1864710*
X485658Y1872746D02*
Y1863371D01*
Y1868281D02*
X485008Y1869174D01*
X484359Y1869621*
X483385*
X482736Y1869174*
X482086Y1868281*
X481762Y1866942*
Y1866049*
X482086Y1864710*
X482736Y1863817*
X483385Y1863371*
X484359*
X485008Y1863817*
X485658Y1864710*
X496047Y1872746D02*
Y1863371D01*
Y1867835D02*
X497021Y1869174D01*
X497671Y1869621*
X498645*
X499294Y1869174*
X499619Y1867835*
Y1863371*
X502541Y1866942D02*
X506437D01*
Y1867835*
X506112Y1868728*
X505788Y1869174*
X505138Y1869621*
X504164*
X503515Y1869174*
X502866Y1868281*
X502541Y1866942*
Y1866049*
X502866Y1864710*
X503515Y1863817*
X504164Y1863371*
X505138*
X505788Y1863817*
X506437Y1864710*
X509359Y1869621D02*
Y1863371D01*
Y1866942D02*
X509684Y1868281D01*
X510333Y1869174*
X510982Y1869621*
X511957*
X514879Y1866942D02*
X518775D01*
Y1867835*
X518450Y1868728*
X518125Y1869174*
X517476Y1869621*
X516502*
X515853Y1869174*
X515203Y1868281*
X514879Y1866942*
Y1866049*
X515203Y1864710*
X515853Y1863817*
X516502Y1863371*
X517476*
X518125Y1863817*
X518775Y1864710*
X521697Y1872746D02*
X522021Y1872299D01*
X522346Y1872746*
X522021Y1873192*
X521697Y1872746*
X522021Y1869621D02*
Y1863371D01*
X525268Y1869621D02*
Y1863371D01*
Y1867835D02*
X526242Y1869174D01*
X526892Y1869621*
X527866*
X528515Y1869174*
X528840Y1867835*
Y1863371*
X539229Y1872746D02*
X539554Y1872299D01*
X539879Y1872746*
X539554Y1873192*
X539229Y1872746*
X539554Y1869621D02*
Y1863371D01*
X546372Y1868281D02*
X546047Y1869174D01*
X545073Y1869621*
X544099*
X543125Y1869174*
X542801Y1868281*
X543125Y1867388*
X543775Y1866942*
X545398Y1866496*
X546047Y1866049*
X546372Y1865156*
Y1864710*
X546047Y1863817*
X545073Y1863371*
X544099*
X543125Y1863817*
X542801Y1864710*
X556762Y1869621D02*
Y1860246D01*
Y1868281D02*
X557411Y1869174D01*
X558060Y1869621*
X559034*
X559684Y1869174*
X560333Y1868281*
X560658Y1866942*
Y1866049*
X560333Y1864710*
X559684Y1863817*
X559034Y1863371*
X558060*
X557411Y1863817*
X556762Y1864710*
X563580Y1869621D02*
Y1863371D01*
Y1866942D02*
X563905Y1868281D01*
X564554Y1869174*
X565203Y1869621*
X566177*
X570723D02*
X570073Y1869174D01*
X569424Y1868281*
X569099Y1866942*
Y1866049*
X569424Y1864710*
X570073Y1863817*
X570723Y1863371*
X571697*
X572346Y1863817*
X572995Y1864710*
X573320Y1866049*
Y1866942*
X572995Y1868281*
X572346Y1869174*
X571697Y1869621*
X570723*
X576242D02*
Y1860246D01*
Y1868281D02*
X576892Y1869174D01*
X577541Y1869621*
X578515*
X579164Y1869174*
X579814Y1868281*
X580138Y1866942*
Y1866049*
X579814Y1864710*
X579164Y1863817*
X578515Y1863371*
X577541*
X576892Y1863817*
X576242Y1864710*
X583060Y1869621D02*
Y1863371D01*
Y1866942D02*
X583385Y1868281D01*
X584034Y1869174*
X584684Y1869621*
X585658*
X588580Y1872746D02*
X588905Y1872299D01*
X589229Y1872746*
X588905Y1873192*
X588580Y1872746*
X588905Y1869621D02*
Y1863371D01*
X592151Y1866942D02*
X596047D01*
Y1867835*
X595723Y1868728*
X595398Y1869174*
X594749Y1869621*
X593775*
X593125Y1869174*
X592476Y1868281*
X592151Y1866942*
Y1866049*
X592476Y1864710*
X593125Y1863817*
X593775Y1863371*
X594749*
X595398Y1863817*
X596047Y1864710*
X599943Y1872746D02*
Y1865156D01*
X600268Y1863817*
X600917Y1863371*
X601567*
X598969Y1869621D02*
X601242D01*
X608385D02*
Y1863371D01*
Y1868281D02*
X607736Y1869174D01*
X607086Y1869621*
X606112*
X605463Y1869174*
X604814Y1868281*
X604489Y1866942*
Y1866049*
X604814Y1864710*
X605463Y1863817*
X606112Y1863371*
X607086*
X607736Y1863817*
X608385Y1864710*
X611307Y1869621D02*
Y1863371D01*
Y1866942D02*
X611632Y1868281D01*
X612281Y1869174*
X612930Y1869621*
X613904*
X617151D02*
X619099Y1863371D01*
X621047Y1869621D02*
X619099Y1863371D01*
X618450Y1861585*
X617801Y1860692*
X617151Y1860246*
X616827*
X635333Y1869621D02*
Y1863371D01*
Y1868281D02*
X634684Y1869174D01*
X634034Y1869621*
X633060*
X632411Y1869174*
X631762Y1868281*
X631437Y1866942*
Y1866049*
X631762Y1864710*
X632411Y1863817*
X633060Y1863371*
X634034*
X634684Y1863817*
X635333Y1864710*
X638255Y1869621D02*
Y1863371D01*
Y1867835D02*
X639229Y1869174D01*
X639879Y1869621*
X640853*
X641502Y1869174*
X641827Y1867835*
Y1863371*
X648645Y1872746D02*
Y1863371D01*
Y1868281D02*
X647995Y1869174D01*
X647346Y1869621*
X646372*
X645723Y1869174*
X645073Y1868281*
X644749Y1866942*
Y1866049*
X645073Y1864710*
X645723Y1863817*
X646372Y1863371*
X647346*
X647995Y1863817*
X648645Y1864710*
X659034Y1869621D02*
Y1863371D01*
Y1867835D02*
X660008Y1869174D01*
X660658Y1869621*
X661632*
X662281Y1869174*
X662606Y1867835*
Y1863371*
Y1867835D02*
X663580Y1869174D01*
X664229Y1869621*
X665203*
X665853Y1869174*
X666177Y1867835*
Y1863371*
X672995Y1869621D02*
Y1863371D01*
Y1868281D02*
X672346Y1869174D01*
X671697Y1869621*
X670723*
X670073Y1869174*
X669424Y1868281*
X669099Y1866942*
Y1866049*
X669424Y1864710*
X670073Y1863817*
X670723Y1863371*
X671697*
X672346Y1863817*
X672995Y1864710*
X676242Y1869621D02*
X678190Y1863371D01*
X680138Y1869621D02*
X678190Y1863371D01*
X677541Y1861585*
X676891Y1860692*
X676242Y1860246*
X675917*
X432086Y1852121D02*
Y1845871D01*
Y1850335D02*
X433060Y1851674D01*
X433710Y1852121*
X434684*
X435333Y1851674*
X435658Y1850335*
Y1845871*
X440203Y1852121D02*
X439554Y1851674D01*
X438905Y1850781*
X438580Y1849442*
Y1848549*
X438905Y1847210*
X439554Y1846317*
X440203Y1845871*
X441177*
X441827Y1846317*
X442476Y1847210*
X442801Y1848549*
Y1849442*
X442476Y1850781*
X441827Y1851674*
X441177Y1852121*
X440203*
X446697Y1855246D02*
Y1847656D01*
X447021Y1846317*
X447671Y1845871*
X448320*
X445723Y1852121D02*
X447995D01*
X458710Y1855246D02*
Y1845871D01*
Y1850781D02*
X459359Y1851674D01*
X460008Y1852121*
X460983*
X461632Y1851674*
X462281Y1850781*
X462606Y1849442*
Y1848549*
X462281Y1847210*
X461632Y1846317*
X460983Y1845871*
X460008*
X459359Y1846317*
X458710Y1847210*
X465528Y1849442D02*
X469424D01*
Y1850335*
X469099Y1851228*
X468775Y1851674*
X468125Y1852121*
X467151*
X466502Y1851674*
X465853Y1850781*
X465528Y1849442*
Y1848549*
X465853Y1847210*
X466502Y1846317*
X467151Y1845871*
X468125*
X468775Y1846317*
X469424Y1847210*
X479814Y1852121D02*
Y1847656D01*
X480138Y1846317*
X480788Y1845871*
X481762*
X482411Y1846317*
X483385Y1847656*
Y1852121D02*
Y1845871D01*
X489879Y1850781D02*
X489554Y1851674D01*
X488580Y1852121*
X487606*
X486632Y1851674*
X486307Y1850781*
X486632Y1849888*
X487281Y1849442*
X488905Y1848996*
X489554Y1848549*
X489879Y1847656*
Y1847210*
X489554Y1846317*
X488580Y1845871*
X487606*
X486632Y1846317*
X486307Y1847210*
X492801Y1849442D02*
X496697D01*
Y1850335*
X496372Y1851228*
X496047Y1851674*
X495398Y1852121*
X494424*
X493775Y1851674*
X493125Y1850781*
X492801Y1849442*
Y1848549*
X493125Y1847210*
X493775Y1846317*
X494424Y1845871*
X495398*
X496047Y1846317*
X496697Y1847210*
X503515Y1855246D02*
Y1845871D01*
Y1850781D02*
X502866Y1851674D01*
X502216Y1852121*
X501242*
X500593Y1851674*
X499944Y1850781*
X499619Y1849442*
Y1848549*
X499944Y1847210*
X500593Y1846317*
X501242Y1845871*
X502216*
X502866Y1846317*
X503515Y1847210*
X515528Y1852121D02*
X514879Y1851674D01*
X514229Y1850781*
X513905Y1849442*
Y1848549*
X514229Y1847210*
X514879Y1846317*
X515528Y1845871*
X516502*
X517151Y1846317*
X517801Y1847210*
X518125Y1848549*
Y1849442*
X517801Y1850781*
X517151Y1851674*
X516502Y1852121*
X515528*
X521047D02*
Y1845871D01*
Y1849442D02*
X521372Y1850781D01*
X522021Y1851674*
X522671Y1852121*
X523645*
X537931Y1855246D02*
Y1845871D01*
Y1850781D02*
X537281Y1851674D01*
X536632Y1852121*
X535658*
X535008Y1851674*
X534359Y1850781*
X534034Y1849442*
Y1848549*
X534359Y1847210*
X535008Y1846317*
X535658Y1845871*
X536632*
X537281Y1846317*
X537931Y1847210*
X540853Y1855246D02*
X541177Y1854799D01*
X541502Y1855246*
X541177Y1855692*
X540853Y1855246*
X541177Y1852121D02*
Y1845871D01*
X547995Y1850781D02*
X547671Y1851674D01*
X546697Y1852121*
X545723*
X544749Y1851674*
X544424Y1850781*
X544749Y1849888*
X545398Y1849442*
X547021Y1848996*
X547671Y1848549*
X547995Y1847656*
Y1847210*
X547671Y1846317*
X546697Y1845871*
X545723*
X544749Y1846317*
X544424Y1847210*
X554814Y1850781D02*
X554164Y1851674D01*
X553515Y1852121*
X552541*
X551892Y1851674*
X551242Y1850781*
X550918Y1849442*
Y1848549*
X551242Y1847210*
X551892Y1846317*
X552541Y1845871*
X553515*
X554164Y1846317*
X554814Y1847210*
X557736Y1855246D02*
Y1845871D01*
X562281Y1852121D02*
X561632Y1851674D01*
X560982Y1850781*
X560658Y1849442*
Y1848549*
X560982Y1847210*
X561632Y1846317*
X562281Y1845871*
X563255*
X563905Y1846317*
X564554Y1847210*
X564879Y1848549*
Y1849442*
X564554Y1850781*
X563905Y1851674*
X563255Y1852121*
X562281*
X571372Y1850781D02*
X571047Y1851674D01*
X570073Y1852121*
X569099*
X568125Y1851674*
X567801Y1850781*
X568125Y1849888*
X568775Y1849442*
X570398Y1848996*
X571047Y1848549*
X571372Y1847656*
Y1847210*
X571047Y1846317*
X570073Y1845871*
X569099*
X568125Y1846317*
X567801Y1847210*
X574294Y1849442D02*
X578190D01*
Y1850335*
X577866Y1851228*
X577541Y1851674*
X576892Y1852121*
X575918*
X575268Y1851674*
X574619Y1850781*
X574294Y1849442*
Y1848549*
X574619Y1847210*
X575268Y1846317*
X575918Y1845871*
X576892*
X577541Y1846317*
X578190Y1847210*
X585008Y1855246D02*
Y1845871D01*
Y1850781D02*
X584359Y1851674D01*
X583710Y1852121*
X582736*
X582086Y1851674*
X581437Y1850781*
X581112Y1849442*
Y1848549*
X581437Y1847210*
X582086Y1846317*
X582736Y1845871*
X583710*
X584359Y1846317*
X585008Y1847210*
X595398Y1855246D02*
X595723Y1854799D01*
X596047Y1855246*
X595723Y1855692*
X595398Y1855246*
X595723Y1852121D02*
Y1845871D01*
X598969Y1852121D02*
Y1845871D01*
Y1850335D02*
X599943Y1851674D01*
X600593Y1852121*
X601567*
X602216Y1851674*
X602541Y1850335*
Y1845871*
X616827Y1852121D02*
Y1845871D01*
Y1850781D02*
X616177Y1851674D01*
X615528Y1852121*
X614554*
X613904Y1851674*
X613255Y1850781*
X612930Y1849442*
Y1848549*
X613255Y1847210*
X613904Y1846317*
X614554Y1845871*
X615528*
X616177Y1846317*
X616827Y1847210*
X619749Y1852121D02*
Y1845871D01*
Y1850335D02*
X620723Y1851674D01*
X621372Y1852121*
X622346*
X622995Y1851674*
X623320Y1850335*
Y1845871*
X626567Y1852121D02*
X628515Y1845871D01*
X630463Y1852121D02*
X628515Y1845871D01*
X627866Y1844085*
X627216Y1843192*
X626567Y1842746*
X626242*
X640853Y1852121D02*
X642151Y1845871D01*
X643450Y1852121D02*
X642151Y1845871D01*
X643450Y1852121D02*
X644749Y1845871D01*
X646047Y1852121D02*
X644749Y1845871D01*
X652866Y1852121D02*
Y1845871D01*
Y1850781D02*
X652216Y1851674D01*
X651567Y1852121*
X650593*
X649943Y1851674*
X649294Y1850781*
X648969Y1849442*
Y1848549*
X649294Y1847210*
X649943Y1846317*
X650593Y1845871*
X651567*
X652216Y1846317*
X652866Y1847210*
X656112Y1852121D02*
X658060Y1845871D01*
X660008Y1852121D02*
X658060Y1845871D01*
X657411Y1844085*
X656762Y1843192*
X656112Y1842746*
X655788*
X432086Y1834621D02*
X433385Y1828371D01*
X434684Y1834621D02*
X433385Y1828371D01*
X434684Y1834621D02*
X435983Y1828371D01*
X437281Y1834621D02*
X435983Y1828371D01*
X440203Y1837746D02*
X440528Y1837299D01*
X440853Y1837746*
X440528Y1838192*
X440203Y1837746*
X440528Y1834621D02*
Y1828371D01*
X444749Y1837746D02*
Y1830156D01*
X445073Y1828817*
X445723Y1828371*
X446372*
X443775Y1834621D02*
X446047D01*
X449294Y1837746D02*
Y1828371D01*
Y1832835D02*
X450268Y1834174D01*
X450918Y1834621*
X451892*
X452541Y1834174*
X452866Y1832835*
Y1828371*
X457411Y1834621D02*
X456762Y1834174D01*
X456112Y1833281*
X455788Y1831942*
Y1831049*
X456112Y1829710*
X456762Y1828817*
X457411Y1828371*
X458385*
X459034Y1828817*
X459684Y1829710*
X460008Y1831049*
Y1831942*
X459684Y1833281*
X459034Y1834174*
X458385Y1834621*
X457411*
X462931D02*
Y1830156D01*
X463255Y1828817*
X463905Y1828371*
X464879*
X465528Y1828817*
X466502Y1830156*
Y1834621D02*
Y1828371D01*
X470398Y1837746D02*
Y1830156D01*
X470723Y1828817*
X471372Y1828371*
X472021*
X469424Y1834621D02*
X471697D01*
X483385Y1837746D02*
Y1830156D01*
X483710Y1828817*
X484359Y1828371*
X485008*
X482411Y1834621D02*
X484684D01*
X487931Y1837746D02*
Y1828371D01*
Y1832835D02*
X488905Y1834174D01*
X489554Y1834621*
X490528*
X491177Y1834174*
X491502Y1832835*
Y1828371*
X494424Y1831942D02*
X498320D01*
Y1832835*
X497995Y1833728*
X497671Y1834174*
X497021Y1834621*
X496047*
X495398Y1834174*
X494749Y1833281*
X494424Y1831942*
Y1831049*
X494749Y1829710*
X495398Y1828817*
X496047Y1828371*
X497021*
X497671Y1828817*
X498320Y1829710*
X508710Y1831942D02*
X512606D01*
Y1832835*
X512281Y1833728*
X511957Y1834174*
X511957D02*
X511307Y1834621D01*
X510333*
X509684Y1834174*
X509034Y1833281*
X508710Y1831942*
Y1831049*
X509034Y1829710*
X509684Y1828817*
X510333Y1828371*
X511307*
X511957Y1828817*
X511957D02*
X512606Y1829710D01*
X515528Y1834621D02*
X519099Y1828371D01*
Y1834621D02*
X515528Y1828371D01*
X522021Y1834621D02*
Y1825246D01*
Y1833281D02*
X522671Y1834174D01*
X523320Y1834621*
X524294*
X524944Y1834174*
X525593Y1833281*
X525918Y1831942*
Y1831049*
X525593Y1829710*
X524944Y1828817*
X524294Y1828371*
X523320*
X522671Y1828817*
X522021Y1829710*
X528840Y1834621D02*
Y1828371D01*
Y1831942D02*
X529164Y1833281D01*
X529814Y1834174*
X530463Y1834621*
X531437*
X534359Y1831942D02*
X538255D01*
Y1832835*
X537931Y1833728*
X537606Y1834174*
X536956Y1834621*
X535982*
X535333Y1834174*
X534684Y1833281*
X534359Y1831942*
Y1831049*
X534684Y1829710*
X535333Y1828817*
X535982Y1828371*
X536956*
X537606Y1828817*
X538255Y1829710*
X544749Y1833281D02*
X544424Y1834174D01*
X543450Y1834621*
X542476*
X541502Y1834174*
X541177Y1833281*
X541502Y1832388*
X542151Y1831942*
X543775Y1831496*
X544424Y1831049*
X544749Y1830156*
Y1829710*
X544424Y1828817*
X543450Y1828371*
X542476*
X541502Y1828817*
X541177Y1829710*
X551242Y1833281D02*
X550918Y1834174D01*
X549943Y1834621*
X548969*
X547995Y1834174*
X547671Y1833281*
X547995Y1832388*
X548645Y1831942*
X550268Y1831496*
X550918Y1831049*
X551242Y1830156*
Y1829710*
X550918Y1828817*
X549943Y1828371*
X548969*
X547995Y1828817*
X547671Y1829710*
X561632Y1834621D02*
X562930Y1828371D01*
X564229Y1834621D02*
X562930Y1828371D01*
X564229Y1834621D02*
X565528Y1828371D01*
X566827Y1834621D02*
X565528Y1828371D01*
X569749Y1834621D02*
Y1828371D01*
Y1831942D02*
X570073Y1833281D01*
X570723Y1834174*
X571372Y1834621*
X572346*
X575268Y1837746D02*
X575593Y1837299D01*
X575918Y1837746*
X575593Y1838192*
X575268Y1837746*
X575593Y1834621D02*
Y1828371D01*
X579814Y1837746D02*
Y1830156D01*
X580138Y1828817*
X580788Y1828371*
X581437*
X578840Y1834621D02*
X581112D01*
X585333Y1837746D02*
Y1830156D01*
X585658Y1828817*
X586307Y1828371*
X586956*
X584359Y1834621D02*
X586632D01*
X589879Y1831942D02*
X593775D01*
Y1832835*
X593450Y1833728*
X593125Y1834174*
X592476Y1834621*
X591502*
X590853Y1834174*
X590203Y1833281*
X589879Y1831942*
Y1831049*
X590203Y1829710*
X590853Y1828817*
X591502Y1828371*
X592476*
X593125Y1828817*
X593775Y1829710*
X596697Y1834621D02*
Y1828371D01*
Y1832835D02*
X597671Y1834174D01*
X598320Y1834621*
X599294*
X599943Y1834174*
X600268Y1832835*
Y1828371*
X610658Y1834621D02*
Y1825246D01*
Y1833281D02*
X611307Y1834174D01*
X611956Y1834621*
X612930*
X613580Y1834174*
X614229Y1833281*
X614554Y1831942*
Y1831049*
X614229Y1829710*
X613580Y1828817*
X612930Y1828371*
X611956*
X611307Y1828817*
X610658Y1829710*
X617476Y1831942D02*
X621372D01*
Y1832835*
X621047Y1833728*
X620723Y1834174*
X620073Y1834621*
X619099*
X618450Y1834174*
X617801Y1833281*
X617476Y1831942*
Y1831049*
X617801Y1829710*
X618450Y1828817*
X619099Y1828371*
X620073*
X620723Y1828817*
X621372Y1829710*
X624294Y1834621D02*
Y1828371D01*
Y1831942D02*
X624619Y1833281D01*
X625268Y1834174*
X625917Y1834621*
X626891*
X629814D02*
Y1828371D01*
Y1832835D02*
X630788Y1834174D01*
X631437Y1834621*
X632411*
X633060Y1834174*
X633385Y1832835*
Y1828371*
Y1832835D02*
X634359Y1834174D01*
X635008Y1834621*
X635982*
X636632Y1834174*
X636956Y1832835*
Y1828371*
X639879Y1837746D02*
X640203Y1837299D01*
X640528Y1837746*
X640203Y1838192*
X639879Y1837746*
X640203Y1834621D02*
Y1828371D01*
X647021Y1833281D02*
X646697Y1834174D01*
X645723Y1834621*
X644749*
X643775Y1834174*
X643450Y1833281*
X643775Y1832388*
X644424Y1831942*
X646047Y1831496*
X646697Y1831049*
X647021Y1830156*
Y1829710*
X646697Y1828817*
X645723Y1828371*
X644749*
X643775Y1828817*
X643450Y1829710*
X653515Y1833281D02*
X653190Y1834174D01*
X652216Y1834621*
X651242*
X650268Y1834174*
X649943Y1833281*
X650268Y1832388*
X650917Y1831942*
X652541Y1831496*
X653190Y1831049*
X653515Y1830156*
Y1829710*
X653190Y1828817*
X652216Y1828371*
X651242*
X650268Y1828817*
X649943Y1829710*
X656437Y1837746D02*
X656762Y1837299D01*
X657086Y1837746*
X656762Y1838192*
X656437Y1837746*
X656762Y1834621D02*
Y1828371D01*
X661632Y1834621D02*
X660982Y1834174D01*
X660333Y1833281*
X660008Y1831942*
Y1831049*
X660333Y1829710*
X660982Y1828817*
X661632Y1828371*
X662606*
X663255Y1828817*
X663904Y1829710*
X664229Y1831049*
Y1831942*
X663904Y1833281*
X663255Y1834174*
X662606Y1834621*
X661632*
X667151D02*
Y1828371D01*
Y1832835D02*
X668125Y1834174D01*
X668775Y1834621*
X669749*
X670398Y1834174*
X670723Y1832835*
Y1828371*
X682736Y1834621D02*
X682086Y1834174D01*
X681437Y1833281*
X681112Y1831942*
Y1831049*
X681437Y1829710*
X682086Y1828817*
X682736Y1828371*
X683710*
X684359Y1828817*
X685008Y1829710*
X685333Y1831049*
Y1831942*
X685008Y1833281*
X684359Y1834174*
X683710Y1834621*
X682736*
X690853Y1837746D02*
X690203D01*
X689554Y1837299*
X689229Y1835960*
Y1828371*
X688255Y1834621D02*
X690528D01*
X436632Y1818906D02*
X435983Y1819799D01*
X435009Y1820246*
X433710*
X432736Y1819799*
X432086Y1818906*
Y1818014*
X432411Y1817121*
X432736Y1816674*
X433385Y1816228*
X435333Y1815335*
X435983Y1814888*
X436307Y1814442*
X436632Y1813549*
Y1812210*
X435983Y1811317*
X435009Y1810871*
X433710*
X432736Y1811317*
X432086Y1812210*
X441827Y1820246D02*
Y1810871D01*
X439554Y1820246D02*
X444100D01*
X449619D02*
X447022Y1810871D01*
X449619Y1820246D02*
X452217Y1810871D01*
X447996Y1813996D02*
X451243D01*
X455139Y1820246D02*
Y1810871D01*
Y1820246D02*
X459684Y1810871D01*
Y1820246D02*
Y1810871D01*
X462607Y1820246D02*
Y1810871D01*
Y1820246D02*
X464879D01*
X465853Y1819799*
X466503Y1818906*
X466827Y1818014*
X467152Y1816674*
Y1814442*
X466827Y1813103*
X466503Y1812210*
X465853Y1811317*
X464879Y1810871*
X462607*
X472672Y1820246D02*
X470074Y1810871D01*
X472672Y1820246D02*
X475269Y1810871D01*
X471048Y1813996D02*
X474295D01*
X478191Y1820246D02*
Y1810871D01*
Y1820246D02*
X481113D01*
X482087Y1819799*
X482412Y1819353*
X482737Y1818460*
Y1817567*
X482412Y1816674*
X482087Y1816228*
X481113Y1815781*
X478191*
X480464D02*
X482737Y1810871D01*
X485659Y1820246D02*
Y1810871D01*
Y1820246D02*
X487932D01*
X488906Y1819799*
X489555Y1818906*
X489880Y1818014*
X490204Y1816674*
Y1814442*
X489880Y1813103*
X489555Y1812210*
X488906Y1811317*
X487932Y1810871*
X485659*
X500594Y1820246D02*
Y1810871D01*
Y1820246D02*
X503192Y1810871D01*
X505789Y1820246D02*
X503192Y1810871D01*
X505789Y1820246D02*
Y1810871D01*
X508711Y1820246D02*
Y1810871D01*
X516504Y1818014D02*
X516179Y1818906D01*
X515530Y1819799*
X514880Y1820246*
X513582*
X512932Y1819799*
X512283Y1818906*
X511958Y1818014*
X511633Y1816674*
Y1814442*
X511958Y1813103*
X512283Y1812210*
X512932Y1811317*
X513582Y1810871*
X514880*
X515530Y1811317*
X516179Y1812210*
X516504Y1813103*
X519426Y1820246D02*
Y1810871D01*
Y1820246D02*
X522348D01*
X523322Y1819799*
X523647Y1819353*
X523971Y1818460*
Y1817567*
X523647Y1816674*
X523322Y1816228*
X522348Y1815781*
X519426*
X521699D02*
X523971Y1810871D01*
X528842Y1820246D02*
X528192Y1819799D01*
X527543Y1818906*
X527218Y1818014*
X526894Y1816674*
Y1814442*
X527218Y1813103*
X527543Y1812210*
X528192Y1811317*
X528842Y1810871*
X530140*
X530790Y1811317*
X531439Y1812210*
X531764Y1813103*
X532088Y1814442*
Y1816674*
X531764Y1818014*
X531439Y1818906*
X530790Y1819799*
X530140Y1820246*
X528842*
X539556Y1818906D02*
X538907Y1819799D01*
X537933Y1820246*
X536634*
X535660Y1819799*
X535011Y1818906*
Y1818014*
X535335Y1817121*
X535660Y1816674*
X536309Y1816228*
X538257Y1815335*
X538907Y1814888*
X539231Y1814442*
X539556Y1813549*
Y1812210*
X538907Y1811317*
X537933Y1810871*
X536634*
X535660Y1811317*
X535011Y1812210*
X542478Y1820246D02*
X545076Y1815781D01*
Y1810871*
X547673Y1820246D02*
X545076Y1815781D01*
X555141Y1818906D02*
X554491Y1819799D01*
X553517Y1820246*
X552219*
X551245Y1819799*
X550595Y1818906*
Y1818014*
X550920Y1817121*
X551245Y1816674*
X551894Y1816228*
X553842Y1815335*
X554491Y1814888*
X554816Y1814442*
X555141Y1813549*
Y1812210*
X554491Y1811317*
X553517Y1810871*
X552219*
X551245Y1811317*
X550595Y1812210*
X560336Y1820246D02*
Y1810871D01*
X558063Y1820246D02*
X562609D01*
X565531D02*
Y1810871D01*
Y1820246D02*
X569752D01*
X565531Y1815781D02*
X568128D01*
X565531Y1810871D02*
X569752D01*
X572674Y1820246D02*
Y1810871D01*
Y1820246D02*
X575271Y1810871D01*
X577869Y1820246D02*
X575271Y1810871D01*
X577869Y1820246D02*
Y1810871D01*
X585336Y1818906D02*
X584687Y1819799D01*
X583713Y1820246*
X582414*
X581440Y1819799*
X580791Y1818906*
Y1818014*
X581115Y1817121*
X581440Y1816674*
X582089Y1816228*
X584038Y1815335*
X584687Y1814888*
X585012Y1814442*
X585336Y1813549*
Y1812210*
X584687Y1811317*
X583713Y1810871*
X582414*
X581440Y1811317*
X580791Y1812210*
X600596Y1818014D02*
X600272Y1818906D01*
X599622Y1819799*
X598973Y1820246*
X597674*
X597025Y1819799*
X596375Y1818906*
X596051Y1818014*
X595726Y1816674*
Y1814442*
X596051Y1813103*
X596375Y1812210*
X597025Y1811317*
X597674Y1810871*
X598973*
X599622Y1811317*
X600272Y1812210*
X600596Y1813103*
X605467Y1820246D02*
X604817Y1819799D01*
X604168Y1818906*
X603843Y1818014*
X603518Y1816674*
Y1814442*
X603843Y1813103*
X604168Y1812210*
X604817Y1811317*
X605467Y1810871*
X606765*
X607415Y1811317*
X608064Y1812210*
X608389Y1813103*
X608713Y1814442*
Y1816674*
X608389Y1818014*
X608064Y1818906*
X607415Y1819799*
X606765Y1820246*
X605467*
X611635D02*
Y1810871D01*
Y1820246D02*
X614558D01*
X615532Y1819799*
X615856Y1819353*
X616181Y1818460*
Y1817567*
X615856Y1816674*
X615532Y1816228*
X614558Y1815781*
X611635*
X613908D02*
X616181Y1810871D01*
X619103Y1820246D02*
Y1810871D01*
Y1820246D02*
X622025D01*
X622999Y1819799*
X623324Y1819353*
X623649Y1818460*
Y1817121*
X623324Y1816228*
X622999Y1815781*
X622025Y1815335*
X619103*
X626896Y1811763D02*
X626571Y1811317D01*
X626896Y1810871*
X627220Y1811317*
X626896Y1811763*
X2511192Y1142086D02*
X2486192Y1124586D01*
X2511192Y1142086D02*
Y1107086D01*
X1418692Y1949586D02*
X1436192Y1924586D01*
X386192Y1524586D02*
X336192D01*
X2486192D02*
X2536192D01*
X2511192Y1124586D02*
X2536192D01*
X2486192Y724586D02*
X2536192D01*
X911192Y1924586D02*
Y1974586D01*
X1436192Y1949586D02*
Y1974586D01*
X1961192Y1924586D02*
Y1974586D01*
X386192Y1924586D02*
X2486192D01*
Y324586*
X386192D02*
X2486192D01*
X361192Y1124586D02*
X336192D01*
X386192Y1924586D02*
Y324586D01*
Y724586D02*
X336192D01*
X911192Y324586D02*
Y274586D01*
X1961192Y324586D02*
Y274586D01*
X1418692Y299586D02*
X1436192Y324586D01*
X1453692Y299586D02*
X1436192Y324586D01*
X1418692Y299586D02*
X1453692D01*
X1436192D02*
Y274586D01*
X1858717Y349586D02*
X2486192D01*
X2058717Y399586D02*
X2486192D01*
X1358717Y524586D02*
X2486192D01*
X2058717Y468350D02*
X2486192D01*
X2433717Y399586D02*
Y349586D01*
X1358717Y524586D02*
Y324586D01*
X1483717Y524586D02*
Y354586D01*
X1442047Y524586D02*
Y354586D01*
X1400377Y524586D02*
Y354586D01*
X1608717Y524586D02*
Y324586D01*
X1858717Y524586D02*
Y324586D01*
X1908717Y524586D02*
Y324586D01*
X2008717Y524586D02*
Y324586D01*
X2058717Y524586D02*
Y324586D01*
X2110241Y399586D02*
Y349586D01*
X2183717D02*
Y324586D01*
X2233717Y399586D02*
Y349586D01*
X2308717D02*
Y324586D01*
X1358717Y412086D02*
X1483717D01*
X1358717Y399586D02*
X1858717D01*
X1358717Y387086D02*
X1483717D01*
X1358717Y374586D02*
X1608717D01*
X1358717Y354586D02*
X1608717D01*
X1858717Y377086D02*
X2058717D01*
X1858717Y404586D02*
X2058717D01*
X1808717Y449586D02*
Y399586D01*
X1758717Y437086D02*
Y399586D01*
X1708717Y437086D02*
Y399586D01*
X1658717Y449586D02*
Y399586D01*
X1608717Y362086D02*
X1858717D01*
X1630192Y413486D02*
X1647692D01*
X1682692D02*
X1700192D01*
X1358717Y512086D02*
X1483717D01*
X1358717Y499586D02*
X1608717D01*
X1358717Y487086D02*
X1483717D01*
X1358717Y474586D02*
X1608717D01*
X1358717Y462086D02*
X1483717D01*
X1358717Y449586D02*
X1608717D01*
X1358717Y437086D02*
X1483717D01*
X1358717Y424586D02*
X1608717D01*
X1858717Y432086D02*
X2058717D01*
X1858717Y459586D02*
X2058717D01*
X1858717Y487086D02*
X2058717D01*
X1946223Y1843350D02*
X2486223D01*
X1946223Y1874586D02*
X2486223D01*
X1946217Y1899586D02*
X2486223D01*
X2386223Y1780800D02*
Y1899586D01*
X1946223Y1810850D02*
X2486223D01*
X1946223Y1780850D02*
X2486223D01*
X2320000Y1780800D02*
Y1899586D01*
X1946223Y1780800D02*
Y1924586D01*
X1986223Y1780800D02*
Y1899586D01*
G54D31*
X1551200Y1135900D02*
Y1136100D01*
X1556800Y1135900D02*
Y1136100D01*
G54D34*
X1517500Y1332500D03*
X1737500Y1007500D03*
X1517500D03*
G54D37*
X1606750Y1183250D02*
X1600550D01*
Y1186750*
X1606750*
Y1184000*
X1606500*
Y1186000*
X1604000*
Y1183500*
X1606750*
Y1183250*
Y1188000D02*
X1601250D01*
Y1192000*
X1606750*
Y1188000*
X1598750D02*
X1593250D01*
Y1192000*
X1598750*
Y1188000*
X1593250Y1183250D02*
X1599450D01*
Y1186750*
X1593250*
Y1184000*
X1593500*
Y1186000*
X1596000*
Y1183500*
X1593250*
Y1183250*
Y1196750D02*
X1599450D01*
Y1193250*
X1593250*
Y1196000*
X1593500*
Y1194000*
X1596000*
Y1196500*
X1593250*
Y1196750*
X1606750D02*
X1600550D01*
Y1193250*
X1606750*
Y1196000*
X1606500*
Y1194000*
X1604000*
Y1196500*
X1606750*
Y1196750*
G54D38*
X1705250Y1059750D02*
Y1059250D01*
Y1134750D02*
Y1134250D01*
Y1209750D02*
Y1209250D01*
Y1284250D02*
Y1283750D01*
X1570250Y1082500D02*
X1570750D01*
G54D117*
X1641000Y1264500D03*
X1646000D03*
X1651000D03*
X1656000D03*
Y1286500D03*
X1651000D03*
X1646000D03*
X1641000D03*
X1616000Y1264500D03*
X1621000D03*
X1626000D03*
X1631000D03*
Y1286500D03*
X1626000D03*
X1621000D03*
X1616000D03*
G54D119*
X1596874Y1279094D03*
X1589000Y1285000D03*
X1596874Y1290906D03*
X1581126D03*
Y1279094D03*
G54D142*
X1703054Y1104500D02*
X1699512D01*
X1688488D02*
X1684946D01*
X1703054Y1179500D02*
X1699512D01*
X1688488D02*
X1684946D01*
X1703054Y1254500D02*
X1699512D01*
X1688488D02*
X1684946D01*
X1673500Y1301196D02*
Y1304738D01*
Y1315762D02*
Y1319304D01*
G54D143*
X1612805Y1182126D02*
X1609951D01*
X1612805Y1184094D02*
X1609951D01*
X1612805Y1186063D02*
X1609951D01*
X1612805Y1188031D02*
X1609951D01*
X1612805Y1190000D02*
X1609951D01*
X1612805Y1191969D02*
X1609951D01*
X1612805Y1193937D02*
X1609951D01*
X1612805Y1195906D02*
X1609951D01*
X1612805Y1197874D02*
X1609951D01*
X1607874Y1202805D02*
Y1199951D01*
X1605906Y1202805D02*
Y1199951D01*
X1603937Y1202805D02*
Y1199951D01*
X1601969Y1202805D02*
Y1199951D01*
X1600000Y1202805D02*
Y1199951D01*
X1598031Y1202805D02*
Y1199951D01*
X1596063Y1202805D02*
Y1199951D01*
X1594094Y1202805D02*
Y1199951D01*
X1592126Y1202805D02*
Y1199951D01*
X1590049Y1197874D02*
X1587195D01*
X1590049Y1195906D02*
X1587195D01*
X1590049Y1193937D02*
X1587195D01*
X1590049Y1191969D02*
X1587195D01*
X1590049Y1190000D02*
X1587195D01*
X1590049Y1188031D02*
X1587195D01*
X1590049Y1186063D02*
X1587195D01*
X1590049Y1184094D02*
X1587195D01*
X1590049Y1182126D02*
X1587195D01*
X1592126Y1180049D02*
Y1177195D01*
X1594094Y1180049D02*
Y1177195D01*
X1596063Y1180049D02*
Y1177195D01*
X1598031Y1180049D02*
Y1177195D01*
X1600000Y1180049D02*
Y1177195D01*
X1601969Y1180049D02*
Y1177195D01*
X1603937Y1180049D02*
Y1177195D01*
X1605906Y1180049D02*
Y1177195D01*
X1607874Y1180049D02*
Y1177195D01*
G54D145*
X1576447Y1237047D02*
X1576053D01*
X1576447Y1242953D02*
X1576053D01*
X1699047Y1089303D02*
Y1089697D01*
X1704953Y1089303D02*
Y1089697D01*
X1699047Y1164303D02*
Y1164697D01*
X1704953Y1164303D02*
Y1164697D01*
X1699047Y1239303D02*
Y1239697D01*
X1704953Y1239303D02*
Y1239697D01*
X1699047Y1313803D02*
Y1314197D01*
X1704953Y1313803D02*
Y1314197D01*
X1550797Y1173803D02*
Y1174197D01*
X1556703Y1173803D02*
Y1174197D01*
X1566797Y1179053D02*
Y1179447D01*
X1572703Y1179053D02*
Y1179447D01*
X1609547Y1153303D02*
Y1153697D01*
X1615453Y1153303D02*
Y1153697D01*
X1566953Y1164197D02*
Y1163803D01*
X1561047Y1164197D02*
Y1163803D01*
X1598553Y1118953D02*
X1598947D01*
X1598553Y1113047D02*
X1598947D01*
X1575303Y1163953D02*
X1575697D01*
X1575303Y1158047D02*
X1575697D01*
X1578453Y1051697D02*
Y1051303D01*
X1572547Y1051697D02*
Y1051303D01*
X1566797Y1185053D02*
Y1185447D01*
X1572703Y1185053D02*
Y1185447D01*
X1571047Y1151803D02*
Y1152197D01*
X1576953Y1151803D02*
Y1152197D01*
X1644197Y1163547D02*
X1643803D01*
X1644197Y1169453D02*
X1643803D01*
X1638197Y1163547D02*
X1637803D01*
X1638197Y1169453D02*
X1637803D01*
X1639303Y1184453D02*
X1639697D01*
X1639303Y1178547D02*
X1639697D01*
X1633303Y1184453D02*
X1633697D01*
X1633303Y1178547D02*
X1633697D01*
X1638697Y1196547D02*
X1638303D01*
X1638697Y1202453D02*
X1638303D01*
X1644697Y1196547D02*
X1644303D01*
X1644697Y1202453D02*
X1644303D01*
X1630303Y1216453D02*
X1630697D01*
X1630303Y1210547D02*
X1630697D01*
X1636303Y1216453D02*
X1636697D01*
X1636303Y1210547D02*
X1636697D01*
X1571047Y1145803D02*
Y1146197D01*
X1576953Y1145803D02*
Y1146197D01*
X1585197Y1237047D02*
X1584803D01*
X1585197Y1242953D02*
X1584803D01*
X1555203Y1245697D02*
Y1245303D01*
X1549297Y1245697D02*
Y1245303D01*
X1542453Y1119697D02*
Y1119303D01*
X1536547Y1119697D02*
Y1119303D01*
X1579197Y1214547D02*
X1578803D01*
X1579197Y1220453D02*
X1578803D01*
X1580547Y1269803D02*
Y1270197D01*
X1586453Y1269803D02*
Y1270197D01*
X1569803Y1290953D02*
X1570197D01*
X1569803Y1285047D02*
X1570197D01*
X1555047Y1304303D02*
Y1304697D01*
X1560953Y1304303D02*
Y1304697D01*
X1699697Y1227547D02*
X1699303D01*
X1699697Y1233453D02*
X1699303D01*
X1699047Y1295803D02*
Y1296197D01*
X1704953Y1295803D02*
Y1296197D01*
X1699197Y1302047D02*
X1698803D01*
X1699197Y1307953D02*
X1698803D01*
X1530453Y1254197D02*
Y1253803D01*
X1524547Y1254197D02*
Y1253803D01*
X1553803Y1119453D02*
X1554197D01*
X1553803Y1113547D02*
X1554197D01*
X1559803Y1119453D02*
X1560197D01*
X1559803Y1113547D02*
X1560197D01*
X1699047Y1071303D02*
Y1071697D01*
X1704953Y1071303D02*
Y1071697D01*
X1699697Y1077547D02*
X1699303D01*
X1699697Y1083453D02*
X1699303D01*
X1699047Y1146303D02*
Y1146697D01*
X1704953Y1146303D02*
Y1146697D01*
X1699697Y1152547D02*
X1699303D01*
X1699697Y1158453D02*
X1699303D01*
X1699047Y1221303D02*
Y1221697D01*
X1704953Y1221303D02*
Y1221697D01*
X1554803Y1158453D02*
X1555197D01*
X1554803Y1152547D02*
X1555197D01*
X1638953Y1244947D02*
Y1244553D01*
X1633047Y1244947D02*
Y1244553D01*
X1641953Y1251197D02*
Y1250803D01*
X1636047Y1251197D02*
Y1250803D01*
X1639047Y1244553D02*
Y1244947D01*
X1644953Y1244553D02*
Y1244947D01*
X1651197Y1247547D02*
X1650803D01*
X1651197Y1253453D02*
X1650803D01*
Y1247453D02*
X1651197D01*
X1650803Y1241547D02*
X1651197D01*
X1576053Y1236953D02*
X1576447D01*
X1576053Y1231047D02*
X1576447D01*
X1566703Y1185447D02*
Y1185053D01*
X1560797Y1185447D02*
Y1185053D01*
X1566703Y1179447D02*
Y1179053D01*
X1560797Y1179447D02*
Y1179053D01*
X1598047Y1248053D02*
Y1248447D01*
X1603953Y1248053D02*
Y1248447D01*
X1602547Y1228053D02*
Y1228447D01*
X1608453Y1228053D02*
Y1228447D01*
X1609953Y1242197D02*
Y1241803D01*
X1604047Y1242197D02*
Y1241803D01*
G54D146*
X1698250Y1060250D02*
Y1058750D01*
Y1051250D02*
Y1049750D01*
X1705750Y1051250D02*
Y1049750D01*
X1698250Y1135250D02*
Y1133750D01*
Y1126250D02*
Y1124750D01*
X1705750Y1126250D02*
Y1124750D01*
X1698250Y1210250D02*
Y1208750D01*
Y1201250D02*
Y1199750D01*
X1705750Y1201250D02*
Y1199750D01*
X1698250Y1284750D02*
Y1283250D01*
Y1275750D02*
Y1274250D01*
X1705750Y1275750D02*
Y1274250D01*
X1569750Y1075500D02*
X1571250D01*
X1578750D02*
X1580250D01*
X1578750Y1083000D02*
X1580250D01*
G54D147*
X1587930Y1085690D02*
Y1088010D01*
Y1091990D02*
Y1094310D01*
X1585070Y1091990D02*
Y1094310D01*
Y1085690D02*
Y1088010D01*
X1687810Y1055930D02*
X1685490D01*
X1681510D02*
X1679190D01*
X1681510Y1053070D02*
X1679190D01*
X1687810D02*
X1685490D01*
X1687810Y1130930D02*
X1685490D01*
X1681510D02*
X1679190D01*
X1681510Y1128070D02*
X1679190D01*
X1687810D02*
X1685490D01*
X1687810Y1205930D02*
X1685490D01*
X1681510D02*
X1679190D01*
X1681510Y1203070D02*
X1679190D01*
X1687810D02*
X1685490D01*
X1687560Y1280680D02*
X1685240D01*
X1681260D02*
X1678940D01*
X1681260Y1277820D02*
X1678940D01*
X1687560D02*
X1685240D01*
G54D148*
X1633079Y1189492D02*
X1632921D01*
X1633079Y1193508D02*
X1632921D01*
X1620992Y1162921D02*
Y1163079D01*
X1625008Y1162921D02*
Y1163079D01*
X1614992Y1212421D02*
Y1212579D01*
X1619008Y1212421D02*
Y1212579D01*
X1590508Y1163079D02*
Y1162921D01*
X1586492Y1163079D02*
Y1162921D01*
X1628079Y1107492D02*
X1627921D01*
X1628079Y1111508D02*
X1627921D01*
X1590508Y1167579D02*
Y1167421D01*
X1586492Y1167579D02*
Y1167421D01*
X1582492Y1262421D02*
Y1262579D01*
X1586508Y1262421D02*
Y1262579D01*
X1600992Y1212921D02*
Y1213079D01*
X1605008Y1212921D02*
Y1213079D01*
X1606492Y1167421D02*
Y1167579D01*
X1610508Y1167421D02*
Y1167579D01*
X1607579Y1279992D02*
X1607421D01*
X1607579Y1284008D02*
X1607421D01*
X1704008Y1065579D02*
Y1065421D01*
X1699992Y1065579D02*
Y1065421D01*
X1704008Y1140579D02*
Y1140421D01*
X1699992Y1140579D02*
Y1140421D01*
X1704008Y1215579D02*
Y1215421D01*
X1699992Y1215579D02*
Y1215421D01*
X1704008Y1290079D02*
Y1289921D01*
X1699992Y1290079D02*
Y1289921D01*
Y1194421D02*
Y1194579D01*
X1704008Y1194421D02*
Y1194579D01*
X1600992Y1216921D02*
Y1217079D01*
X1605008Y1216921D02*
Y1217079D01*
X1606492Y1160421D02*
Y1160579D01*
X1610508Y1160421D02*
Y1160579D01*
X1567079Y1201992D02*
X1566921D01*
X1567079Y1206008D02*
X1566921D01*
X1548008Y1192579D02*
Y1192421D01*
X1543992Y1192579D02*
Y1192421D01*
X1566921Y1222258D02*
X1567079D01*
X1566921Y1218242D02*
X1567079D01*
X1628579Y1189492D02*
X1628421D01*
X1628579Y1193508D02*
X1628421D01*
X1559008Y1107579D02*
Y1107421D01*
X1554992Y1107579D02*
Y1107421D01*
X1704921Y1082508D02*
X1705079D01*
X1704921Y1078492D02*
X1705079D01*
X1704921Y1157508D02*
X1705079D01*
X1704921Y1153492D02*
X1705079D01*
X1704921Y1232508D02*
X1705079D01*
X1704921Y1228492D02*
X1705079D01*
X1704921Y1307008D02*
X1705079D01*
X1704921Y1302992D02*
X1705079D01*
X1571492Y1169421D02*
Y1169579D01*
X1575508Y1169421D02*
Y1169579D01*
X1575008Y1045579D02*
Y1045421D01*
X1570992Y1045579D02*
Y1045421D01*
X1570492Y1089671D02*
Y1089829D01*
X1574508Y1089671D02*
Y1089829D01*
X1570492Y1095421D02*
Y1095579D01*
X1574508Y1095421D02*
Y1095579D01*
X1571492Y1173921D02*
Y1174079D01*
X1575508Y1173921D02*
Y1174079D01*
X1596079Y1213492D02*
X1595921D01*
X1596079Y1217508D02*
X1595921D01*
X1577508Y1192079D02*
Y1191921D01*
X1573492Y1192079D02*
Y1191921D01*
X1627921Y1121508D02*
X1628079D01*
X1627921Y1117492D02*
X1628079D01*
X1615492Y1167421D02*
Y1167579D01*
X1619508Y1167421D02*
Y1167579D01*
X1582492Y1254421D02*
Y1254579D01*
X1586508Y1254421D02*
Y1254579D01*
X1566258Y1245579D02*
Y1245421D01*
X1562242Y1245579D02*
Y1245421D01*
G54D151*
X1616650Y1114500D02*
X1610350D01*
G54D157*
X1500000Y1000000D02*
X1652500D01*
X1660000Y992500*
Y977500*
X1768000*
Y1365000*
X1660000*
Y1350000*
X1652500Y1342500*
X1500000*
Y1000000*
G54D158*
X1468000Y1401000D02*
Y1406000D01*
X1465500Y1403500D02*
X1470500D01*
X1783000Y941000D02*
Y946000D01*
X1780500Y943500D02*
X1785500D01*
G54D174*
X1650500Y1303000D02*
X1645500D01*
X1650500Y1308000D02*
X1645500D01*
X1650500Y1313000D02*
X1645500D01*
X1650500Y1318000D02*
X1645500D01*
X1628500D02*
X1623500D01*
X1628500Y1313000D02*
X1623500D01*
X1628500Y1308000D02*
X1623500D01*
X1628500Y1303000D02*
X1623500D01*
G74*
X0Y0D02*
M02*
